G04 EAGLE Gerber RS-274X export*
G75*
%MOMM*%
%FSLAX34Y34*%
%LPD*%
%INTop Copper*%
%IPPOS*%
%AMOC8*
5,1,8,0,0,1.08239X$1,22.5*%
G01*
%ADD10C,1.879600*%
%ADD11R,1.778000X0.711200*%
%ADD12R,0.711200X1.778000*%
%ADD13R,0.762000X1.524000*%
%ADD14R,1.200000X1.200000*%
%ADD15R,1.270000X0.508000*%
%ADD16C,0.706400*%
%ADD17C,0.609600*%
%ADD18C,0.406400*%
%ADD19C,0.200000*%
%ADD20C,0.254000*%

G36*
X95599Y2643D02*
X95599Y2643D01*
X95653Y2641D01*
X95738Y2663D01*
X95825Y2676D01*
X95874Y2698D01*
X95926Y2711D01*
X96002Y2756D01*
X96082Y2792D01*
X96123Y2827D01*
X96169Y2854D01*
X96229Y2918D01*
X96296Y2975D01*
X96326Y3020D01*
X96362Y3059D01*
X96402Y3137D01*
X96451Y3211D01*
X96466Y3263D01*
X96491Y3310D01*
X96507Y3397D01*
X96533Y3481D01*
X96534Y3534D01*
X96544Y3587D01*
X96536Y3665D01*
X96537Y3763D01*
X96529Y3790D01*
X96529Y8161D01*
X104070Y8161D01*
X104134Y8170D01*
X104198Y8169D01*
X104272Y8190D01*
X104349Y8201D01*
X104408Y8227D01*
X104470Y8244D01*
X104536Y8285D01*
X104606Y8317D01*
X104655Y8359D01*
X104710Y8392D01*
X104761Y8450D01*
X104820Y8500D01*
X104856Y8554D01*
X104899Y8602D01*
X104932Y8671D01*
X104975Y8736D01*
X104994Y8798D01*
X105022Y8855D01*
X105032Y8925D01*
X105057Y9006D01*
X105058Y9091D01*
X105069Y9160D01*
X105069Y10161D01*
X105071Y10161D01*
X105071Y9160D01*
X105080Y9096D01*
X105079Y9032D01*
X105100Y8957D01*
X105111Y8881D01*
X105137Y8822D01*
X105154Y8760D01*
X105195Y8694D01*
X105227Y8624D01*
X105269Y8575D01*
X105302Y8520D01*
X105360Y8468D01*
X105410Y8410D01*
X105464Y8374D01*
X105512Y8331D01*
X105581Y8298D01*
X105646Y8255D01*
X105708Y8236D01*
X105766Y8208D01*
X105835Y8198D01*
X105916Y8173D01*
X106001Y8172D01*
X106070Y8161D01*
X113611Y8161D01*
X113611Y3802D01*
X113607Y3789D01*
X113606Y3701D01*
X113595Y3614D01*
X113604Y3561D01*
X113603Y3507D01*
X113627Y3422D01*
X113641Y3336D01*
X113664Y3287D01*
X113678Y3235D01*
X113725Y3160D01*
X113763Y3081D01*
X113798Y3041D01*
X113826Y2995D01*
X113892Y2936D01*
X113950Y2871D01*
X113996Y2842D01*
X114036Y2806D01*
X114115Y2768D01*
X114190Y2721D01*
X114241Y2707D01*
X114290Y2683D01*
X114367Y2671D01*
X114461Y2645D01*
X114533Y2645D01*
X114594Y2636D01*
X117800Y2636D01*
X117864Y2645D01*
X117928Y2644D01*
X118003Y2665D01*
X118079Y2676D01*
X118138Y2702D01*
X118200Y2719D01*
X118266Y2760D01*
X118336Y2792D01*
X118385Y2834D01*
X118440Y2867D01*
X118492Y2925D01*
X118550Y2975D01*
X118586Y3029D01*
X118629Y3077D01*
X118662Y3146D01*
X118705Y3211D01*
X118724Y3273D01*
X118752Y3330D01*
X118763Y3400D01*
X118787Y3481D01*
X118788Y3566D01*
X118799Y3635D01*
X118799Y16686D01*
X119544Y17431D01*
X132596Y17431D01*
X133341Y16686D01*
X133341Y14275D01*
X133345Y14243D01*
X133343Y14211D01*
X133365Y14104D01*
X133381Y13996D01*
X133394Y13967D01*
X133400Y13935D01*
X133452Y13839D01*
X133497Y13739D01*
X133518Y13715D01*
X133533Y13686D01*
X133609Y13608D01*
X133680Y13525D01*
X133707Y13507D01*
X133730Y13484D01*
X133825Y13430D01*
X133916Y13370D01*
X133947Y13361D01*
X133975Y13345D01*
X134081Y13320D01*
X134186Y13288D01*
X134218Y13287D01*
X134249Y13280D01*
X134359Y13286D01*
X134468Y13284D01*
X134499Y13293D01*
X134531Y13294D01*
X134634Y13330D01*
X134740Y13359D01*
X134767Y13376D01*
X134798Y13387D01*
X134871Y13440D01*
X134980Y13508D01*
X135012Y13544D01*
X135047Y13569D01*
X136441Y14963D01*
X140419Y14963D01*
X143233Y12149D01*
X143233Y8171D01*
X140419Y5357D01*
X136441Y5357D01*
X135047Y6751D01*
X135021Y6771D01*
X135000Y6795D01*
X134908Y6855D01*
X134821Y6921D01*
X134791Y6932D01*
X134764Y6950D01*
X134659Y6982D01*
X134557Y7020D01*
X134525Y7023D01*
X134494Y7032D01*
X134385Y7034D01*
X134276Y7042D01*
X134244Y7035D01*
X134212Y7036D01*
X134107Y7007D01*
X134000Y6984D01*
X133971Y6969D01*
X133940Y6961D01*
X133847Y6903D01*
X133751Y6852D01*
X133728Y6829D01*
X133700Y6812D01*
X133627Y6731D01*
X133549Y6655D01*
X133533Y6627D01*
X133511Y6603D01*
X133464Y6505D01*
X133410Y6410D01*
X133402Y6378D01*
X133388Y6349D01*
X133374Y6260D01*
X133345Y6135D01*
X133347Y6087D01*
X133341Y6045D01*
X133341Y3635D01*
X133350Y3571D01*
X133349Y3507D01*
X133370Y3432D01*
X133381Y3356D01*
X133407Y3297D01*
X133424Y3235D01*
X133465Y3169D01*
X133497Y3099D01*
X133539Y3050D01*
X133572Y2995D01*
X133630Y2943D01*
X133680Y2885D01*
X133734Y2849D01*
X133782Y2806D01*
X133851Y2773D01*
X133916Y2730D01*
X133978Y2711D01*
X134035Y2683D01*
X134105Y2672D01*
X134186Y2648D01*
X134271Y2647D01*
X134340Y2636D01*
X208464Y2636D01*
X208496Y2640D01*
X208528Y2638D01*
X208635Y2660D01*
X208743Y2676D01*
X208773Y2689D01*
X208804Y2695D01*
X208900Y2747D01*
X209000Y2792D01*
X209025Y2813D01*
X209053Y2828D01*
X209131Y2904D01*
X209214Y2975D01*
X209232Y3002D01*
X209255Y3025D01*
X209309Y3120D01*
X209369Y3211D01*
X209378Y3242D01*
X209394Y3270D01*
X209419Y3376D01*
X209451Y3481D01*
X209452Y3513D01*
X209459Y3544D01*
X209454Y3654D01*
X209455Y3763D01*
X209446Y3794D01*
X209445Y3826D01*
X209409Y3929D01*
X209380Y4035D01*
X209363Y4062D01*
X209352Y4093D01*
X209299Y4166D01*
X209232Y4275D01*
X209196Y4307D01*
X209171Y4342D01*
X206855Y6657D01*
X205231Y10578D01*
X205231Y14822D01*
X206856Y18743D01*
X209857Y21744D01*
X210375Y21959D01*
X210477Y22020D01*
X210581Y22075D01*
X210598Y22091D01*
X210617Y22103D01*
X210698Y22189D01*
X210783Y22272D01*
X210795Y22292D01*
X210810Y22308D01*
X210864Y22414D01*
X210922Y22517D01*
X210928Y22540D01*
X210938Y22560D01*
X210960Y22676D01*
X210987Y22792D01*
X210986Y22815D01*
X210990Y22837D01*
X210979Y22955D01*
X210973Y23073D01*
X210966Y23095D01*
X210963Y23118D01*
X210920Y23228D01*
X210881Y23340D01*
X210868Y23357D01*
X210859Y23380D01*
X210744Y23527D01*
X210699Y23589D01*
X201961Y32326D01*
X201961Y48414D01*
X201948Y48508D01*
X201943Y48605D01*
X201928Y48648D01*
X201921Y48693D01*
X201882Y48780D01*
X201850Y48871D01*
X201825Y48906D01*
X201805Y48950D01*
X201722Y49047D01*
X201669Y49120D01*
X198151Y52637D01*
X198151Y70077D01*
X198138Y70172D01*
X198133Y70268D01*
X198118Y70311D01*
X198111Y70356D01*
X198072Y70444D01*
X198040Y70535D01*
X198015Y70569D01*
X197995Y70613D01*
X197912Y70711D01*
X197859Y70784D01*
X194747Y73896D01*
X194721Y73915D01*
X194700Y73940D01*
X194608Y74000D01*
X194525Y74062D01*
X194563Y74103D01*
X194641Y74180D01*
X194657Y74208D01*
X194679Y74232D01*
X194726Y74330D01*
X194780Y74425D01*
X194788Y74457D01*
X194802Y74486D01*
X194816Y74575D01*
X194845Y74700D01*
X194843Y74748D01*
X194849Y74790D01*
X194849Y80150D01*
X194845Y80182D01*
X194847Y80214D01*
X194825Y80321D01*
X194809Y80429D01*
X194796Y80458D01*
X194790Y80490D01*
X194738Y80586D01*
X194693Y80686D01*
X194672Y80710D01*
X194657Y80739D01*
X194581Y80817D01*
X194510Y80900D01*
X194483Y80918D01*
X194460Y80941D01*
X194365Y80995D01*
X194274Y81055D01*
X194243Y81064D01*
X194215Y81080D01*
X194109Y81105D01*
X194004Y81137D01*
X193972Y81138D01*
X193941Y81145D01*
X193831Y81139D01*
X193722Y81141D01*
X193691Y81132D01*
X193659Y81131D01*
X193556Y81095D01*
X193450Y81066D01*
X193423Y81049D01*
X193392Y81038D01*
X193319Y80985D01*
X193210Y80917D01*
X193178Y80881D01*
X193143Y80856D01*
X192296Y80009D01*
X178544Y80009D01*
X177765Y80787D01*
X177759Y80829D01*
X177733Y80888D01*
X177716Y80950D01*
X177675Y81016D01*
X177643Y81086D01*
X177601Y81135D01*
X177568Y81190D01*
X177510Y81242D01*
X177460Y81300D01*
X177406Y81336D01*
X177358Y81379D01*
X177289Y81412D01*
X177224Y81455D01*
X177162Y81474D01*
X177105Y81502D01*
X177035Y81513D01*
X176954Y81537D01*
X176869Y81538D01*
X176800Y81549D01*
X154795Y81549D01*
X154700Y81536D01*
X154604Y81531D01*
X154561Y81516D01*
X154516Y81509D01*
X154429Y81470D01*
X154338Y81438D01*
X154303Y81413D01*
X154259Y81393D01*
X154162Y81310D01*
X154089Y81257D01*
X151849Y79017D01*
X147871Y79017D01*
X146164Y80724D01*
X146113Y80762D01*
X146068Y80808D01*
X146000Y80847D01*
X145939Y80893D01*
X145878Y80916D01*
X145822Y80947D01*
X145747Y80965D01*
X145675Y80993D01*
X145611Y80998D01*
X145548Y81012D01*
X145471Y81008D01*
X145393Y81014D01*
X145331Y81001D01*
X145266Y80998D01*
X145193Y80973D01*
X145117Y80957D01*
X145061Y80927D01*
X145000Y80906D01*
X144943Y80864D01*
X144868Y80824D01*
X144808Y80765D01*
X144751Y80724D01*
X144036Y80009D01*
X130284Y80009D01*
X130204Y80089D01*
X130153Y80127D01*
X130108Y80173D01*
X130040Y80212D01*
X129978Y80258D01*
X129918Y80281D01*
X129862Y80312D01*
X129787Y80330D01*
X129715Y80358D01*
X129651Y80363D01*
X129588Y80377D01*
X129511Y80373D01*
X129433Y80379D01*
X129371Y80366D01*
X129306Y80363D01*
X129233Y80338D01*
X129157Y80322D01*
X129101Y80292D01*
X129040Y80271D01*
X128983Y80229D01*
X128908Y80189D01*
X128848Y80130D01*
X128791Y80089D01*
X127719Y79017D01*
X123741Y79017D01*
X120927Y81831D01*
X120927Y85809D01*
X123741Y88623D01*
X127719Y88623D01*
X128791Y87551D01*
X128842Y87513D01*
X128887Y87467D01*
X128955Y87428D01*
X129016Y87382D01*
X129077Y87359D01*
X129133Y87328D01*
X129208Y87310D01*
X129280Y87282D01*
X129344Y87277D01*
X129407Y87263D01*
X129484Y87267D01*
X129562Y87261D01*
X129624Y87274D01*
X129689Y87277D01*
X129762Y87302D01*
X129838Y87318D01*
X129894Y87348D01*
X129955Y87369D01*
X130012Y87411D01*
X130087Y87451D01*
X130147Y87510D01*
X130204Y87551D01*
X130284Y87631D01*
X144036Y87631D01*
X144751Y86916D01*
X144802Y86878D01*
X144847Y86832D01*
X144915Y86793D01*
X144977Y86747D01*
X145037Y86724D01*
X145093Y86693D01*
X145168Y86675D01*
X145240Y86647D01*
X145304Y86642D01*
X145367Y86628D01*
X145444Y86632D01*
X145522Y86626D01*
X145584Y86639D01*
X145649Y86642D01*
X145722Y86667D01*
X145798Y86683D01*
X145854Y86713D01*
X145915Y86734D01*
X145972Y86776D01*
X146047Y86816D01*
X146107Y86875D01*
X146164Y86916D01*
X147871Y88623D01*
X151849Y88623D01*
X154089Y86383D01*
X154165Y86326D01*
X154237Y86261D01*
X154278Y86241D01*
X154314Y86214D01*
X154404Y86180D01*
X154491Y86138D01*
X154533Y86132D01*
X154578Y86115D01*
X154706Y86105D01*
X154795Y86091D01*
X176800Y86091D01*
X176864Y86100D01*
X176928Y86099D01*
X177003Y86120D01*
X177079Y86131D01*
X177138Y86157D01*
X177200Y86174D01*
X177266Y86215D01*
X177336Y86247D01*
X177385Y86289D01*
X177440Y86322D01*
X177492Y86380D01*
X177550Y86430D01*
X177586Y86484D01*
X177629Y86532D01*
X177662Y86601D01*
X177705Y86666D01*
X177724Y86728D01*
X177752Y86785D01*
X177762Y86849D01*
X178544Y87631D01*
X192296Y87631D01*
X193143Y86784D01*
X193169Y86764D01*
X193190Y86740D01*
X193282Y86680D01*
X193369Y86614D01*
X193399Y86603D01*
X193426Y86585D01*
X193531Y86553D01*
X193633Y86515D01*
X193665Y86512D01*
X193696Y86503D01*
X193805Y86501D01*
X193914Y86493D01*
X193946Y86500D01*
X193978Y86499D01*
X194083Y86528D01*
X194190Y86551D01*
X194219Y86566D01*
X194250Y86574D01*
X194343Y86632D01*
X194439Y86683D01*
X194462Y86706D01*
X194490Y86723D01*
X194563Y86803D01*
X194641Y86880D01*
X194657Y86908D01*
X194679Y86932D01*
X194726Y87030D01*
X194780Y87125D01*
X194788Y87157D01*
X194802Y87186D01*
X194816Y87275D01*
X194845Y87400D01*
X194843Y87448D01*
X194849Y87490D01*
X194849Y92850D01*
X194845Y92882D01*
X194847Y92914D01*
X194825Y93021D01*
X194809Y93129D01*
X194796Y93158D01*
X194790Y93190D01*
X194738Y93286D01*
X194693Y93386D01*
X194672Y93410D01*
X194657Y93439D01*
X194581Y93517D01*
X194510Y93600D01*
X194483Y93618D01*
X194460Y93641D01*
X194365Y93695D01*
X194274Y93755D01*
X194243Y93764D01*
X194215Y93780D01*
X194109Y93805D01*
X194004Y93837D01*
X193972Y93838D01*
X193941Y93845D01*
X193831Y93839D01*
X193722Y93841D01*
X193691Y93832D01*
X193659Y93831D01*
X193556Y93795D01*
X193450Y93766D01*
X193423Y93749D01*
X193392Y93738D01*
X193319Y93685D01*
X193210Y93617D01*
X193178Y93581D01*
X193143Y93556D01*
X192296Y92709D01*
X178544Y92709D01*
X177799Y93454D01*
X177799Y99586D01*
X178544Y100331D01*
X192296Y100331D01*
X193143Y99484D01*
X193169Y99464D01*
X193190Y99440D01*
X193282Y99380D01*
X193369Y99314D01*
X193399Y99303D01*
X193426Y99285D01*
X193531Y99253D01*
X193633Y99215D01*
X193665Y99212D01*
X193696Y99203D01*
X193805Y99201D01*
X193914Y99193D01*
X193946Y99200D01*
X193978Y99199D01*
X194083Y99228D01*
X194190Y99251D01*
X194219Y99266D01*
X194250Y99274D01*
X194343Y99332D01*
X194439Y99383D01*
X194462Y99406D01*
X194490Y99423D01*
X194563Y99503D01*
X194641Y99580D01*
X194657Y99608D01*
X194679Y99632D01*
X194726Y99730D01*
X194780Y99825D01*
X194788Y99857D01*
X194802Y99886D01*
X194816Y99975D01*
X194845Y100100D01*
X194843Y100148D01*
X194849Y100190D01*
X194849Y100587D01*
X194840Y100649D01*
X194841Y100690D01*
X194834Y100715D01*
X194831Y100778D01*
X194816Y100821D01*
X194809Y100866D01*
X194770Y100954D01*
X194738Y101045D01*
X194713Y101079D01*
X194693Y101123D01*
X194610Y101221D01*
X194557Y101294D01*
X187309Y108541D01*
X187309Y115920D01*
X187300Y115984D01*
X187301Y116048D01*
X187280Y116123D01*
X187269Y116199D01*
X187243Y116258D01*
X187226Y116320D01*
X187185Y116386D01*
X187153Y116456D01*
X187111Y116505D01*
X187078Y116560D01*
X187020Y116612D01*
X186970Y116670D01*
X186916Y116706D01*
X186868Y116749D01*
X186799Y116782D01*
X186734Y116825D01*
X186672Y116844D01*
X186615Y116872D01*
X186545Y116883D01*
X186464Y116907D01*
X186379Y116908D01*
X186310Y116919D01*
X150527Y116919D01*
X145279Y122167D01*
X145203Y122224D01*
X145131Y122289D01*
X145090Y122309D01*
X145054Y122336D01*
X144964Y122370D01*
X144877Y122412D01*
X144835Y122418D01*
X144790Y122435D01*
X144662Y122445D01*
X144573Y122459D01*
X134753Y122459D01*
X130236Y126977D01*
X130159Y127034D01*
X130088Y127099D01*
X130047Y127119D01*
X130010Y127146D01*
X129920Y127180D01*
X129834Y127222D01*
X129792Y127228D01*
X129746Y127245D01*
X129619Y127255D01*
X129529Y127269D01*
X123519Y127269D01*
X121897Y128892D01*
X118849Y131939D01*
X118849Y133620D01*
X118840Y133684D01*
X118841Y133748D01*
X118820Y133823D01*
X118809Y133899D01*
X118783Y133958D01*
X118766Y134020D01*
X118725Y134086D01*
X118693Y134156D01*
X118651Y134205D01*
X118618Y134260D01*
X118560Y134312D01*
X118510Y134370D01*
X118456Y134406D01*
X118408Y134449D01*
X118339Y134482D01*
X118274Y134525D01*
X118212Y134544D01*
X118155Y134572D01*
X118085Y134583D01*
X118004Y134607D01*
X117919Y134608D01*
X117850Y134619D01*
X117038Y134619D01*
X116293Y135364D01*
X116293Y154196D01*
X117038Y154941D01*
X125202Y154941D01*
X125947Y154196D01*
X125947Y135364D01*
X125202Y134619D01*
X125004Y134619D01*
X124972Y134615D01*
X124940Y134617D01*
X124833Y134595D01*
X124725Y134579D01*
X124696Y134566D01*
X124664Y134560D01*
X124568Y134508D01*
X124468Y134463D01*
X124444Y134442D01*
X124415Y134427D01*
X124337Y134351D01*
X124254Y134280D01*
X124236Y134253D01*
X124213Y134230D01*
X124159Y134135D01*
X124100Y134044D01*
X124090Y134013D01*
X124074Y133985D01*
X124049Y133878D01*
X124017Y133774D01*
X124017Y133742D01*
X124009Y133711D01*
X124015Y133601D01*
X124013Y133492D01*
X124022Y133461D01*
X124024Y133429D01*
X124059Y133326D01*
X124089Y133220D01*
X124106Y133193D01*
X124116Y133162D01*
X124169Y133089D01*
X124237Y132980D01*
X124273Y132948D01*
X124298Y132913D01*
X125108Y132103D01*
X125185Y132046D01*
X125256Y131981D01*
X125297Y131961D01*
X125333Y131934D01*
X125423Y131900D01*
X125510Y131858D01*
X125552Y131852D01*
X125597Y131835D01*
X125725Y131825D01*
X125814Y131811D01*
X130280Y131811D01*
X130344Y131820D01*
X130408Y131819D01*
X130483Y131840D01*
X130559Y131851D01*
X130618Y131877D01*
X130680Y131894D01*
X130746Y131935D01*
X130816Y131967D01*
X130865Y132009D01*
X130920Y132042D01*
X130972Y132100D01*
X131030Y132150D01*
X131066Y132204D01*
X131109Y132252D01*
X131142Y132321D01*
X131185Y132386D01*
X131204Y132448D01*
X131232Y132505D01*
X131243Y132575D01*
X131267Y132656D01*
X131268Y132741D01*
X131279Y132810D01*
X131279Y133620D01*
X131270Y133684D01*
X131271Y133748D01*
X131250Y133823D01*
X131239Y133899D01*
X131213Y133958D01*
X131196Y134020D01*
X131155Y134086D01*
X131123Y134156D01*
X131081Y134205D01*
X131048Y134260D01*
X130990Y134312D01*
X130940Y134370D01*
X130886Y134406D01*
X130838Y134449D01*
X130769Y134482D01*
X130704Y134525D01*
X130642Y134544D01*
X130585Y134572D01*
X130515Y134583D01*
X130434Y134607D01*
X130349Y134608D01*
X130280Y134619D01*
X129738Y134619D01*
X128993Y135364D01*
X128993Y154196D01*
X129738Y154941D01*
X137902Y154941D01*
X138647Y154196D01*
X138647Y135364D01*
X137902Y134619D01*
X137360Y134619D01*
X137296Y134610D01*
X137232Y134611D01*
X137157Y134590D01*
X137081Y134579D01*
X137022Y134553D01*
X136960Y134536D01*
X136894Y134495D01*
X136824Y134463D01*
X136775Y134421D01*
X136720Y134388D01*
X136668Y134330D01*
X136610Y134280D01*
X136574Y134226D01*
X136531Y134178D01*
X136498Y134109D01*
X136455Y134044D01*
X136436Y133982D01*
X136408Y133925D01*
X136397Y133855D01*
X136373Y133774D01*
X136372Y133689D01*
X136361Y133620D01*
X136361Y133076D01*
X136374Y132981D01*
X136379Y132885D01*
X136394Y132842D01*
X136401Y132797D01*
X136440Y132710D01*
X136472Y132619D01*
X136497Y132584D01*
X136517Y132540D01*
X136600Y132443D01*
X136653Y132370D01*
X137920Y131103D01*
X137997Y131046D01*
X138068Y130981D01*
X138109Y130961D01*
X138145Y130934D01*
X138235Y130900D01*
X138322Y130858D01*
X138364Y130852D01*
X138409Y130835D01*
X138537Y130825D01*
X138626Y130811D01*
X144236Y130811D01*
X144268Y130815D01*
X144300Y130813D01*
X144407Y130835D01*
X144515Y130851D01*
X144544Y130864D01*
X144576Y130870D01*
X144672Y130922D01*
X144772Y130967D01*
X144796Y130988D01*
X144825Y131003D01*
X144903Y131079D01*
X144986Y131150D01*
X145004Y131177D01*
X145027Y131200D01*
X145081Y131295D01*
X145140Y131386D01*
X145150Y131417D01*
X145166Y131445D01*
X145191Y131551D01*
X145223Y131656D01*
X145223Y131688D01*
X145231Y131719D01*
X145225Y131829D01*
X145227Y131938D01*
X145218Y131969D01*
X145216Y132001D01*
X145181Y132104D01*
X145151Y132210D01*
X145134Y132237D01*
X145124Y132268D01*
X145071Y132341D01*
X145003Y132450D01*
X144967Y132482D01*
X144942Y132517D01*
X144249Y133209D01*
X144249Y133620D01*
X144240Y133684D01*
X144241Y133748D01*
X144220Y133823D01*
X144209Y133899D01*
X144183Y133958D01*
X144166Y134020D01*
X144125Y134086D01*
X144093Y134156D01*
X144051Y134205D01*
X144018Y134260D01*
X143960Y134312D01*
X143910Y134370D01*
X143856Y134406D01*
X143808Y134449D01*
X143739Y134482D01*
X143674Y134525D01*
X143612Y134544D01*
X143555Y134572D01*
X143485Y134583D01*
X143404Y134607D01*
X143319Y134608D01*
X143250Y134619D01*
X142438Y134619D01*
X141693Y135364D01*
X141693Y154196D01*
X142438Y154941D01*
X150602Y154941D01*
X151347Y154196D01*
X151347Y135364D01*
X150639Y134656D01*
X150600Y134604D01*
X150554Y134559D01*
X150516Y134492D01*
X150469Y134430D01*
X150447Y134370D01*
X150415Y134314D01*
X150397Y134239D01*
X150370Y134166D01*
X150365Y134102D01*
X150350Y134040D01*
X150354Y133962D01*
X150348Y133885D01*
X150361Y133822D01*
X150365Y133758D01*
X150390Y133685D01*
X150406Y133609D01*
X150436Y133552D01*
X150457Y133492D01*
X150498Y133435D01*
X150538Y133360D01*
X150597Y133299D01*
X150639Y133243D01*
X155048Y128833D01*
X155125Y128776D01*
X155196Y128711D01*
X155237Y128691D01*
X155273Y128664D01*
X155364Y128630D01*
X155450Y128588D01*
X155492Y128582D01*
X155537Y128565D01*
X155665Y128555D01*
X155754Y128541D01*
X159206Y128541D01*
X159238Y128545D01*
X159270Y128543D01*
X159377Y128565D01*
X159485Y128581D01*
X159514Y128594D01*
X159546Y128600D01*
X159642Y128652D01*
X159742Y128697D01*
X159766Y128718D01*
X159795Y128733D01*
X159873Y128809D01*
X159956Y128880D01*
X159974Y128907D01*
X159997Y128930D01*
X160051Y129025D01*
X160110Y129116D01*
X160120Y129147D01*
X160136Y129175D01*
X160161Y129281D01*
X160193Y129386D01*
X160193Y129418D01*
X160201Y129449D01*
X160195Y129559D01*
X160197Y129668D01*
X160188Y129699D01*
X160186Y129731D01*
X160151Y129834D01*
X160121Y129940D01*
X160104Y129967D01*
X160094Y129998D01*
X160041Y130071D01*
X159973Y130180D01*
X159937Y130212D01*
X159912Y130247D01*
X156949Y133209D01*
X156949Y133620D01*
X156940Y133684D01*
X156941Y133748D01*
X156920Y133823D01*
X156909Y133899D01*
X156883Y133958D01*
X156866Y134020D01*
X156825Y134086D01*
X156793Y134156D01*
X156751Y134205D01*
X156718Y134260D01*
X156660Y134312D01*
X156610Y134370D01*
X156556Y134406D01*
X156508Y134449D01*
X156439Y134482D01*
X156374Y134525D01*
X156312Y134544D01*
X156255Y134572D01*
X156185Y134583D01*
X156104Y134607D01*
X156019Y134608D01*
X155950Y134619D01*
X155138Y134619D01*
X154393Y135364D01*
X154393Y154196D01*
X155138Y154941D01*
X163100Y154941D01*
X163164Y154950D01*
X163228Y154949D01*
X163303Y154970D01*
X163379Y154981D01*
X163438Y155007D01*
X163500Y155024D01*
X163566Y155065D01*
X163636Y155097D01*
X163685Y155139D01*
X163740Y155172D01*
X163792Y155230D01*
X163850Y155280D01*
X163886Y155334D01*
X163929Y155382D01*
X163962Y155451D01*
X164005Y155516D01*
X164024Y155578D01*
X164052Y155635D01*
X164063Y155705D01*
X164087Y155786D01*
X164088Y155871D01*
X164099Y155940D01*
X164099Y228271D01*
X168979Y233151D01*
X174260Y233151D01*
X174324Y233160D01*
X174388Y233159D01*
X174463Y233180D01*
X174539Y233191D01*
X174598Y233217D01*
X174660Y233234D01*
X174726Y233275D01*
X174796Y233307D01*
X174845Y233349D01*
X174900Y233382D01*
X174952Y233440D01*
X175010Y233490D01*
X175046Y233544D01*
X175089Y233592D01*
X175122Y233661D01*
X175165Y233726D01*
X175184Y233788D01*
X175212Y233845D01*
X175223Y233915D01*
X175247Y233996D01*
X175248Y234081D01*
X175259Y234150D01*
X175259Y234962D01*
X176004Y235707D01*
X194836Y235707D01*
X195581Y234962D01*
X195581Y234150D01*
X195590Y234086D01*
X195589Y234022D01*
X195610Y233947D01*
X195621Y233871D01*
X195647Y233812D01*
X195664Y233750D01*
X195705Y233684D01*
X195737Y233614D01*
X195779Y233565D01*
X195812Y233510D01*
X195870Y233458D01*
X195920Y233400D01*
X195974Y233364D01*
X196022Y233321D01*
X196091Y233288D01*
X196156Y233245D01*
X196218Y233226D01*
X196275Y233198D01*
X196345Y233187D01*
X196426Y233163D01*
X196511Y233162D01*
X196580Y233151D01*
X204126Y233151D01*
X204220Y233164D01*
X204317Y233169D01*
X204360Y233184D01*
X204405Y233191D01*
X204492Y233230D01*
X204583Y233262D01*
X204618Y233287D01*
X204662Y233307D01*
X204759Y233390D01*
X204832Y233443D01*
X206322Y234933D01*
X206327Y234941D01*
X206335Y234947D01*
X206412Y235053D01*
X206491Y235159D01*
X206494Y235168D01*
X206500Y235175D01*
X206544Y235299D01*
X206591Y235423D01*
X206591Y235432D01*
X206595Y235441D01*
X206602Y235572D01*
X206612Y235704D01*
X206610Y235713D01*
X206611Y235723D01*
X206593Y235798D01*
X206555Y235980D01*
X206544Y236001D01*
X206538Y236022D01*
X205231Y239178D01*
X205231Y243422D01*
X206856Y247343D01*
X209857Y250344D01*
X213778Y251969D01*
X218022Y251969D01*
X221943Y250345D01*
X224258Y248029D01*
X224284Y248010D01*
X224305Y247986D01*
X224397Y247926D01*
X224484Y247860D01*
X224514Y247849D01*
X224541Y247831D01*
X224646Y247799D01*
X224748Y247761D01*
X224780Y247758D01*
X224811Y247749D01*
X224920Y247747D01*
X225029Y247739D01*
X225061Y247745D01*
X225093Y247745D01*
X225198Y247774D01*
X225305Y247796D01*
X225334Y247812D01*
X225365Y247820D01*
X225458Y247878D01*
X225554Y247929D01*
X225577Y247951D01*
X225605Y247968D01*
X225678Y248049D01*
X225756Y248126D01*
X225772Y248154D01*
X225794Y248178D01*
X225841Y248276D01*
X225895Y248371D01*
X225903Y248402D01*
X225917Y248431D01*
X225931Y248521D01*
X225960Y248645D01*
X225958Y248694D01*
X225964Y248736D01*
X225964Y259264D01*
X225960Y259296D01*
X225962Y259328D01*
X225940Y259435D01*
X225924Y259543D01*
X225911Y259573D01*
X225905Y259604D01*
X225853Y259701D01*
X225808Y259800D01*
X225787Y259825D01*
X225772Y259853D01*
X225696Y259931D01*
X225625Y260014D01*
X225598Y260032D01*
X225575Y260055D01*
X225480Y260109D01*
X225389Y260169D01*
X225358Y260178D01*
X225330Y260194D01*
X225224Y260219D01*
X225119Y260251D01*
X225087Y260252D01*
X225056Y260259D01*
X224946Y260254D01*
X224837Y260255D01*
X224806Y260246D01*
X224774Y260245D01*
X224671Y260209D01*
X224565Y260180D01*
X224538Y260163D01*
X224507Y260152D01*
X224434Y260099D01*
X224325Y260032D01*
X224293Y259996D01*
X224258Y259971D01*
X221943Y257655D01*
X218022Y256031D01*
X213778Y256031D01*
X213316Y256223D01*
X213307Y256225D01*
X213299Y256230D01*
X213170Y256260D01*
X213043Y256293D01*
X213034Y256292D01*
X213024Y256294D01*
X212892Y256288D01*
X212761Y256284D01*
X212752Y256281D01*
X212743Y256280D01*
X212618Y256237D01*
X212493Y256196D01*
X212485Y256191D01*
X212476Y256188D01*
X212414Y256142D01*
X212260Y256037D01*
X212245Y256019D01*
X212227Y256006D01*
X197531Y241309D01*
X196580Y241309D01*
X196516Y241300D01*
X196452Y241301D01*
X196377Y241280D01*
X196301Y241269D01*
X196242Y241243D01*
X196180Y241226D01*
X196114Y241185D01*
X196044Y241153D01*
X195995Y241111D01*
X195940Y241078D01*
X195888Y241020D01*
X195830Y240970D01*
X195794Y240916D01*
X195751Y240868D01*
X195718Y240799D01*
X195675Y240734D01*
X195656Y240672D01*
X195628Y240615D01*
X195617Y240545D01*
X195593Y240464D01*
X195592Y240379D01*
X195581Y240310D01*
X195581Y239498D01*
X194836Y238753D01*
X176004Y238753D01*
X175259Y239498D01*
X175259Y247662D01*
X176004Y248407D01*
X194836Y248407D01*
X195814Y247429D01*
X195866Y247390D01*
X195911Y247344D01*
X195978Y247306D01*
X196040Y247259D01*
X196100Y247237D01*
X196156Y247205D01*
X196231Y247187D01*
X196304Y247160D01*
X196368Y247155D01*
X196430Y247140D01*
X196508Y247144D01*
X196585Y247138D01*
X196648Y247151D01*
X196712Y247155D01*
X196785Y247180D01*
X196861Y247196D01*
X196918Y247226D01*
X196978Y247247D01*
X197035Y247288D01*
X197110Y247328D01*
X197171Y247387D01*
X197227Y247429D01*
X207949Y258150D01*
X207987Y258201D01*
X208033Y258246D01*
X208072Y258314D01*
X208118Y258376D01*
X208141Y258436D01*
X208172Y258492D01*
X208190Y258567D01*
X208218Y258640D01*
X208223Y258704D01*
X208237Y258766D01*
X208233Y258844D01*
X208239Y258921D01*
X208226Y258984D01*
X208223Y259048D01*
X208198Y259121D01*
X208182Y259197D01*
X208152Y259254D01*
X208131Y259314D01*
X208089Y259371D01*
X208049Y259446D01*
X207990Y259507D01*
X207949Y259563D01*
X206856Y260657D01*
X205231Y264578D01*
X205231Y268822D01*
X206856Y272743D01*
X209857Y275744D01*
X213778Y277369D01*
X218022Y277369D01*
X221943Y275745D01*
X224258Y273429D01*
X224284Y273410D01*
X224305Y273386D01*
X224397Y273326D01*
X224484Y273260D01*
X224514Y273249D01*
X224541Y273231D01*
X224646Y273199D01*
X224748Y273161D01*
X224780Y273158D01*
X224811Y273149D01*
X224920Y273147D01*
X225029Y273139D01*
X225061Y273145D01*
X225093Y273145D01*
X225198Y273174D01*
X225305Y273196D01*
X225334Y273212D01*
X225365Y273220D01*
X225458Y273278D01*
X225554Y273329D01*
X225577Y273351D01*
X225605Y273368D01*
X225678Y273449D01*
X225756Y273526D01*
X225772Y273554D01*
X225794Y273578D01*
X225841Y273676D01*
X225895Y273771D01*
X225903Y273802D01*
X225917Y273831D01*
X225931Y273921D01*
X225960Y274045D01*
X225958Y274094D01*
X225964Y274136D01*
X225964Y282868D01*
X225960Y282900D01*
X225962Y282932D01*
X225940Y283039D01*
X225924Y283147D01*
X225911Y283177D01*
X225905Y283208D01*
X225853Y283305D01*
X225808Y283404D01*
X225787Y283429D01*
X225772Y283457D01*
X225696Y283535D01*
X225625Y283618D01*
X225598Y283636D01*
X225575Y283659D01*
X225481Y283713D01*
X225389Y283773D01*
X225358Y283782D01*
X225330Y283798D01*
X225224Y283823D01*
X225119Y283855D01*
X225087Y283856D01*
X225056Y283863D01*
X224946Y283858D01*
X224837Y283859D01*
X224806Y283850D01*
X224774Y283849D01*
X224671Y283813D01*
X224565Y283784D01*
X224538Y283767D01*
X224507Y283756D01*
X224434Y283703D01*
X224325Y283636D01*
X224293Y283600D01*
X224258Y283575D01*
X223678Y282994D01*
X222157Y281889D01*
X220483Y281036D01*
X218696Y280455D01*
X217899Y280329D01*
X217899Y291100D01*
X217890Y291163D01*
X217891Y291228D01*
X217870Y291302D01*
X217859Y291379D01*
X217833Y291438D01*
X217816Y291500D01*
X217775Y291566D01*
X217743Y291636D01*
X217701Y291685D01*
X217668Y291740D01*
X217610Y291791D01*
X217560Y291850D01*
X217506Y291886D01*
X217458Y291929D01*
X217389Y291962D01*
X217324Y292005D01*
X217262Y292024D01*
X217205Y292052D01*
X217135Y292062D01*
X217054Y292087D01*
X216969Y292088D01*
X216900Y292099D01*
X215899Y292099D01*
X215899Y293100D01*
X215890Y293164D01*
X215891Y293228D01*
X215870Y293303D01*
X215859Y293379D01*
X215833Y293438D01*
X215816Y293500D01*
X215775Y293566D01*
X215743Y293636D01*
X215701Y293685D01*
X215668Y293740D01*
X215610Y293792D01*
X215560Y293850D01*
X215506Y293886D01*
X215458Y293929D01*
X215389Y293962D01*
X215324Y294005D01*
X215262Y294024D01*
X215204Y294052D01*
X215135Y294062D01*
X215054Y294087D01*
X214969Y294088D01*
X214900Y294099D01*
X204129Y294099D01*
X204255Y294896D01*
X204836Y296683D01*
X205689Y298357D01*
X206794Y299878D01*
X207375Y300458D01*
X207394Y300484D01*
X207418Y300505D01*
X207478Y300597D01*
X207544Y300684D01*
X207555Y300714D01*
X207573Y300741D01*
X207605Y300846D01*
X207643Y300948D01*
X207646Y300980D01*
X207655Y301011D01*
X207657Y301120D01*
X207665Y301229D01*
X207659Y301261D01*
X207659Y301293D01*
X207630Y301398D01*
X207608Y301505D01*
X207592Y301534D01*
X207584Y301565D01*
X207526Y301658D01*
X207475Y301754D01*
X207453Y301777D01*
X207436Y301805D01*
X207355Y301878D01*
X207278Y301956D01*
X207250Y301972D01*
X207226Y301994D01*
X207128Y302041D01*
X207033Y302095D01*
X207001Y302103D01*
X206973Y302117D01*
X206883Y302131D01*
X206758Y302160D01*
X206710Y302158D01*
X206668Y302164D01*
X20136Y302164D01*
X20104Y302160D01*
X20072Y302162D01*
X19965Y302140D01*
X19857Y302124D01*
X19827Y302111D01*
X19796Y302105D01*
X19699Y302053D01*
X19600Y302008D01*
X19575Y301987D01*
X19547Y301972D01*
X19469Y301896D01*
X19386Y301825D01*
X19368Y301798D01*
X19345Y301775D01*
X19291Y301680D01*
X19231Y301589D01*
X19222Y301558D01*
X19206Y301530D01*
X19181Y301424D01*
X19149Y301319D01*
X19148Y301287D01*
X19141Y301256D01*
X19146Y301146D01*
X19145Y301037D01*
X19154Y301006D01*
X19155Y300974D01*
X19191Y300871D01*
X19220Y300765D01*
X19237Y300738D01*
X19248Y300707D01*
X19301Y300634D01*
X19368Y300525D01*
X19404Y300493D01*
X19429Y300458D01*
X21745Y298143D01*
X23369Y294222D01*
X23369Y289978D01*
X22910Y288870D01*
X22908Y288861D01*
X22903Y288853D01*
X22872Y288724D01*
X22840Y288597D01*
X22840Y288588D01*
X22838Y288578D01*
X22845Y288446D01*
X22849Y288315D01*
X22852Y288306D01*
X22852Y288297D01*
X22895Y288173D01*
X22936Y288047D01*
X22942Y288039D01*
X22945Y288030D01*
X22990Y287968D01*
X23095Y287814D01*
X23114Y287799D01*
X23126Y287781D01*
X24146Y286761D01*
X24223Y286704D01*
X24294Y286639D01*
X24335Y286619D01*
X24372Y286592D01*
X24462Y286558D01*
X24548Y286516D01*
X24590Y286510D01*
X24636Y286493D01*
X24763Y286483D01*
X24853Y286469D01*
X115879Y286469D01*
X116582Y285765D01*
X116659Y285708D01*
X116730Y285643D01*
X116771Y285623D01*
X116808Y285596D01*
X116898Y285562D01*
X116984Y285520D01*
X117026Y285514D01*
X117072Y285497D01*
X117199Y285487D01*
X117289Y285473D01*
X117559Y285473D01*
X120373Y282659D01*
X120373Y278681D01*
X117559Y275867D01*
X113581Y275867D01*
X111909Y277539D01*
X111833Y277596D01*
X111761Y277661D01*
X111720Y277681D01*
X111684Y277708D01*
X111594Y277742D01*
X111507Y277784D01*
X111465Y277790D01*
X111420Y277807D01*
X111292Y277817D01*
X111203Y277831D01*
X20766Y277831D01*
X20657Y277816D01*
X20585Y277810D01*
X20582Y277870D01*
X20556Y277944D01*
X20540Y278021D01*
X20510Y278076D01*
X20489Y278136D01*
X20447Y278194D01*
X20407Y278269D01*
X20352Y278323D01*
X20307Y278385D01*
X17019Y281674D01*
X17011Y281679D01*
X17005Y281687D01*
X16899Y281764D01*
X16793Y281843D01*
X16784Y281846D01*
X16777Y281852D01*
X16653Y281896D01*
X16529Y281942D01*
X16520Y281943D01*
X16511Y281946D01*
X16380Y281954D01*
X16248Y281964D01*
X16239Y281962D01*
X16229Y281963D01*
X16154Y281945D01*
X15972Y281907D01*
X15951Y281895D01*
X15930Y281890D01*
X14822Y281431D01*
X10578Y281431D01*
X6657Y283055D01*
X4342Y285371D01*
X4316Y285390D01*
X4295Y285414D01*
X4203Y285474D01*
X4116Y285540D01*
X4086Y285551D01*
X4059Y285569D01*
X3954Y285601D01*
X3852Y285639D01*
X3820Y285642D01*
X3789Y285651D01*
X3680Y285653D01*
X3571Y285661D01*
X3539Y285655D01*
X3507Y285655D01*
X3402Y285626D01*
X3295Y285604D01*
X3266Y285588D01*
X3235Y285580D01*
X3142Y285522D01*
X3046Y285471D01*
X3023Y285449D01*
X2995Y285432D01*
X2922Y285351D01*
X2844Y285274D01*
X2828Y285246D01*
X2806Y285222D01*
X2759Y285124D01*
X2705Y285029D01*
X2697Y284998D01*
X2683Y284969D01*
X2669Y284879D01*
X2640Y284755D01*
X2642Y284706D01*
X2636Y284664D01*
X2636Y275932D01*
X2640Y275900D01*
X2638Y275868D01*
X2660Y275761D01*
X2676Y275653D01*
X2689Y275623D01*
X2695Y275592D01*
X2747Y275495D01*
X2792Y275396D01*
X2813Y275371D01*
X2828Y275343D01*
X2904Y275265D01*
X2975Y275182D01*
X3002Y275164D01*
X3025Y275141D01*
X3119Y275087D01*
X3211Y275027D01*
X3242Y275018D01*
X3270Y275002D01*
X3376Y274977D01*
X3481Y274945D01*
X3513Y274944D01*
X3544Y274937D01*
X3654Y274942D01*
X3763Y274941D01*
X3794Y274950D01*
X3826Y274951D01*
X3929Y274987D01*
X4035Y275016D01*
X4062Y275033D01*
X4093Y275044D01*
X4166Y275097D01*
X4275Y275164D01*
X4307Y275200D01*
X4342Y275225D01*
X4922Y275806D01*
X6443Y276911D01*
X8117Y277764D01*
X9904Y278345D01*
X10701Y278471D01*
X10701Y267700D01*
X10710Y267637D01*
X10709Y267572D01*
X10730Y267498D01*
X10741Y267421D01*
X10767Y267362D01*
X10784Y267300D01*
X10825Y267234D01*
X10857Y267164D01*
X10899Y267115D01*
X10932Y267060D01*
X10990Y267009D01*
X11040Y266950D01*
X11094Y266914D01*
X11142Y266871D01*
X11211Y266838D01*
X11276Y266795D01*
X11338Y266776D01*
X11395Y266748D01*
X11465Y266738D01*
X11546Y266713D01*
X11631Y266712D01*
X11700Y266701D01*
X12701Y266701D01*
X12701Y266699D01*
X11700Y266699D01*
X11636Y266690D01*
X11572Y266691D01*
X11497Y266670D01*
X11421Y266659D01*
X11362Y266633D01*
X11300Y266616D01*
X11234Y266575D01*
X11164Y266543D01*
X11115Y266501D01*
X11060Y266468D01*
X11008Y266410D01*
X10950Y266360D01*
X10914Y266306D01*
X10871Y266258D01*
X10838Y266189D01*
X10795Y266124D01*
X10776Y266062D01*
X10748Y266004D01*
X10737Y265935D01*
X10713Y265854D01*
X10712Y265769D01*
X10701Y265700D01*
X10701Y254929D01*
X9904Y255055D01*
X8117Y255636D01*
X6443Y256489D01*
X4922Y257594D01*
X4342Y258175D01*
X4316Y258194D01*
X4295Y258218D01*
X4232Y258260D01*
X4217Y258273D01*
X4198Y258282D01*
X4116Y258344D01*
X4086Y258355D01*
X4059Y258373D01*
X3954Y258405D01*
X3852Y258443D01*
X3820Y258446D01*
X3789Y258455D01*
X3680Y258457D01*
X3571Y258465D01*
X3539Y258459D01*
X3507Y258459D01*
X3402Y258430D01*
X3295Y258408D01*
X3266Y258392D01*
X3235Y258384D01*
X3142Y258326D01*
X3046Y258275D01*
X3023Y258253D01*
X2995Y258236D01*
X2922Y258155D01*
X2844Y258078D01*
X2828Y258050D01*
X2806Y258026D01*
X2759Y257928D01*
X2705Y257833D01*
X2697Y257801D01*
X2683Y257773D01*
X2669Y257683D01*
X2655Y257622D01*
X2648Y257599D01*
X2648Y257591D01*
X2640Y257558D01*
X2642Y257510D01*
X2636Y257468D01*
X2636Y248736D01*
X2640Y248704D01*
X2638Y248672D01*
X2660Y248565D01*
X2676Y248457D01*
X2689Y248427D01*
X2695Y248396D01*
X2747Y248299D01*
X2792Y248200D01*
X2813Y248175D01*
X2828Y248147D01*
X2904Y248069D01*
X2975Y247986D01*
X3002Y247968D01*
X3025Y247945D01*
X3120Y247891D01*
X3211Y247831D01*
X3242Y247822D01*
X3270Y247806D01*
X3376Y247781D01*
X3481Y247749D01*
X3513Y247748D01*
X3544Y247741D01*
X3654Y247746D01*
X3763Y247745D01*
X3794Y247754D01*
X3826Y247755D01*
X3929Y247791D01*
X4035Y247820D01*
X4062Y247837D01*
X4093Y247848D01*
X4166Y247901D01*
X4275Y247968D01*
X4307Y248004D01*
X4342Y248029D01*
X6657Y250345D01*
X10578Y251969D01*
X14822Y251969D01*
X18743Y250345D01*
X20896Y248191D01*
X20973Y248134D01*
X21045Y248069D01*
X21086Y248049D01*
X21122Y248022D01*
X21212Y247988D01*
X21298Y247946D01*
X21341Y247940D01*
X21386Y247923D01*
X21514Y247913D01*
X21603Y247899D01*
X33682Y247899D01*
X33777Y247912D01*
X33873Y247917D01*
X33916Y247932D01*
X33961Y247939D01*
X34048Y247978D01*
X34139Y248010D01*
X34174Y248035D01*
X34218Y248055D01*
X34315Y248138D01*
X34388Y248191D01*
X34821Y248625D01*
X34847Y248659D01*
X34879Y248688D01*
X34932Y248771D01*
X34991Y248850D01*
X35006Y248890D01*
X35029Y248927D01*
X35056Y249022D01*
X35090Y249114D01*
X35094Y249157D01*
X35105Y249198D01*
X35104Y249297D01*
X35112Y249395D01*
X35103Y249437D01*
X35103Y249480D01*
X35075Y249575D01*
X35054Y249671D01*
X35034Y249709D01*
X35022Y249750D01*
X34968Y249833D01*
X34922Y249920D01*
X34892Y249951D01*
X34869Y249987D01*
X34794Y250052D01*
X34725Y250122D01*
X34688Y250144D01*
X34655Y250172D01*
X34577Y250206D01*
X34480Y250261D01*
X34421Y250275D01*
X34374Y250296D01*
X34149Y250356D01*
X33570Y250691D01*
X33097Y251164D01*
X32762Y251743D01*
X32589Y252389D01*
X32589Y254503D01*
X43242Y254503D01*
X43305Y254512D01*
X43370Y254511D01*
X43444Y254532D01*
X43521Y254543D01*
X43579Y254569D01*
X43641Y254586D01*
X43707Y254627D01*
X43778Y254659D01*
X43827Y254700D01*
X43881Y254734D01*
X43933Y254792D01*
X43992Y254842D01*
X44018Y254882D01*
X44031Y254862D01*
X44088Y254810D01*
X44138Y254752D01*
X44192Y254716D01*
X44240Y254673D01*
X44309Y254640D01*
X44374Y254597D01*
X44436Y254578D01*
X44494Y254550D01*
X44563Y254539D01*
X44644Y254515D01*
X44729Y254514D01*
X44798Y254503D01*
X55451Y254503D01*
X55451Y252389D01*
X55278Y251743D01*
X54943Y251164D01*
X54470Y250691D01*
X53891Y250356D01*
X53666Y250296D01*
X53627Y250279D01*
X53585Y250271D01*
X53498Y250224D01*
X53407Y250186D01*
X53374Y250158D01*
X53336Y250138D01*
X53265Y250069D01*
X53189Y250007D01*
X53165Y249971D01*
X53134Y249941D01*
X53085Y249856D01*
X53029Y249774D01*
X53016Y249733D01*
X52995Y249696D01*
X52972Y249600D01*
X52941Y249506D01*
X52940Y249464D01*
X52930Y249422D01*
X52935Y249323D01*
X52932Y249225D01*
X52942Y249183D01*
X52944Y249140D01*
X52977Y249047D01*
X53001Y248951D01*
X53023Y248914D01*
X53037Y248874D01*
X53087Y248804D01*
X53144Y248708D01*
X53188Y248667D01*
X53219Y248625D01*
X53652Y248191D01*
X53729Y248134D01*
X53800Y248069D01*
X53841Y248049D01*
X53877Y248022D01*
X53967Y247988D01*
X54054Y247946D01*
X54096Y247940D01*
X54141Y247923D01*
X54269Y247913D01*
X54358Y247899D01*
X93489Y247899D01*
X93722Y247665D01*
X93799Y247608D01*
X93870Y247543D01*
X93911Y247523D01*
X93948Y247496D01*
X94038Y247462D01*
X94124Y247420D01*
X94166Y247414D01*
X94212Y247397D01*
X94339Y247387D01*
X94429Y247373D01*
X94699Y247373D01*
X97513Y244559D01*
X97513Y240581D01*
X94699Y237767D01*
X90721Y237767D01*
X89519Y238969D01*
X89443Y239026D01*
X89371Y239091D01*
X89330Y239111D01*
X89294Y239138D01*
X89204Y239172D01*
X89117Y239214D01*
X89075Y239220D01*
X89030Y239237D01*
X88902Y239247D01*
X88813Y239261D01*
X54358Y239261D01*
X54263Y239248D01*
X54167Y239243D01*
X54124Y239228D01*
X54079Y239221D01*
X53992Y239182D01*
X53901Y239150D01*
X53866Y239125D01*
X53822Y239105D01*
X53725Y239022D01*
X53652Y238969D01*
X53436Y238753D01*
X34604Y238753D01*
X34388Y238969D01*
X34311Y239026D01*
X34240Y239091D01*
X34199Y239111D01*
X34163Y239138D01*
X34073Y239172D01*
X33986Y239214D01*
X33944Y239220D01*
X33899Y239237D01*
X33771Y239247D01*
X33682Y239261D01*
X24071Y239261D01*
X24062Y239260D01*
X24052Y239261D01*
X23922Y239240D01*
X23792Y239221D01*
X23783Y239218D01*
X23774Y239216D01*
X23654Y239159D01*
X23535Y239105D01*
X23528Y239099D01*
X23519Y239095D01*
X23420Y239007D01*
X23321Y238922D01*
X23315Y238914D01*
X23308Y238908D01*
X23268Y238842D01*
X23166Y238686D01*
X23159Y238663D01*
X23148Y238644D01*
X21744Y235257D01*
X18743Y232256D01*
X14822Y230631D01*
X10578Y230631D01*
X6657Y232255D01*
X4342Y234571D01*
X4316Y234590D01*
X4295Y234614D01*
X4203Y234674D01*
X4116Y234740D01*
X4086Y234751D01*
X4059Y234769D01*
X3954Y234801D01*
X3852Y234839D01*
X3820Y234842D01*
X3789Y234851D01*
X3680Y234853D01*
X3571Y234861D01*
X3539Y234855D01*
X3507Y234855D01*
X3402Y234826D01*
X3295Y234804D01*
X3266Y234788D01*
X3235Y234780D01*
X3142Y234722D01*
X3046Y234671D01*
X3023Y234649D01*
X2995Y234632D01*
X2922Y234551D01*
X2844Y234474D01*
X2828Y234446D01*
X2806Y234422D01*
X2759Y234324D01*
X2705Y234229D01*
X2697Y234198D01*
X2683Y234169D01*
X2669Y234079D01*
X2640Y233955D01*
X2642Y233906D01*
X2636Y233864D01*
X2636Y223336D01*
X2640Y223304D01*
X2638Y223272D01*
X2660Y223165D01*
X2676Y223057D01*
X2689Y223027D01*
X2695Y222996D01*
X2747Y222899D01*
X2792Y222800D01*
X2813Y222775D01*
X2828Y222747D01*
X2904Y222669D01*
X2975Y222586D01*
X3002Y222568D01*
X3025Y222545D01*
X3120Y222491D01*
X3211Y222431D01*
X3242Y222422D01*
X3270Y222406D01*
X3376Y222381D01*
X3481Y222349D01*
X3513Y222348D01*
X3544Y222341D01*
X3654Y222346D01*
X3763Y222345D01*
X3794Y222354D01*
X3826Y222355D01*
X3929Y222391D01*
X4035Y222420D01*
X4062Y222437D01*
X4093Y222448D01*
X4166Y222501D01*
X4275Y222568D01*
X4307Y222604D01*
X4342Y222629D01*
X6657Y224945D01*
X10578Y226569D01*
X14822Y226569D01*
X18743Y224945D01*
X20645Y223042D01*
X20671Y223023D01*
X20692Y222999D01*
X20784Y222939D01*
X20871Y222873D01*
X20901Y222862D01*
X20928Y222844D01*
X21033Y222812D01*
X21135Y222774D01*
X21167Y222771D01*
X21198Y222762D01*
X21307Y222760D01*
X21416Y222752D01*
X21448Y222758D01*
X21480Y222758D01*
X21585Y222787D01*
X21692Y222809D01*
X21721Y222825D01*
X21752Y222833D01*
X21845Y222891D01*
X21941Y222942D01*
X21964Y222964D01*
X21992Y222981D01*
X22065Y223062D01*
X22143Y223139D01*
X22159Y223167D01*
X22181Y223191D01*
X22228Y223289D01*
X22282Y223384D01*
X22290Y223415D01*
X22304Y223444D01*
X22318Y223534D01*
X22347Y223658D01*
X22345Y223707D01*
X22351Y223749D01*
X22351Y224953D01*
X30549Y233151D01*
X32860Y233151D01*
X32924Y233160D01*
X32988Y233159D01*
X33063Y233180D01*
X33139Y233191D01*
X33198Y233217D01*
X33260Y233234D01*
X33326Y233275D01*
X33396Y233307D01*
X33445Y233349D01*
X33500Y233382D01*
X33552Y233440D01*
X33610Y233490D01*
X33646Y233544D01*
X33689Y233592D01*
X33722Y233661D01*
X33765Y233726D01*
X33784Y233788D01*
X33812Y233845D01*
X33823Y233915D01*
X33847Y233996D01*
X33848Y234081D01*
X33859Y234150D01*
X33859Y234962D01*
X34604Y235707D01*
X53436Y235707D01*
X54181Y234962D01*
X54181Y226798D01*
X53436Y226053D01*
X34604Y226053D01*
X33859Y226798D01*
X33859Y227610D01*
X33850Y227674D01*
X33851Y227738D01*
X33830Y227813D01*
X33819Y227889D01*
X33793Y227948D01*
X33776Y228010D01*
X33735Y228076D01*
X33703Y228146D01*
X33661Y228195D01*
X33628Y228250D01*
X33570Y228302D01*
X33520Y228360D01*
X33466Y228396D01*
X33418Y228439D01*
X33349Y228472D01*
X33284Y228515D01*
X33222Y228534D01*
X33213Y228538D01*
X33209Y228540D01*
X33208Y228540D01*
X33165Y228562D01*
X33095Y228573D01*
X33014Y228597D01*
X32966Y228598D01*
X32935Y228605D01*
X32898Y228603D01*
X32860Y228609D01*
X32844Y228609D01*
X32782Y228600D01*
X32732Y228601D01*
X32705Y228593D01*
X32653Y228591D01*
X32610Y228576D01*
X32565Y228569D01*
X32482Y228532D01*
X32460Y228526D01*
X32453Y228521D01*
X32387Y228498D01*
X32352Y228473D01*
X32308Y228453D01*
X32211Y228370D01*
X32138Y228317D01*
X27185Y223364D01*
X27128Y223287D01*
X27063Y223216D01*
X27043Y223175D01*
X27016Y223139D01*
X26982Y223048D01*
X26940Y222962D01*
X26934Y222920D01*
X26917Y222875D01*
X26907Y222747D01*
X26893Y222658D01*
X26893Y219000D01*
X26897Y218968D01*
X26895Y218936D01*
X26917Y218829D01*
X26933Y218721D01*
X26946Y218692D01*
X26952Y218660D01*
X27004Y218564D01*
X27049Y218464D01*
X27070Y218440D01*
X27085Y218411D01*
X27161Y218333D01*
X27232Y218250D01*
X27259Y218232D01*
X27282Y218209D01*
X27377Y218155D01*
X27468Y218096D01*
X27499Y218086D01*
X27527Y218070D01*
X27633Y218045D01*
X27738Y218013D01*
X27770Y218013D01*
X27801Y218005D01*
X27911Y218011D01*
X28020Y218009D01*
X28051Y218018D01*
X28083Y218020D01*
X28186Y218055D01*
X28292Y218085D01*
X28319Y218102D01*
X28350Y218112D01*
X28423Y218165D01*
X28532Y218233D01*
X28564Y218269D01*
X28599Y218294D01*
X30755Y220451D01*
X32860Y220451D01*
X32924Y220460D01*
X32988Y220459D01*
X33063Y220480D01*
X33139Y220491D01*
X33198Y220517D01*
X33260Y220534D01*
X33326Y220575D01*
X33396Y220607D01*
X33445Y220649D01*
X33500Y220682D01*
X33552Y220740D01*
X33610Y220790D01*
X33646Y220844D01*
X33689Y220892D01*
X33722Y220961D01*
X33765Y221026D01*
X33784Y221088D01*
X33812Y221145D01*
X33823Y221215D01*
X33847Y221296D01*
X33848Y221381D01*
X33859Y221450D01*
X33859Y222262D01*
X34604Y223007D01*
X53436Y223007D01*
X54181Y222262D01*
X54181Y214098D01*
X53436Y213353D01*
X34604Y213353D01*
X33859Y214098D01*
X33859Y214720D01*
X33855Y214752D01*
X33857Y214784D01*
X33835Y214891D01*
X33819Y214999D01*
X33806Y215028D01*
X33800Y215060D01*
X33748Y215156D01*
X33703Y215256D01*
X33682Y215280D01*
X33667Y215309D01*
X33591Y215387D01*
X33520Y215470D01*
X33493Y215488D01*
X33470Y215511D01*
X33375Y215565D01*
X33284Y215624D01*
X33253Y215634D01*
X33225Y215650D01*
X33119Y215675D01*
X33014Y215707D01*
X32982Y215707D01*
X32951Y215715D01*
X32841Y215709D01*
X32732Y215711D01*
X32701Y215702D01*
X32669Y215700D01*
X32566Y215665D01*
X32460Y215635D01*
X32433Y215618D01*
X32402Y215608D01*
X32329Y215555D01*
X32220Y215487D01*
X32188Y215451D01*
X32153Y215426D01*
X30709Y213982D01*
X30652Y213905D01*
X30587Y213834D01*
X30567Y213793D01*
X30540Y213757D01*
X30506Y213667D01*
X30464Y213580D01*
X30458Y213538D01*
X30441Y213493D01*
X30431Y213365D01*
X30417Y213276D01*
X30417Y208750D01*
X30426Y208686D01*
X30425Y208622D01*
X30446Y208547D01*
X30457Y208471D01*
X30483Y208412D01*
X30500Y208350D01*
X30541Y208284D01*
X30573Y208214D01*
X30615Y208165D01*
X30648Y208110D01*
X30706Y208058D01*
X30756Y208000D01*
X30810Y207964D01*
X30858Y207921D01*
X30927Y207888D01*
X30992Y207845D01*
X31054Y207826D01*
X31111Y207798D01*
X31181Y207787D01*
X31262Y207763D01*
X31347Y207762D01*
X31416Y207751D01*
X32860Y207751D01*
X32924Y207760D01*
X32988Y207759D01*
X33063Y207780D01*
X33139Y207791D01*
X33198Y207817D01*
X33260Y207834D01*
X33326Y207875D01*
X33396Y207907D01*
X33445Y207949D01*
X33500Y207982D01*
X33552Y208040D01*
X33610Y208090D01*
X33646Y208144D01*
X33689Y208192D01*
X33722Y208261D01*
X33765Y208326D01*
X33784Y208388D01*
X33812Y208445D01*
X33823Y208515D01*
X33847Y208596D01*
X33848Y208681D01*
X33859Y208750D01*
X33859Y209562D01*
X34604Y210307D01*
X53436Y210307D01*
X54181Y209562D01*
X54181Y201398D01*
X53436Y200653D01*
X34604Y200653D01*
X33859Y201398D01*
X33859Y202020D01*
X33855Y202052D01*
X33857Y202084D01*
X33835Y202191D01*
X33819Y202299D01*
X33806Y202328D01*
X33800Y202360D01*
X33748Y202456D01*
X33703Y202556D01*
X33682Y202580D01*
X33667Y202609D01*
X33591Y202687D01*
X33520Y202770D01*
X33493Y202788D01*
X33470Y202811D01*
X33375Y202865D01*
X33284Y202924D01*
X33253Y202934D01*
X33225Y202950D01*
X33119Y202975D01*
X33014Y203007D01*
X32982Y203007D01*
X32951Y203015D01*
X32841Y203009D01*
X32732Y203011D01*
X32701Y203002D01*
X32669Y203000D01*
X32566Y202965D01*
X32460Y202935D01*
X32433Y202918D01*
X32402Y202908D01*
X32329Y202855D01*
X32220Y202787D01*
X32188Y202751D01*
X32153Y202726D01*
X30709Y201282D01*
X30652Y201205D01*
X30587Y201134D01*
X30567Y201093D01*
X30540Y201057D01*
X30506Y200967D01*
X30464Y200880D01*
X30458Y200838D01*
X30441Y200793D01*
X30431Y200665D01*
X30417Y200576D01*
X30417Y194870D01*
X30421Y194838D01*
X30419Y194806D01*
X30441Y194699D01*
X30457Y194591D01*
X30470Y194562D01*
X30476Y194530D01*
X30528Y194434D01*
X30573Y194334D01*
X30594Y194310D01*
X30609Y194281D01*
X30685Y194203D01*
X30756Y194120D01*
X30783Y194102D01*
X30806Y194079D01*
X30901Y194025D01*
X30992Y193966D01*
X31023Y193956D01*
X31051Y193940D01*
X31157Y193915D01*
X31262Y193883D01*
X31294Y193883D01*
X31325Y193875D01*
X31435Y193881D01*
X31544Y193879D01*
X31575Y193888D01*
X31607Y193890D01*
X31710Y193925D01*
X31816Y193955D01*
X31843Y193972D01*
X31874Y193982D01*
X31947Y194035D01*
X32056Y194103D01*
X32088Y194139D01*
X32123Y194164D01*
X33029Y195070D01*
X33063Y195080D01*
X33139Y195091D01*
X33198Y195117D01*
X33260Y195134D01*
X33326Y195175D01*
X33396Y195207D01*
X33445Y195249D01*
X33500Y195282D01*
X33552Y195340D01*
X33610Y195390D01*
X33646Y195444D01*
X33689Y195492D01*
X33722Y195561D01*
X33765Y195626D01*
X33784Y195688D01*
X33812Y195745D01*
X33823Y195815D01*
X33847Y195896D01*
X33848Y195981D01*
X33859Y196050D01*
X33859Y196862D01*
X34604Y197607D01*
X53436Y197607D01*
X54181Y196862D01*
X54181Y188698D01*
X53436Y187953D01*
X34940Y187953D01*
X34876Y187944D01*
X34812Y187945D01*
X34737Y187924D01*
X34661Y187913D01*
X34602Y187887D01*
X34540Y187870D01*
X34474Y187829D01*
X34404Y187797D01*
X34355Y187755D01*
X34300Y187722D01*
X34248Y187664D01*
X34190Y187614D01*
X34154Y187560D01*
X34111Y187512D01*
X34078Y187443D01*
X34035Y187378D01*
X34016Y187316D01*
X33988Y187259D01*
X33977Y187189D01*
X33953Y187108D01*
X33952Y187023D01*
X33941Y186954D01*
X33941Y185906D01*
X33950Y185842D01*
X33949Y185778D01*
X33970Y185703D01*
X33981Y185627D01*
X34007Y185568D01*
X34024Y185506D01*
X34065Y185440D01*
X34097Y185370D01*
X34139Y185321D01*
X34172Y185266D01*
X34230Y185214D01*
X34280Y185156D01*
X34334Y185120D01*
X34382Y185077D01*
X34451Y185044D01*
X34516Y185001D01*
X34578Y184982D01*
X34635Y184954D01*
X34705Y184943D01*
X34786Y184919D01*
X34871Y184918D01*
X34940Y184907D01*
X53436Y184907D01*
X54181Y184162D01*
X54181Y175998D01*
X53436Y175253D01*
X34940Y175253D01*
X34876Y175244D01*
X34812Y175245D01*
X34737Y175224D01*
X34661Y175213D01*
X34602Y175187D01*
X34540Y175170D01*
X34474Y175129D01*
X34404Y175097D01*
X34355Y175055D01*
X34300Y175022D01*
X34248Y174964D01*
X34190Y174914D01*
X34154Y174860D01*
X34111Y174812D01*
X34078Y174743D01*
X34035Y174678D01*
X34016Y174616D01*
X33988Y174559D01*
X33977Y174489D01*
X33953Y174408D01*
X33952Y174323D01*
X33941Y174254D01*
X33941Y173206D01*
X33950Y173142D01*
X33949Y173078D01*
X33970Y173003D01*
X33981Y172927D01*
X34007Y172868D01*
X34024Y172806D01*
X34065Y172740D01*
X34097Y172670D01*
X34139Y172621D01*
X34172Y172566D01*
X34230Y172514D01*
X34280Y172456D01*
X34334Y172420D01*
X34382Y172377D01*
X34451Y172344D01*
X34516Y172301D01*
X34578Y172282D01*
X34635Y172254D01*
X34705Y172243D01*
X34786Y172219D01*
X34871Y172218D01*
X34940Y172207D01*
X53436Y172207D01*
X54181Y171462D01*
X54181Y163298D01*
X53436Y162553D01*
X34940Y162553D01*
X34876Y162544D01*
X34812Y162545D01*
X34737Y162524D01*
X34661Y162513D01*
X34602Y162487D01*
X34540Y162470D01*
X34474Y162429D01*
X34404Y162397D01*
X34355Y162355D01*
X34300Y162322D01*
X34248Y162264D01*
X34190Y162214D01*
X34154Y162160D01*
X34111Y162112D01*
X34078Y162043D01*
X34035Y161978D01*
X34016Y161916D01*
X33988Y161859D01*
X33977Y161789D01*
X33953Y161708D01*
X33952Y161623D01*
X33941Y161554D01*
X33941Y155382D01*
X31487Y152929D01*
X31430Y152852D01*
X31365Y152780D01*
X31345Y152739D01*
X31318Y152703D01*
X31284Y152613D01*
X31242Y152527D01*
X31236Y152485D01*
X31219Y152439D01*
X31209Y152312D01*
X31195Y152222D01*
X31195Y128451D01*
X31199Y128419D01*
X31197Y128387D01*
X31219Y128280D01*
X31235Y128172D01*
X31248Y128142D01*
X31254Y128111D01*
X31306Y128014D01*
X31351Y127915D01*
X31372Y127890D01*
X31387Y127862D01*
X31463Y127783D01*
X31534Y127700D01*
X31561Y127683D01*
X31584Y127660D01*
X31679Y127606D01*
X31770Y127546D01*
X31801Y127537D01*
X31829Y127521D01*
X31936Y127495D01*
X32040Y127464D01*
X32072Y127463D01*
X32103Y127456D01*
X32213Y127461D01*
X32322Y127460D01*
X32353Y127468D01*
X32385Y127470D01*
X32488Y127506D01*
X32594Y127535D01*
X32621Y127552D01*
X32652Y127563D01*
X32725Y127616D01*
X32834Y127683D01*
X32866Y127719D01*
X32901Y127744D01*
X35344Y130188D01*
X36967Y131811D01*
X77386Y131811D01*
X77481Y131824D01*
X77577Y131829D01*
X77620Y131844D01*
X77665Y131851D01*
X77752Y131890D01*
X77843Y131922D01*
X77878Y131947D01*
X77922Y131967D01*
X78019Y132050D01*
X78092Y132103D01*
X79066Y133078D01*
X79105Y133129D01*
X79151Y133174D01*
X79189Y133241D01*
X79236Y133303D01*
X79258Y133363D01*
X79290Y133419D01*
X79308Y133495D01*
X79335Y133567D01*
X79340Y133631D01*
X79355Y133694D01*
X79351Y133771D01*
X79357Y133848D01*
X79344Y133911D01*
X79340Y133975D01*
X79315Y134048D01*
X79299Y134124D01*
X79269Y134181D01*
X79248Y134242D01*
X79207Y134298D01*
X79167Y134373D01*
X79108Y134434D01*
X79066Y134491D01*
X78193Y135364D01*
X78193Y154196D01*
X78938Y154941D01*
X87102Y154941D01*
X87847Y154196D01*
X87847Y135364D01*
X87270Y134787D01*
X87250Y134761D01*
X87226Y134740D01*
X87166Y134648D01*
X87100Y134561D01*
X87089Y134531D01*
X87071Y134504D01*
X87039Y134399D01*
X87001Y134297D01*
X86998Y134265D01*
X86989Y134234D01*
X86987Y134125D01*
X86979Y134016D01*
X86986Y133984D01*
X86985Y133952D01*
X87014Y133847D01*
X87037Y133740D01*
X87052Y133711D01*
X87060Y133680D01*
X87118Y133587D01*
X87169Y133491D01*
X87192Y133468D01*
X87209Y133440D01*
X87289Y133367D01*
X87366Y133289D01*
X87394Y133273D01*
X87418Y133251D01*
X87516Y133204D01*
X87611Y133150D01*
X87643Y133142D01*
X87672Y133128D01*
X87761Y133114D01*
X87886Y133085D01*
X87934Y133087D01*
X87976Y133081D01*
X90764Y133081D01*
X90796Y133085D01*
X90828Y133083D01*
X90935Y133105D01*
X91043Y133121D01*
X91072Y133134D01*
X91104Y133140D01*
X91200Y133192D01*
X91300Y133237D01*
X91324Y133258D01*
X91353Y133273D01*
X91431Y133349D01*
X91514Y133420D01*
X91532Y133447D01*
X91555Y133470D01*
X91609Y133565D01*
X91669Y133656D01*
X91678Y133687D01*
X91694Y133715D01*
X91719Y133821D01*
X91751Y133926D01*
X91752Y133958D01*
X91759Y133989D01*
X91753Y134099D01*
X91755Y134208D01*
X91746Y134239D01*
X91745Y134271D01*
X91709Y134374D01*
X91680Y134480D01*
X91663Y134507D01*
X91652Y134538D01*
X91599Y134611D01*
X91531Y134720D01*
X91495Y134752D01*
X91470Y134787D01*
X90893Y135364D01*
X90893Y154196D01*
X91638Y154941D01*
X99802Y154941D01*
X100547Y154196D01*
X100547Y135364D01*
X99802Y134619D01*
X98990Y134619D01*
X98926Y134610D01*
X98862Y134611D01*
X98787Y134590D01*
X98711Y134579D01*
X98652Y134553D01*
X98590Y134536D01*
X98524Y134495D01*
X98454Y134463D01*
X98405Y134421D01*
X98350Y134388D01*
X98298Y134330D01*
X98240Y134280D01*
X98204Y134226D01*
X98161Y134178D01*
X98128Y134109D01*
X98085Y134044D01*
X98066Y133982D01*
X98038Y133925D01*
X98027Y133855D01*
X98003Y133774D01*
X98002Y133689D01*
X97991Y133620D01*
X97991Y131609D01*
X97644Y131263D01*
X97624Y131237D01*
X97600Y131216D01*
X97540Y131124D01*
X97475Y131037D01*
X97463Y131007D01*
X97446Y130980D01*
X97414Y130875D01*
X97375Y130773D01*
X97373Y130741D01*
X97363Y130710D01*
X97362Y130601D01*
X97353Y130492D01*
X97360Y130460D01*
X97359Y130428D01*
X97389Y130323D01*
X97411Y130216D01*
X97426Y130187D01*
X97435Y130156D01*
X97492Y130063D01*
X97543Y129967D01*
X97566Y129944D01*
X97583Y129916D01*
X97664Y129843D01*
X97740Y129765D01*
X97768Y129749D01*
X97792Y129727D01*
X97890Y129680D01*
X97985Y129626D01*
X98017Y129618D01*
X98046Y129604D01*
X98135Y129590D01*
X98260Y129561D01*
X98308Y129563D01*
X98350Y129557D01*
X100532Y129557D01*
X100626Y129570D01*
X100723Y129575D01*
X100766Y129590D01*
X100811Y129597D01*
X100898Y129636D01*
X100989Y129668D01*
X101023Y129693D01*
X101068Y129713D01*
X101165Y129796D01*
X101238Y129849D01*
X104466Y133078D01*
X104505Y133129D01*
X104551Y133174D01*
X104589Y133241D01*
X104636Y133303D01*
X104658Y133363D01*
X104690Y133419D01*
X104708Y133495D01*
X104735Y133567D01*
X104740Y133631D01*
X104755Y133694D01*
X104751Y133771D01*
X104757Y133848D01*
X104744Y133911D01*
X104740Y133975D01*
X104715Y134048D01*
X104699Y134124D01*
X104669Y134181D01*
X104648Y134242D01*
X104607Y134298D01*
X104567Y134373D01*
X104508Y134434D01*
X104466Y134491D01*
X103593Y135364D01*
X103593Y154196D01*
X104338Y154941D01*
X112502Y154941D01*
X113247Y154196D01*
X113247Y135364D01*
X112502Y134619D01*
X111690Y134619D01*
X111626Y134610D01*
X111562Y134611D01*
X111487Y134590D01*
X111411Y134579D01*
X111352Y134553D01*
X111290Y134536D01*
X111224Y134495D01*
X111154Y134463D01*
X111105Y134421D01*
X111050Y134388D01*
X110998Y134330D01*
X110940Y134280D01*
X110904Y134226D01*
X110861Y134178D01*
X110828Y134109D01*
X110785Y134044D01*
X110766Y133982D01*
X110738Y133925D01*
X110727Y133855D01*
X110703Y133774D01*
X110702Y133689D01*
X110691Y133620D01*
X110691Y132879D01*
X102827Y125015D01*
X87808Y125015D01*
X87713Y125002D01*
X87617Y124997D01*
X87574Y124982D01*
X87529Y124975D01*
X87441Y124936D01*
X87350Y124904D01*
X87316Y124879D01*
X87272Y124859D01*
X87174Y124776D01*
X87101Y124723D01*
X82028Y119649D01*
X41609Y119649D01*
X41515Y119636D01*
X41418Y119631D01*
X41375Y119616D01*
X41330Y119609D01*
X41243Y119570D01*
X41152Y119538D01*
X41117Y119513D01*
X41073Y119493D01*
X40976Y119410D01*
X40903Y119357D01*
X37757Y116211D01*
X37700Y116134D01*
X37635Y116063D01*
X37615Y116022D01*
X37588Y115986D01*
X37554Y115895D01*
X37512Y115809D01*
X37506Y115767D01*
X37489Y115722D01*
X37479Y115594D01*
X37465Y115505D01*
X37465Y104042D01*
X35011Y101589D01*
X34954Y101512D01*
X34889Y101440D01*
X34869Y101399D01*
X34842Y101363D01*
X34808Y101273D01*
X34766Y101187D01*
X34760Y101144D01*
X34743Y101099D01*
X34733Y100971D01*
X34719Y100882D01*
X34719Y72340D01*
X30709Y68331D01*
X30652Y68254D01*
X30587Y68182D01*
X30567Y68141D01*
X30540Y68105D01*
X30506Y68015D01*
X30464Y67929D01*
X30458Y67887D01*
X30441Y67841D01*
X30434Y67759D01*
X30429Y67741D01*
X30428Y67697D01*
X30417Y67624D01*
X30417Y47622D01*
X27185Y44390D01*
X27128Y44314D01*
X27063Y44242D01*
X27043Y44201D01*
X27016Y44165D01*
X26982Y44075D01*
X26940Y43988D01*
X26934Y43946D01*
X26917Y43901D01*
X26907Y43773D01*
X26893Y43684D01*
X26893Y32221D01*
X18155Y23484D01*
X18084Y23389D01*
X18009Y23297D01*
X18000Y23276D01*
X17986Y23258D01*
X17944Y23147D01*
X17897Y23038D01*
X17894Y23016D01*
X17886Y22994D01*
X17877Y22876D01*
X17863Y22758D01*
X17866Y22736D01*
X17865Y22713D01*
X17889Y22597D01*
X17908Y22480D01*
X17918Y22459D01*
X17922Y22437D01*
X17978Y22332D01*
X18029Y22225D01*
X18044Y22208D01*
X18055Y22188D01*
X18137Y22103D01*
X18216Y22014D01*
X18235Y22003D01*
X18251Y21986D01*
X18414Y21894D01*
X18479Y21854D01*
X18743Y21744D01*
X21744Y18743D01*
X23369Y14822D01*
X23369Y10578D01*
X21745Y6657D01*
X19429Y4342D01*
X19410Y4316D01*
X19386Y4295D01*
X19326Y4203D01*
X19260Y4116D01*
X19249Y4086D01*
X19231Y4059D01*
X19199Y3954D01*
X19161Y3852D01*
X19158Y3820D01*
X19149Y3789D01*
X19147Y3680D01*
X19139Y3571D01*
X19145Y3539D01*
X19145Y3507D01*
X19174Y3402D01*
X19196Y3295D01*
X19212Y3266D01*
X19220Y3235D01*
X19278Y3142D01*
X19329Y3046D01*
X19351Y3023D01*
X19368Y2995D01*
X19449Y2922D01*
X19526Y2844D01*
X19554Y2828D01*
X19578Y2806D01*
X19676Y2759D01*
X19771Y2705D01*
X19802Y2697D01*
X19831Y2683D01*
X19921Y2669D01*
X20045Y2640D01*
X20094Y2642D01*
X20136Y2636D01*
X95546Y2636D01*
X95599Y2643D01*
G37*
G36*
X200026Y126824D02*
X200026Y126824D01*
X200058Y126823D01*
X200163Y126853D01*
X200270Y126875D01*
X200299Y126890D01*
X200330Y126899D01*
X200423Y126956D01*
X200519Y127007D01*
X200542Y127030D01*
X200570Y127047D01*
X200643Y127128D01*
X200721Y127204D01*
X200737Y127232D01*
X200759Y127256D01*
X200806Y127354D01*
X200860Y127449D01*
X200868Y127481D01*
X200882Y127510D01*
X200896Y127599D01*
X200925Y127724D01*
X200923Y127772D01*
X200929Y127814D01*
X200929Y144792D01*
X200916Y144887D01*
X200911Y144983D01*
X200896Y145026D01*
X200889Y145071D01*
X200850Y145158D01*
X200818Y145249D01*
X200793Y145284D01*
X200773Y145328D01*
X200690Y145425D01*
X200637Y145498D01*
X197405Y148730D01*
X197405Y162710D01*
X197401Y162742D01*
X197403Y162774D01*
X197381Y162881D01*
X197365Y162989D01*
X197352Y163018D01*
X197346Y163050D01*
X197294Y163146D01*
X197249Y163246D01*
X197228Y163270D01*
X197213Y163299D01*
X197137Y163377D01*
X197066Y163460D01*
X197039Y163478D01*
X197016Y163501D01*
X196921Y163555D01*
X196830Y163615D01*
X196799Y163624D01*
X196771Y163640D01*
X196665Y163665D01*
X196560Y163697D01*
X196528Y163698D01*
X196497Y163705D01*
X196387Y163699D01*
X196278Y163701D01*
X196247Y163692D01*
X196215Y163691D01*
X196112Y163655D01*
X196006Y163626D01*
X195979Y163609D01*
X195948Y163598D01*
X195875Y163545D01*
X195766Y163477D01*
X195734Y163441D01*
X195699Y163416D01*
X194836Y162553D01*
X176004Y162553D01*
X175259Y163298D01*
X175259Y171462D01*
X176004Y172207D01*
X194836Y172207D01*
X195581Y171462D01*
X195581Y170650D01*
X195590Y170586D01*
X195589Y170522D01*
X195610Y170447D01*
X195621Y170371D01*
X195647Y170312D01*
X195664Y170250D01*
X195705Y170184D01*
X195737Y170114D01*
X195779Y170065D01*
X195812Y170010D01*
X195870Y169958D01*
X195920Y169900D01*
X195974Y169864D01*
X196022Y169821D01*
X196091Y169788D01*
X196156Y169745D01*
X196218Y169726D01*
X196275Y169698D01*
X196345Y169687D01*
X196426Y169663D01*
X196511Y169662D01*
X196580Y169651D01*
X198051Y169651D01*
X199223Y168478D01*
X199249Y168459D01*
X199270Y168434D01*
X199362Y168374D01*
X199449Y168309D01*
X199479Y168297D01*
X199506Y168280D01*
X199611Y168248D01*
X199713Y168209D01*
X199745Y168207D01*
X199776Y168197D01*
X199885Y168196D01*
X199994Y168187D01*
X200026Y168194D01*
X200058Y168193D01*
X200163Y168223D01*
X200270Y168245D01*
X200299Y168260D01*
X200330Y168269D01*
X200423Y168326D01*
X200519Y168377D01*
X200542Y168400D01*
X200570Y168417D01*
X200643Y168498D01*
X200721Y168574D01*
X200737Y168602D01*
X200759Y168626D01*
X200806Y168724D01*
X200860Y168819D01*
X200868Y168851D01*
X200882Y168880D01*
X200896Y168969D01*
X200925Y169094D01*
X200923Y169142D01*
X200929Y169184D01*
X200929Y171366D01*
X200916Y171460D01*
X200911Y171557D01*
X200896Y171600D01*
X200889Y171645D01*
X200850Y171732D01*
X200818Y171823D01*
X200793Y171857D01*
X200773Y171902D01*
X200690Y171999D01*
X200637Y172072D01*
X196852Y175856D01*
X196801Y175895D01*
X196756Y175941D01*
X196689Y175979D01*
X196627Y176026D01*
X196567Y176048D01*
X196511Y176080D01*
X196435Y176098D01*
X196363Y176125D01*
X196299Y176130D01*
X196236Y176145D01*
X196159Y176141D01*
X196082Y176147D01*
X196019Y176134D01*
X195955Y176130D01*
X195882Y176105D01*
X195806Y176089D01*
X195749Y176059D01*
X195688Y176038D01*
X195632Y175997D01*
X195557Y175957D01*
X195496Y175898D01*
X195439Y175856D01*
X194836Y175253D01*
X176004Y175253D01*
X175259Y175998D01*
X175259Y184162D01*
X176004Y184907D01*
X194836Y184907D01*
X195581Y184162D01*
X195581Y183350D01*
X195590Y183286D01*
X195589Y183222D01*
X195610Y183147D01*
X195621Y183071D01*
X195647Y183012D01*
X195664Y182950D01*
X195705Y182884D01*
X195737Y182814D01*
X195779Y182765D01*
X195812Y182710D01*
X195870Y182658D01*
X195920Y182600D01*
X195974Y182564D01*
X196022Y182521D01*
X196091Y182488D01*
X196156Y182445D01*
X196218Y182426D01*
X196275Y182398D01*
X196345Y182387D01*
X196426Y182363D01*
X196511Y182362D01*
X196580Y182351D01*
X196781Y182351D01*
X205471Y173661D01*
X205471Y172171D01*
X205475Y172139D01*
X205473Y172107D01*
X205495Y172000D01*
X205511Y171892D01*
X205524Y171862D01*
X205530Y171831D01*
X205582Y171734D01*
X205627Y171635D01*
X205648Y171610D01*
X205663Y171582D01*
X205739Y171503D01*
X205810Y171421D01*
X205837Y171403D01*
X205860Y171380D01*
X205955Y171326D01*
X206046Y171266D01*
X206077Y171257D01*
X206105Y171241D01*
X206212Y171216D01*
X206316Y171184D01*
X206348Y171183D01*
X206379Y171176D01*
X206489Y171181D01*
X206598Y171180D01*
X206629Y171189D01*
X206661Y171190D01*
X206764Y171226D01*
X206870Y171255D01*
X206897Y171272D01*
X206928Y171283D01*
X207001Y171336D01*
X207110Y171403D01*
X207142Y171439D01*
X207177Y171464D01*
X209854Y174142D01*
X209892Y174193D01*
X209938Y174238D01*
X209977Y174305D01*
X210023Y174367D01*
X210046Y174427D01*
X210077Y174483D01*
X210095Y174559D01*
X210123Y174631D01*
X210128Y174695D01*
X210142Y174758D01*
X210138Y174835D01*
X210144Y174912D01*
X210131Y174975D01*
X210128Y175039D01*
X210103Y175113D01*
X210087Y175188D01*
X210057Y175245D01*
X210036Y175306D01*
X209994Y175363D01*
X209954Y175437D01*
X209895Y175498D01*
X209854Y175555D01*
X196852Y188556D01*
X196801Y188595D01*
X196756Y188641D01*
X196689Y188679D01*
X196627Y188726D01*
X196567Y188748D01*
X196511Y188780D01*
X196435Y188798D01*
X196363Y188825D01*
X196299Y188830D01*
X196236Y188845D01*
X196159Y188841D01*
X196082Y188847D01*
X196019Y188834D01*
X195955Y188830D01*
X195882Y188805D01*
X195806Y188789D01*
X195749Y188759D01*
X195688Y188738D01*
X195632Y188697D01*
X195557Y188657D01*
X195496Y188598D01*
X195439Y188556D01*
X194836Y187953D01*
X176004Y187953D01*
X175259Y188698D01*
X175259Y196862D01*
X176004Y197607D01*
X194836Y197607D01*
X195581Y196862D01*
X195581Y196050D01*
X195590Y195986D01*
X195589Y195922D01*
X195610Y195847D01*
X195621Y195771D01*
X195647Y195712D01*
X195664Y195650D01*
X195705Y195584D01*
X195737Y195514D01*
X195779Y195465D01*
X195812Y195410D01*
X195870Y195358D01*
X195920Y195300D01*
X195974Y195264D01*
X196022Y195221D01*
X196091Y195188D01*
X196156Y195145D01*
X196218Y195126D01*
X196275Y195098D01*
X196345Y195087D01*
X196426Y195063D01*
X196511Y195062D01*
X196580Y195051D01*
X196781Y195051D01*
X203525Y188306D01*
X203551Y188287D01*
X203572Y188262D01*
X203664Y188202D01*
X203751Y188137D01*
X203781Y188125D01*
X203808Y188108D01*
X203913Y188076D01*
X204015Y188037D01*
X204047Y188035D01*
X204078Y188025D01*
X204187Y188024D01*
X204296Y188015D01*
X204328Y188022D01*
X204360Y188021D01*
X204465Y188051D01*
X204572Y188073D01*
X204601Y188088D01*
X204632Y188097D01*
X204725Y188154D01*
X204821Y188205D01*
X204844Y188228D01*
X204872Y188245D01*
X204945Y188326D01*
X205023Y188402D01*
X205039Y188430D01*
X205061Y188454D01*
X205108Y188552D01*
X205162Y188647D01*
X205170Y188679D01*
X205184Y188708D01*
X205198Y188797D01*
X205227Y188922D01*
X205225Y188970D01*
X205231Y189012D01*
X205231Y192622D01*
X206538Y195778D01*
X206541Y195787D01*
X206545Y195795D01*
X206576Y195924D01*
X206608Y196051D01*
X206608Y196060D01*
X206610Y196070D01*
X206604Y196202D01*
X206599Y196333D01*
X206597Y196342D01*
X206596Y196351D01*
X206553Y196476D01*
X206512Y196601D01*
X206507Y196609D01*
X206504Y196618D01*
X206458Y196680D01*
X206353Y196834D01*
X206335Y196849D01*
X206322Y196867D01*
X200272Y202917D01*
X200195Y202974D01*
X200124Y203039D01*
X200083Y203059D01*
X200047Y203086D01*
X199956Y203120D01*
X199870Y203162D01*
X199828Y203168D01*
X199783Y203185D01*
X199655Y203195D01*
X199566Y203209D01*
X196580Y203209D01*
X196516Y203200D01*
X196452Y203201D01*
X196377Y203180D01*
X196301Y203169D01*
X196242Y203143D01*
X196180Y203126D01*
X196114Y203085D01*
X196044Y203053D01*
X195995Y203011D01*
X195940Y202978D01*
X195888Y202920D01*
X195830Y202870D01*
X195794Y202816D01*
X195751Y202768D01*
X195718Y202699D01*
X195675Y202634D01*
X195656Y202572D01*
X195628Y202515D01*
X195617Y202445D01*
X195593Y202364D01*
X195592Y202279D01*
X195581Y202210D01*
X195581Y201398D01*
X194836Y200653D01*
X176004Y200653D01*
X175259Y201398D01*
X175259Y209562D01*
X176004Y210307D01*
X194836Y210307D01*
X195581Y209562D01*
X195581Y208750D01*
X195590Y208686D01*
X195589Y208622D01*
X195610Y208547D01*
X195621Y208471D01*
X195647Y208412D01*
X195664Y208350D01*
X195705Y208284D01*
X195737Y208214D01*
X195779Y208165D01*
X195812Y208110D01*
X195870Y208058D01*
X195920Y208000D01*
X195974Y207964D01*
X196022Y207921D01*
X196091Y207888D01*
X196156Y207845D01*
X196218Y207826D01*
X196275Y207798D01*
X196345Y207787D01*
X196426Y207763D01*
X196511Y207762D01*
X196580Y207751D01*
X201861Y207751D01*
X209533Y200078D01*
X209541Y200073D01*
X209547Y200065D01*
X209653Y199988D01*
X209759Y199909D01*
X209768Y199906D01*
X209775Y199900D01*
X209899Y199856D01*
X210023Y199809D01*
X210032Y199809D01*
X210041Y199805D01*
X210172Y199798D01*
X210304Y199788D01*
X210313Y199790D01*
X210323Y199789D01*
X210398Y199807D01*
X210580Y199845D01*
X210601Y199856D01*
X210622Y199862D01*
X213778Y201169D01*
X218022Y201169D01*
X221943Y199545D01*
X224258Y197229D01*
X224284Y197210D01*
X224305Y197186D01*
X224397Y197126D01*
X224484Y197060D01*
X224514Y197049D01*
X224541Y197031D01*
X224646Y196999D01*
X224748Y196961D01*
X224780Y196958D01*
X224811Y196949D01*
X224920Y196947D01*
X225029Y196939D01*
X225061Y196945D01*
X225093Y196945D01*
X225198Y196974D01*
X225305Y196996D01*
X225334Y197012D01*
X225365Y197020D01*
X225458Y197078D01*
X225554Y197129D01*
X225577Y197151D01*
X225605Y197168D01*
X225678Y197249D01*
X225756Y197326D01*
X225772Y197354D01*
X225794Y197378D01*
X225841Y197476D01*
X225895Y197571D01*
X225903Y197602D01*
X225917Y197631D01*
X225931Y197721D01*
X225960Y197845D01*
X225958Y197894D01*
X225964Y197936D01*
X225964Y208464D01*
X225960Y208496D01*
X225962Y208528D01*
X225940Y208635D01*
X225924Y208743D01*
X225911Y208773D01*
X225905Y208804D01*
X225853Y208901D01*
X225808Y209000D01*
X225787Y209025D01*
X225772Y209053D01*
X225696Y209131D01*
X225625Y209214D01*
X225598Y209232D01*
X225575Y209255D01*
X225480Y209309D01*
X225389Y209369D01*
X225358Y209378D01*
X225330Y209394D01*
X225224Y209419D01*
X225119Y209451D01*
X225087Y209452D01*
X225056Y209459D01*
X224946Y209454D01*
X224837Y209455D01*
X224806Y209446D01*
X224774Y209445D01*
X224671Y209409D01*
X224565Y209380D01*
X224538Y209363D01*
X224507Y209352D01*
X224434Y209299D01*
X224325Y209232D01*
X224293Y209196D01*
X224258Y209171D01*
X221943Y206855D01*
X218022Y205231D01*
X213778Y205231D01*
X209857Y206856D01*
X206856Y209857D01*
X205231Y213778D01*
X205231Y214910D01*
X205222Y214974D01*
X205223Y215038D01*
X205202Y215113D01*
X205191Y215189D01*
X205165Y215248D01*
X205148Y215310D01*
X205107Y215376D01*
X205075Y215446D01*
X205033Y215495D01*
X205000Y215550D01*
X204942Y215602D01*
X204892Y215660D01*
X204838Y215696D01*
X204790Y215739D01*
X204721Y215772D01*
X204656Y215815D01*
X204594Y215834D01*
X204537Y215862D01*
X204467Y215873D01*
X204386Y215897D01*
X204301Y215898D01*
X204232Y215909D01*
X196580Y215909D01*
X196516Y215900D01*
X196452Y215901D01*
X196377Y215880D01*
X196301Y215869D01*
X196242Y215843D01*
X196180Y215826D01*
X196114Y215785D01*
X196044Y215753D01*
X195995Y215711D01*
X195940Y215678D01*
X195888Y215620D01*
X195830Y215570D01*
X195794Y215516D01*
X195751Y215468D01*
X195718Y215399D01*
X195675Y215334D01*
X195656Y215272D01*
X195628Y215215D01*
X195617Y215145D01*
X195593Y215064D01*
X195592Y214979D01*
X195581Y214910D01*
X195581Y214098D01*
X194836Y213353D01*
X176004Y213353D01*
X175259Y214098D01*
X175259Y222262D01*
X176004Y223007D01*
X194836Y223007D01*
X195581Y222262D01*
X195581Y221450D01*
X195590Y221388D01*
X195589Y221344D01*
X195589Y221343D01*
X195589Y221322D01*
X195610Y221247D01*
X195621Y221171D01*
X195647Y221112D01*
X195664Y221050D01*
X195705Y220984D01*
X195737Y220914D01*
X195779Y220865D01*
X195812Y220810D01*
X195870Y220758D01*
X195920Y220700D01*
X195974Y220664D01*
X196022Y220621D01*
X196091Y220588D01*
X196156Y220545D01*
X196218Y220526D01*
X196275Y220498D01*
X196345Y220487D01*
X196426Y220463D01*
X196511Y220462D01*
X196580Y220451D01*
X205570Y220451D01*
X205579Y220452D01*
X205588Y220451D01*
X205718Y220472D01*
X205849Y220491D01*
X205857Y220494D01*
X205867Y220496D01*
X205986Y220553D01*
X206106Y220607D01*
X206113Y220613D01*
X206121Y220617D01*
X206220Y220705D01*
X206320Y220790D01*
X206325Y220798D01*
X206332Y220804D01*
X206372Y220870D01*
X206474Y221026D01*
X206479Y221041D01*
X206483Y221048D01*
X206486Y221057D01*
X206493Y221068D01*
X206855Y221943D01*
X209857Y224944D01*
X213778Y226569D01*
X218022Y226569D01*
X221943Y224945D01*
X224258Y222629D01*
X224284Y222610D01*
X224305Y222586D01*
X224397Y222526D01*
X224484Y222460D01*
X224514Y222449D01*
X224541Y222431D01*
X224646Y222399D01*
X224748Y222361D01*
X224780Y222358D01*
X224811Y222349D01*
X224920Y222347D01*
X225029Y222339D01*
X225061Y222345D01*
X225093Y222345D01*
X225198Y222374D01*
X225305Y222396D01*
X225334Y222412D01*
X225365Y222420D01*
X225458Y222478D01*
X225554Y222529D01*
X225577Y222551D01*
X225605Y222568D01*
X225678Y222649D01*
X225756Y222726D01*
X225772Y222754D01*
X225794Y222778D01*
X225841Y222876D01*
X225895Y222971D01*
X225903Y223002D01*
X225917Y223031D01*
X225931Y223121D01*
X225960Y223245D01*
X225958Y223294D01*
X225964Y223336D01*
X225964Y233864D01*
X225960Y233896D01*
X225962Y233928D01*
X225940Y234035D01*
X225924Y234143D01*
X225911Y234173D01*
X225905Y234204D01*
X225853Y234301D01*
X225808Y234400D01*
X225787Y234425D01*
X225772Y234453D01*
X225696Y234531D01*
X225625Y234614D01*
X225598Y234632D01*
X225575Y234655D01*
X225480Y234709D01*
X225389Y234769D01*
X225358Y234778D01*
X225330Y234794D01*
X225224Y234819D01*
X225119Y234851D01*
X225087Y234852D01*
X225056Y234859D01*
X224946Y234854D01*
X224837Y234855D01*
X224806Y234846D01*
X224774Y234845D01*
X224671Y234809D01*
X224565Y234780D01*
X224538Y234763D01*
X224507Y234752D01*
X224434Y234699D01*
X224325Y234632D01*
X224293Y234596D01*
X224258Y234571D01*
X221943Y232255D01*
X218022Y230631D01*
X213778Y230631D01*
X210622Y231938D01*
X210613Y231941D01*
X210605Y231945D01*
X210476Y231976D01*
X210349Y232008D01*
X210340Y232008D01*
X210330Y232010D01*
X210198Y232004D01*
X210067Y231999D01*
X210058Y231997D01*
X210049Y231996D01*
X209924Y231953D01*
X209799Y231912D01*
X209791Y231907D01*
X209782Y231904D01*
X209720Y231858D01*
X209566Y231753D01*
X209551Y231735D01*
X209533Y231722D01*
X206421Y228609D01*
X196580Y228609D01*
X196516Y228600D01*
X196452Y228601D01*
X196377Y228580D01*
X196301Y228569D01*
X196242Y228543D01*
X196180Y228526D01*
X196114Y228485D01*
X196044Y228453D01*
X195995Y228411D01*
X195940Y228378D01*
X195888Y228320D01*
X195830Y228270D01*
X195794Y228216D01*
X195751Y228168D01*
X195718Y228099D01*
X195675Y228034D01*
X195656Y227972D01*
X195628Y227915D01*
X195617Y227845D01*
X195593Y227764D01*
X195592Y227679D01*
X195581Y227610D01*
X195581Y226798D01*
X194836Y226053D01*
X176004Y226053D01*
X175259Y226798D01*
X175259Y227610D01*
X175250Y227674D01*
X175251Y227738D01*
X175230Y227813D01*
X175219Y227889D01*
X175193Y227948D01*
X175176Y228010D01*
X175135Y228076D01*
X175103Y228146D01*
X175061Y228195D01*
X175028Y228250D01*
X174970Y228302D01*
X174920Y228360D01*
X174866Y228396D01*
X174818Y228439D01*
X174749Y228472D01*
X174684Y228515D01*
X174622Y228534D01*
X174565Y228562D01*
X174495Y228573D01*
X174414Y228597D01*
X174329Y228598D01*
X174260Y228609D01*
X171274Y228609D01*
X171180Y228596D01*
X171083Y228591D01*
X171040Y228576D01*
X170995Y228569D01*
X170908Y228530D01*
X170817Y228498D01*
X170782Y228473D01*
X170738Y228453D01*
X170641Y228370D01*
X170568Y228317D01*
X168933Y226682D01*
X168876Y226605D01*
X168811Y226534D01*
X168791Y226493D01*
X168764Y226457D01*
X168730Y226366D01*
X168688Y226280D01*
X168682Y226238D01*
X168665Y226193D01*
X168655Y226065D01*
X168641Y225976D01*
X168641Y155024D01*
X168654Y154930D01*
X168659Y154833D01*
X168674Y154790D01*
X168681Y154745D01*
X168720Y154658D01*
X168752Y154567D01*
X168777Y154532D01*
X168797Y154488D01*
X168880Y154391D01*
X168933Y154318D01*
X169566Y153685D01*
X169643Y153628D01*
X169714Y153563D01*
X169755Y153543D01*
X169791Y153516D01*
X169882Y153482D01*
X169968Y153440D01*
X170010Y153434D01*
X170055Y153417D01*
X170183Y153407D01*
X170272Y153393D01*
X173439Y153393D01*
X176253Y150579D01*
X176253Y146601D01*
X173439Y143787D01*
X169461Y143787D01*
X166647Y146601D01*
X166647Y149768D01*
X166634Y149863D01*
X166629Y149959D01*
X166614Y150002D01*
X166607Y150047D01*
X166568Y150134D01*
X166536Y150225D01*
X166511Y150260D01*
X166491Y150304D01*
X166408Y150401D01*
X166355Y150474D01*
X165753Y151076D01*
X165727Y151096D01*
X165706Y151120D01*
X165614Y151180D01*
X165527Y151245D01*
X165497Y151257D01*
X165470Y151274D01*
X165365Y151306D01*
X165263Y151345D01*
X165231Y151347D01*
X165200Y151357D01*
X165091Y151358D01*
X164982Y151367D01*
X164950Y151360D01*
X164918Y151361D01*
X164813Y151331D01*
X164706Y151309D01*
X164677Y151294D01*
X164646Y151285D01*
X164553Y151228D01*
X164457Y151177D01*
X164434Y151154D01*
X164406Y151137D01*
X164333Y151056D01*
X164255Y150980D01*
X164239Y150952D01*
X164217Y150928D01*
X164170Y150830D01*
X164116Y150735D01*
X164108Y150703D01*
X164094Y150674D01*
X164080Y150585D01*
X164051Y150460D01*
X164053Y150412D01*
X164047Y150370D01*
X164047Y135364D01*
X163339Y134656D01*
X163300Y134604D01*
X163254Y134559D01*
X163216Y134492D01*
X163169Y134430D01*
X163147Y134370D01*
X163115Y134314D01*
X163097Y134239D01*
X163070Y134166D01*
X163065Y134102D01*
X163050Y134040D01*
X163054Y133962D01*
X163048Y133885D01*
X163061Y133822D01*
X163065Y133758D01*
X163090Y133685D01*
X163106Y133609D01*
X163136Y133552D01*
X163157Y133492D01*
X163198Y133435D01*
X163238Y133360D01*
X163297Y133299D01*
X163339Y133243D01*
X164478Y132103D01*
X164555Y132046D01*
X164626Y131981D01*
X164667Y131961D01*
X164703Y131934D01*
X164793Y131900D01*
X164880Y131858D01*
X164922Y131852D01*
X164967Y131835D01*
X165095Y131825D01*
X165184Y131811D01*
X194521Y131811D01*
X196143Y130188D01*
X199223Y127108D01*
X199249Y127089D01*
X199270Y127064D01*
X199362Y127004D01*
X199449Y126939D01*
X199479Y126927D01*
X199506Y126910D01*
X199611Y126878D01*
X199713Y126839D01*
X199745Y126837D01*
X199776Y126827D01*
X199885Y126826D01*
X199994Y126817D01*
X200026Y126824D01*
G37*
%LPC*%
G36*
X41384Y35559D02*
X41384Y35559D01*
X40639Y36304D01*
X40639Y52596D01*
X41384Y53341D01*
X42450Y53341D01*
X42514Y53350D01*
X42578Y53349D01*
X42653Y53370D01*
X42729Y53381D01*
X42788Y53407D01*
X42850Y53424D01*
X42916Y53465D01*
X42986Y53497D01*
X43035Y53539D01*
X43090Y53572D01*
X43142Y53630D01*
X43200Y53680D01*
X43236Y53734D01*
X43279Y53782D01*
X43312Y53851D01*
X43355Y53916D01*
X43374Y53978D01*
X43402Y54035D01*
X43413Y54105D01*
X43437Y54186D01*
X43438Y54271D01*
X43449Y54340D01*
X43449Y63645D01*
X43441Y63704D01*
X43441Y63718D01*
X43436Y63734D01*
X43436Y63740D01*
X43431Y63836D01*
X43416Y63879D01*
X43409Y63924D01*
X43370Y64011D01*
X43338Y64102D01*
X43313Y64137D01*
X43293Y64181D01*
X43210Y64278D01*
X43157Y64351D01*
X40917Y66591D01*
X40917Y70569D01*
X43157Y72809D01*
X43214Y72885D01*
X43279Y72957D01*
X43299Y72998D01*
X43326Y73034D01*
X43360Y73124D01*
X43402Y73211D01*
X43408Y73253D01*
X43425Y73298D01*
X43435Y73420D01*
X43437Y73428D01*
X43437Y73440D01*
X43449Y73515D01*
X43449Y90440D01*
X43440Y90504D01*
X43441Y90568D01*
X43420Y90643D01*
X43409Y90719D01*
X43383Y90778D01*
X43366Y90840D01*
X43325Y90906D01*
X43293Y90976D01*
X43251Y91025D01*
X43218Y91080D01*
X43160Y91132D01*
X43110Y91190D01*
X43056Y91226D01*
X43008Y91269D01*
X42939Y91302D01*
X42874Y91345D01*
X42812Y91364D01*
X42755Y91392D01*
X42685Y91403D01*
X42604Y91427D01*
X42519Y91428D01*
X42450Y91439D01*
X41384Y91439D01*
X40639Y92184D01*
X40639Y108476D01*
X41384Y109221D01*
X50056Y109221D01*
X50801Y108476D01*
X50801Y92184D01*
X50056Y91439D01*
X48990Y91439D01*
X48926Y91430D01*
X48862Y91431D01*
X48787Y91410D01*
X48711Y91399D01*
X48652Y91373D01*
X48590Y91356D01*
X48524Y91315D01*
X48454Y91283D01*
X48405Y91241D01*
X48350Y91208D01*
X48298Y91150D01*
X48240Y91100D01*
X48204Y91046D01*
X48161Y90998D01*
X48128Y90929D01*
X48085Y90864D01*
X48066Y90802D01*
X48038Y90745D01*
X48027Y90675D01*
X48003Y90594D01*
X48002Y90509D01*
X47991Y90440D01*
X47991Y73515D01*
X47999Y73457D01*
X47999Y73455D01*
X48000Y73451D01*
X48004Y73420D01*
X48009Y73324D01*
X48024Y73281D01*
X48031Y73236D01*
X48070Y73149D01*
X48102Y73058D01*
X48127Y73023D01*
X48147Y72979D01*
X48230Y72882D01*
X48283Y72809D01*
X50523Y70569D01*
X50523Y66591D01*
X48283Y64351D01*
X48226Y64275D01*
X48161Y64203D01*
X48141Y64162D01*
X48114Y64126D01*
X48080Y64036D01*
X48038Y63949D01*
X48032Y63907D01*
X48015Y63862D01*
X48006Y63756D01*
X48003Y63744D01*
X48002Y63719D01*
X47991Y63645D01*
X47991Y54340D01*
X48000Y54276D01*
X47999Y54212D01*
X48020Y54137D01*
X48031Y54061D01*
X48057Y54002D01*
X48074Y53940D01*
X48115Y53874D01*
X48147Y53804D01*
X48189Y53755D01*
X48222Y53700D01*
X48280Y53648D01*
X48330Y53590D01*
X48384Y53554D01*
X48432Y53511D01*
X48501Y53478D01*
X48566Y53435D01*
X48628Y53416D01*
X48685Y53388D01*
X48755Y53377D01*
X48836Y53353D01*
X48921Y53352D01*
X48990Y53341D01*
X50056Y53341D01*
X50801Y52596D01*
X50801Y36304D01*
X50056Y35559D01*
X41384Y35559D01*
G37*
%LPD*%
%LPC*%
G36*
X172001Y53617D02*
X172001Y53617D01*
X169761Y55857D01*
X169685Y55914D01*
X169613Y55979D01*
X169572Y55999D01*
X169536Y56026D01*
X169446Y56060D01*
X169359Y56102D01*
X169317Y56108D01*
X169272Y56125D01*
X169144Y56135D01*
X169055Y56149D01*
X145780Y56149D01*
X145716Y56140D01*
X145652Y56141D01*
X145577Y56120D01*
X145501Y56109D01*
X145442Y56083D01*
X145380Y56066D01*
X145314Y56025D01*
X145244Y55993D01*
X145195Y55951D01*
X145140Y55918D01*
X145088Y55860D01*
X145030Y55810D01*
X144994Y55756D01*
X144951Y55708D01*
X144918Y55639D01*
X144875Y55574D01*
X144856Y55512D01*
X144828Y55455D01*
X144818Y55391D01*
X144036Y54609D01*
X130284Y54609D01*
X129539Y55354D01*
X129539Y61486D01*
X130284Y62231D01*
X144036Y62231D01*
X144815Y61453D01*
X144821Y61411D01*
X144847Y61352D01*
X144864Y61290D01*
X144905Y61224D01*
X144937Y61154D01*
X144979Y61105D01*
X145012Y61050D01*
X145070Y60998D01*
X145120Y60940D01*
X145174Y60904D01*
X145222Y60861D01*
X145291Y60828D01*
X145356Y60785D01*
X145418Y60766D01*
X145475Y60738D01*
X145545Y60727D01*
X145626Y60703D01*
X145711Y60702D01*
X145780Y60691D01*
X169055Y60691D01*
X169150Y60704D01*
X169246Y60709D01*
X169289Y60724D01*
X169334Y60731D01*
X169421Y60770D01*
X169512Y60802D01*
X169547Y60827D01*
X169591Y60847D01*
X169688Y60930D01*
X169761Y60983D01*
X172001Y63223D01*
X175979Y63223D01*
X177051Y62151D01*
X177102Y62113D01*
X177147Y62067D01*
X177215Y62028D01*
X177277Y61982D01*
X177337Y61959D01*
X177393Y61928D01*
X177468Y61910D01*
X177540Y61882D01*
X177604Y61877D01*
X177667Y61863D01*
X177744Y61867D01*
X177822Y61861D01*
X177884Y61874D01*
X177949Y61877D01*
X178022Y61902D01*
X178098Y61918D01*
X178154Y61948D01*
X178215Y61969D01*
X178272Y62011D01*
X178347Y62051D01*
X178407Y62110D01*
X178464Y62151D01*
X178544Y62231D01*
X192296Y62231D01*
X193041Y61486D01*
X193041Y55354D01*
X192296Y54609D01*
X178544Y54609D01*
X178464Y54689D01*
X178413Y54727D01*
X178368Y54773D01*
X178300Y54812D01*
X178239Y54858D01*
X178178Y54881D01*
X178122Y54912D01*
X178047Y54930D01*
X177975Y54958D01*
X177911Y54963D01*
X177848Y54977D01*
X177771Y54973D01*
X177693Y54979D01*
X177631Y54966D01*
X177566Y54963D01*
X177493Y54938D01*
X177417Y54922D01*
X177361Y54892D01*
X177300Y54871D01*
X177243Y54829D01*
X177168Y54789D01*
X177108Y54730D01*
X177051Y54689D01*
X175979Y53617D01*
X172001Y53617D01*
G37*
%LPD*%
%LPC*%
G36*
X176004Y251453D02*
X176004Y251453D01*
X175259Y252198D01*
X175259Y260362D01*
X176004Y261107D01*
X182150Y261107D01*
X182214Y261116D01*
X182278Y261115D01*
X182353Y261136D01*
X182429Y261147D01*
X182488Y261173D01*
X182550Y261190D01*
X182616Y261231D01*
X182686Y261263D01*
X182735Y261305D01*
X182790Y261338D01*
X182842Y261396D01*
X182900Y261446D01*
X182936Y261500D01*
X182979Y261548D01*
X183012Y261617D01*
X183055Y261682D01*
X183074Y261744D01*
X183102Y261801D01*
X183113Y261871D01*
X183137Y261952D01*
X183138Y262037D01*
X183149Y262106D01*
X183149Y263035D01*
X183136Y263130D01*
X183131Y263226D01*
X183116Y263269D01*
X183109Y263314D01*
X183070Y263401D01*
X183038Y263492D01*
X183013Y263527D01*
X182993Y263571D01*
X182910Y263668D01*
X182857Y263741D01*
X180617Y265981D01*
X180617Y269959D01*
X183431Y272773D01*
X187409Y272773D01*
X190223Y269959D01*
X190223Y265981D01*
X187983Y263741D01*
X187926Y263665D01*
X187861Y263593D01*
X187841Y263552D01*
X187814Y263516D01*
X187780Y263426D01*
X187738Y263339D01*
X187732Y263297D01*
X187715Y263252D01*
X187705Y263124D01*
X187691Y263035D01*
X187691Y262106D01*
X187700Y262042D01*
X187699Y261978D01*
X187720Y261903D01*
X187731Y261827D01*
X187757Y261768D01*
X187774Y261706D01*
X187815Y261640D01*
X187847Y261570D01*
X187889Y261521D01*
X187922Y261466D01*
X187980Y261414D01*
X188030Y261356D01*
X188084Y261320D01*
X188132Y261277D01*
X188201Y261244D01*
X188266Y261201D01*
X188328Y261182D01*
X188385Y261154D01*
X188455Y261143D01*
X188536Y261119D01*
X188621Y261118D01*
X188690Y261107D01*
X194836Y261107D01*
X195581Y260362D01*
X195581Y252198D01*
X194836Y251453D01*
X176004Y251453D01*
G37*
%LPD*%
%LPC*%
G36*
X149141Y40917D02*
X149141Y40917D01*
X147933Y42125D01*
X147857Y42182D01*
X147785Y42247D01*
X147744Y42267D01*
X147708Y42294D01*
X147618Y42328D01*
X147531Y42370D01*
X147489Y42376D01*
X147444Y42393D01*
X147316Y42403D01*
X147227Y42417D01*
X144958Y42417D01*
X144863Y42404D01*
X144767Y42399D01*
X144724Y42384D01*
X144679Y42377D01*
X144592Y42338D01*
X144501Y42306D01*
X144466Y42281D01*
X144422Y42261D01*
X144325Y42178D01*
X144252Y42125D01*
X144036Y41909D01*
X130284Y41909D01*
X129539Y42654D01*
X129539Y48786D01*
X130284Y49531D01*
X144036Y49531D01*
X144252Y49315D01*
X144328Y49258D01*
X144400Y49193D01*
X144441Y49173D01*
X144477Y49146D01*
X144567Y49112D01*
X144654Y49070D01*
X144696Y49064D01*
X144741Y49047D01*
X144869Y49037D01*
X144958Y49023D01*
X147227Y49023D01*
X147322Y49036D01*
X147418Y49041D01*
X147461Y49056D01*
X147506Y49063D01*
X147593Y49102D01*
X147684Y49134D01*
X147719Y49159D01*
X147763Y49179D01*
X147860Y49262D01*
X147933Y49315D01*
X149141Y50523D01*
X153119Y50523D01*
X155933Y47709D01*
X155933Y43731D01*
X153119Y40917D01*
X149141Y40917D01*
G37*
%LPD*%
%LPC*%
G36*
X66238Y134619D02*
X66238Y134619D01*
X65493Y135364D01*
X65493Y154196D01*
X66238Y154941D01*
X74402Y154941D01*
X75147Y154196D01*
X75147Y135364D01*
X74402Y134619D01*
X66238Y134619D01*
G37*
%LPD*%
%LPC*%
G36*
X178544Y67309D02*
X178544Y67309D01*
X177799Y68054D01*
X177799Y74186D01*
X178544Y74931D01*
X192296Y74931D01*
X193143Y74084D01*
X193169Y74064D01*
X193190Y74040D01*
X193282Y73980D01*
X193365Y73918D01*
X193327Y73876D01*
X193249Y73800D01*
X193233Y73772D01*
X193211Y73748D01*
X193164Y73649D01*
X193110Y73554D01*
X193102Y73523D01*
X193088Y73494D01*
X193074Y73405D01*
X193045Y73280D01*
X193047Y73231D01*
X193041Y73189D01*
X193041Y68054D01*
X192296Y67309D01*
X178544Y67309D01*
G37*
%LPD*%
%LPC*%
G36*
X130284Y67309D02*
X130284Y67309D01*
X129539Y68054D01*
X129539Y74186D01*
X130284Y74931D01*
X144036Y74931D01*
X144781Y74186D01*
X144781Y68054D01*
X144036Y67309D01*
X130284Y67309D01*
G37*
%LPD*%
%LPC*%
G36*
X178544Y41909D02*
X178544Y41909D01*
X177799Y42654D01*
X177799Y48786D01*
X178544Y49531D01*
X192296Y49531D01*
X193041Y48786D01*
X193041Y42654D01*
X192296Y41909D01*
X178544Y41909D01*
G37*
%LPD*%
%LPC*%
G36*
X14699Y268699D02*
X14699Y268699D01*
X14699Y278471D01*
X15496Y278345D01*
X17283Y277764D01*
X18957Y276911D01*
X19013Y276870D01*
X19069Y276841D01*
X19120Y276803D01*
X19193Y276775D01*
X19263Y276738D01*
X19324Y276726D01*
X19384Y276703D01*
X19462Y276697D01*
X19539Y276681D01*
X19602Y276686D01*
X19665Y276681D01*
X19742Y276697D01*
X19776Y276700D01*
X19804Y276598D01*
X19827Y276490D01*
X19842Y276462D01*
X19850Y276432D01*
X19908Y276338D01*
X19960Y276241D01*
X19981Y276220D01*
X19998Y276192D01*
X20115Y276087D01*
X20179Y276024D01*
X20478Y275806D01*
X21806Y274478D01*
X22911Y272957D01*
X23764Y271283D01*
X24345Y269496D01*
X24471Y268699D01*
X14699Y268699D01*
G37*
%LPD*%
%LPC*%
G36*
X14699Y264701D02*
X14699Y264701D01*
X24471Y264701D01*
X24454Y264594D01*
X24454Y264593D01*
X24345Y263904D01*
X23764Y262117D01*
X22911Y260443D01*
X21806Y258922D01*
X20478Y257594D01*
X18957Y256489D01*
X17283Y255636D01*
X15496Y255055D01*
X14699Y254929D01*
X14699Y264701D01*
G37*
%LPD*%
%LPC*%
G36*
X213104Y280455D02*
X213104Y280455D01*
X211317Y281036D01*
X209643Y281889D01*
X208122Y282994D01*
X206794Y284322D01*
X205689Y285843D01*
X204836Y287517D01*
X204255Y289304D01*
X204129Y290101D01*
X213901Y290101D01*
X213901Y280329D01*
X213104Y280455D01*
G37*
%LPD*%
%LPC*%
G36*
X107069Y12159D02*
X107069Y12159D01*
X107069Y18701D01*
X111405Y18701D01*
X112051Y18528D01*
X112630Y18193D01*
X113103Y17720D01*
X113438Y17141D01*
X113611Y16495D01*
X113611Y12159D01*
X107069Y12159D01*
G37*
%LPD*%
%LPC*%
G36*
X96529Y12159D02*
X96529Y12159D01*
X96529Y16495D01*
X96702Y17141D01*
X97037Y17720D01*
X97510Y18193D01*
X98089Y18528D01*
X98735Y18701D01*
X103071Y18701D01*
X103071Y12159D01*
X96529Y12159D01*
G37*
%LPD*%
%LPC*%
G36*
X45797Y258057D02*
X45797Y258057D01*
X45797Y262377D01*
X53245Y262377D01*
X53891Y262204D01*
X54470Y261869D01*
X54943Y261396D01*
X55278Y260817D01*
X55451Y260171D01*
X55451Y258057D01*
X45797Y258057D01*
G37*
%LPD*%
%LPC*%
G36*
X32589Y258057D02*
X32589Y258057D01*
X32589Y260171D01*
X32762Y260817D01*
X33097Y261396D01*
X33570Y261869D01*
X34149Y262204D01*
X34795Y262377D01*
X42243Y262377D01*
X42243Y258057D01*
X32589Y258057D01*
G37*
%LPD*%
%LPC*%
G36*
X85724Y102234D02*
X85724Y102234D01*
X85724Y110491D01*
X87965Y110491D01*
X88611Y110318D01*
X89190Y109983D01*
X89663Y109510D01*
X89998Y108931D01*
X90171Y108285D01*
X90171Y102234D01*
X85724Y102234D01*
G37*
%LPD*%
%LPC*%
G36*
X85724Y46354D02*
X85724Y46354D01*
X85724Y54611D01*
X87965Y54611D01*
X88611Y54438D01*
X89190Y54103D01*
X89663Y53630D01*
X89998Y53051D01*
X90171Y52405D01*
X90171Y46354D01*
X85724Y46354D01*
G37*
%LPD*%
%LPC*%
G36*
X85724Y90169D02*
X85724Y90169D01*
X85724Y98426D01*
X90171Y98426D01*
X90171Y92375D01*
X89998Y91729D01*
X89663Y91150D01*
X89190Y90677D01*
X88611Y90342D01*
X87965Y90169D01*
X85724Y90169D01*
G37*
%LPD*%
%LPC*%
G36*
X85724Y34289D02*
X85724Y34289D01*
X85724Y42546D01*
X90171Y42546D01*
X90171Y36495D01*
X89998Y35849D01*
X89663Y35270D01*
X89190Y34797D01*
X88611Y34462D01*
X87965Y34289D01*
X85724Y34289D01*
G37*
%LPD*%
%LPC*%
G36*
X77469Y102234D02*
X77469Y102234D01*
X77469Y108285D01*
X77642Y108931D01*
X77977Y109510D01*
X78450Y109983D01*
X79029Y110318D01*
X79675Y110491D01*
X81916Y110491D01*
X81916Y102234D01*
X77469Y102234D01*
G37*
%LPD*%
%LPC*%
G36*
X77469Y46354D02*
X77469Y46354D01*
X77469Y52405D01*
X77642Y53051D01*
X77977Y53630D01*
X78450Y54103D01*
X79029Y54438D01*
X79675Y54611D01*
X81916Y54611D01*
X81916Y46354D01*
X77469Y46354D01*
G37*
%LPD*%
%LPC*%
G36*
X79675Y90169D02*
X79675Y90169D01*
X79029Y90342D01*
X78450Y90677D01*
X77977Y91150D01*
X77642Y91729D01*
X77469Y92375D01*
X77469Y98426D01*
X81916Y98426D01*
X81916Y90169D01*
X79675Y90169D01*
G37*
%LPD*%
%LPC*%
G36*
X79675Y34289D02*
X79675Y34289D01*
X79029Y34462D01*
X78450Y34797D01*
X77977Y35270D01*
X77642Y35849D01*
X77469Y36495D01*
X77469Y42546D01*
X81916Y42546D01*
X81916Y34289D01*
X79675Y34289D01*
G37*
%LPD*%
%LPC*%
G36*
X138429Y97789D02*
X138429Y97789D01*
X138429Y101601D01*
X143845Y101601D01*
X144491Y101428D01*
X145070Y101093D01*
X145543Y100620D01*
X145878Y100041D01*
X146051Y99395D01*
X146051Y97789D01*
X138429Y97789D01*
G37*
%LPD*%
%LPC*%
G36*
X128269Y97789D02*
X128269Y97789D01*
X128269Y99395D01*
X128442Y100041D01*
X128777Y100620D01*
X129250Y101093D01*
X129829Y101428D01*
X130475Y101601D01*
X135891Y101601D01*
X135891Y97789D01*
X128269Y97789D01*
G37*
%LPD*%
%LPC*%
G36*
X138429Y91439D02*
X138429Y91439D01*
X138429Y95251D01*
X146051Y95251D01*
X146051Y93645D01*
X145878Y92999D01*
X145543Y92420D01*
X145070Y91947D01*
X144491Y91612D01*
X143845Y91439D01*
X138429Y91439D01*
G37*
%LPD*%
%LPC*%
G36*
X130475Y91439D02*
X130475Y91439D01*
X129829Y91612D01*
X129250Y91947D01*
X128777Y92420D01*
X128442Y92999D01*
X128269Y93645D01*
X128269Y95251D01*
X135891Y95251D01*
X135891Y91439D01*
X130475Y91439D01*
G37*
%LPD*%
D10*
X12700Y292100D03*
X12700Y266700D03*
X12700Y241300D03*
X12700Y215900D03*
X12700Y190500D03*
X12700Y165100D03*
X12700Y139700D03*
X12700Y114300D03*
X12700Y88900D03*
X12700Y63500D03*
X12700Y38100D03*
X12700Y12700D03*
X215900Y292100D03*
X215900Y266700D03*
X215900Y241300D03*
X215900Y215900D03*
X215900Y190500D03*
X215900Y165100D03*
X215900Y139700D03*
X215900Y114300D03*
X215900Y88900D03*
X215900Y63500D03*
X215900Y38100D03*
X215900Y12700D03*
D11*
X185420Y167380D03*
X185420Y180080D03*
X185420Y192780D03*
X185420Y205480D03*
X185420Y218180D03*
X185420Y230880D03*
X185420Y243580D03*
X185420Y256280D03*
D12*
X159220Y144780D03*
X146520Y144780D03*
X133820Y144780D03*
X121120Y144780D03*
X108420Y144780D03*
X95720Y144780D03*
X83020Y144780D03*
D11*
X44020Y167380D03*
X44020Y180080D03*
X44020Y192780D03*
X44020Y205480D03*
X44020Y218180D03*
X44020Y230880D03*
X44020Y243580D03*
X44020Y256280D03*
D12*
X70320Y144780D03*
D13*
X45720Y44450D03*
X45720Y100330D03*
X83820Y44450D03*
X83820Y100330D03*
D14*
X105070Y10160D03*
X126070Y10160D03*
D15*
X185420Y71120D03*
X185420Y58420D03*
X185420Y45720D03*
X185420Y83820D03*
X185420Y96520D03*
X137160Y96520D03*
X137160Y83820D03*
X137160Y71120D03*
X137160Y58420D03*
X137160Y45720D03*
D16*
X32500Y7500D03*
X50000Y7500D03*
X67500Y7500D03*
X87500Y7500D03*
X195000Y7500D03*
X177500Y7500D03*
X107500Y105000D03*
X107500Y72500D03*
X37500Y297500D03*
X57500Y297500D03*
X77500Y297500D03*
X100000Y297500D03*
X122500Y297500D03*
X145000Y297500D03*
X170000Y297500D03*
X192500Y297500D03*
X45000Y147500D03*
X185000Y145000D03*
X172500Y110000D03*
X116000Y203500D03*
X116000Y183500D03*
X116000Y166500D03*
X145000Y279500D03*
X170000Y279500D03*
X92710Y242570D03*
D17*
X91700Y243580D02*
X44020Y243580D01*
X91700Y243580D02*
X92710Y242570D01*
D18*
X137160Y45720D02*
X151130Y45720D01*
D16*
X151130Y45720D03*
D17*
X12700Y241300D02*
X14980Y243580D01*
X44020Y243580D01*
D19*
X44020Y230880D02*
X31490Y230880D01*
X12700Y199040D02*
X12700Y190500D01*
X24622Y210962D02*
X24622Y224012D01*
X24622Y210962D02*
X12700Y199040D01*
X24622Y224012D02*
X31490Y230880D01*
X125730Y83820D02*
X137160Y83820D01*
D16*
X125730Y83820D03*
D19*
X44020Y218180D02*
X31696Y218180D01*
X28146Y214630D01*
X28146Y209502D01*
X24622Y205978D01*
X24622Y185562D01*
X12700Y173640D02*
X12700Y165100D01*
X12700Y173640D02*
X24622Y185562D01*
X149860Y83820D02*
X185420Y83820D01*
D16*
X149860Y83820D03*
D19*
X44020Y205480D02*
X31696Y205480D01*
X28146Y201930D01*
X28146Y184102D01*
X24622Y180578D01*
X12700Y147320D02*
X12700Y139700D01*
X24622Y159242D02*
X24622Y180578D01*
X24622Y159242D02*
X12700Y147320D01*
X45720Y68580D02*
X45720Y44450D01*
D16*
X45720Y68580D03*
D19*
X45720Y100330D01*
X44020Y192780D02*
X33950Y192780D01*
X31670Y190500D01*
X31670Y182642D01*
X28146Y179118D01*
X28146Y157782D01*
X25400Y155036D01*
X25400Y127000D02*
X12700Y114300D01*
X25400Y127000D02*
X25400Y155036D01*
X34092Y180080D02*
X44020Y180080D01*
X34092Y180080D02*
X31670Y177658D01*
X31670Y156323D01*
X28924Y153577D01*
X12700Y97440D02*
X12700Y88900D01*
X24622Y109362D02*
X24622Y121238D01*
X24622Y109362D02*
X12700Y97440D01*
X28924Y125540D02*
X28924Y153577D01*
X28924Y125540D02*
X24622Y121238D01*
X25400Y76200D02*
X12700Y63500D01*
X25400Y105156D02*
X28146Y107902D01*
X28146Y119779D01*
X37908Y129540D01*
X83020Y133820D02*
X83020Y144780D01*
X25400Y105156D02*
X25400Y76200D01*
X37908Y129540D02*
X78740Y129540D01*
X83020Y133820D01*
X95720Y132550D02*
X95720Y144780D01*
X95720Y132550D02*
X93980Y130810D01*
X84994Y130810D01*
X31670Y118319D02*
X31670Y106442D01*
X28924Y103696D01*
X28924Y74740D01*
X24622Y70438D01*
X24622Y50022D02*
X12700Y38100D01*
X80200Y126016D02*
X84994Y130810D01*
X80200Y126016D02*
X39367Y126016D01*
X31670Y118319D01*
X24622Y70438D02*
X24622Y50022D01*
X108420Y133820D02*
X108420Y144780D01*
X101886Y127286D02*
X86454Y127286D01*
X81088Y121920D02*
X40255Y121920D01*
X35194Y116859D02*
X35194Y104982D01*
X32448Y102236D01*
X32448Y73281D02*
X28146Y68979D01*
X12700Y21240D02*
X12700Y12700D01*
X24622Y33162D02*
X24622Y45038D01*
X24622Y33162D02*
X12700Y21240D01*
X101886Y127286D02*
X108420Y133820D01*
X86454Y127286D02*
X81088Y121920D01*
X40255Y121920D02*
X35194Y116859D01*
X32448Y102236D02*
X32448Y73281D01*
X28146Y68979D02*
X28146Y48562D01*
X24622Y45038D01*
X121120Y132880D02*
X121120Y144780D01*
X121120Y132880D02*
X124460Y129540D01*
X130884Y129540D01*
X135694Y124730D02*
X145927Y124730D01*
X151467Y119190D02*
X188304Y119190D01*
X189580Y117914D01*
X189580Y109482D01*
X197120Y101942D02*
X197120Y74734D01*
X197120Y101942D02*
X189580Y109482D01*
X197120Y74734D02*
X200422Y71432D01*
X135694Y124730D02*
X130884Y129540D01*
X145927Y124730D02*
X151467Y119190D01*
X200422Y53578D02*
X204232Y49768D01*
X204232Y33267D01*
X215900Y21599D02*
X215900Y12700D01*
X215900Y21599D02*
X204232Y33267D01*
X200422Y53578D02*
X200422Y71432D01*
D20*
X133820Y131610D02*
X133820Y144780D01*
X133820Y131610D02*
X137160Y128270D01*
X147394Y128270D02*
X152934Y122730D01*
X189770Y122730D02*
X193120Y119380D01*
X193120Y110948D01*
X200660Y103408D01*
X200660Y76200D02*
X203962Y72898D01*
X203962Y58555D01*
X215900Y46617D02*
X215900Y38100D01*
X215900Y46617D02*
X203962Y58555D01*
X147394Y128270D02*
X137160Y128270D01*
X152934Y122730D02*
X189770Y122730D01*
X200660Y103408D02*
X200660Y76200D01*
D19*
X146520Y134150D02*
X146520Y144780D01*
X192226Y126270D02*
X196660Y121836D01*
X196660Y112414D01*
X204232Y104842D01*
X215900Y69850D02*
X215900Y63500D01*
X154400Y126270D02*
X146520Y134150D01*
X154400Y126270D02*
X192226Y126270D01*
X204232Y104842D02*
X204232Y81518D01*
X215900Y69850D01*
X159220Y134150D02*
X159220Y144780D01*
X193580Y129540D02*
X199930Y123190D01*
X215900Y97799D02*
X215900Y88900D01*
X199930Y113769D02*
X199930Y123190D01*
X199930Y113769D02*
X215900Y97799D01*
X163830Y129540D02*
X159220Y134150D01*
X163830Y129540D02*
X193580Y129540D01*
X185420Y256280D02*
X185420Y267970D01*
D16*
X185420Y267970D03*
D19*
X173990Y58420D02*
X137160Y58420D01*
D16*
X173990Y58420D03*
D19*
X185420Y243580D02*
X196590Y243580D01*
X215900Y262890D02*
X215900Y266700D01*
X215900Y262890D02*
X196590Y243580D01*
X205480Y230880D02*
X185420Y230880D01*
X205480Y230880D02*
X215900Y241300D01*
X169920Y230880D02*
X166370Y227330D01*
X166370Y153670D01*
X171450Y148590D01*
D16*
X171450Y148590D03*
D19*
X169920Y230880D02*
X185420Y230880D01*
X185420Y218180D02*
X213620Y218180D01*
X215900Y215900D01*
X200920Y205480D02*
X185420Y205480D01*
X200920Y205480D02*
X215900Y190500D01*
X195840Y192780D02*
X185420Y192780D01*
X215900Y172720D02*
X215900Y165100D01*
X215900Y172720D02*
X195840Y192780D01*
X195840Y180080D02*
X185420Y180080D01*
X203200Y172720D02*
X203200Y151130D01*
X214630Y139700D01*
X215900Y139700D01*
X203200Y172720D02*
X195840Y180080D01*
X197110Y167380D02*
X185420Y167380D01*
X199676Y164814D02*
X199676Y149670D01*
X203200Y146146D02*
X203200Y119380D01*
X203200Y146146D02*
X199676Y149670D01*
X203200Y119380D02*
X208280Y114300D01*
X215900Y114300D01*
X199676Y164814D02*
X197110Y167380D01*
X138430Y10160D02*
X126070Y10160D01*
D16*
X138430Y10160D03*
X115570Y280670D03*
D17*
X114090Y282150D02*
X22650Y282150D01*
X12700Y292100D01*
X114090Y282150D02*
X115570Y280670D01*
M02*
