G04 EAGLE Gerber RS-274X export*
G75*
%MOMM*%
%FSLAX34Y34*%
%LPD*%
%INSilkscreen Bottom*%
%IPPOS*%
%AMOC8*
5,1,8,0,0,1.08239X$1,22.5*%
G01*
%ADD10C,0.152400*%
%ADD11C,0.203200*%
%ADD12C,0.127000*%
%ADD13C,0.076200*%


D10*
X199021Y293525D02*
X197775Y293525D01*
X197775Y289372D01*
X200267Y289372D01*
X200346Y289374D01*
X200425Y289380D01*
X200503Y289389D01*
X200581Y289402D01*
X200659Y289419D01*
X200735Y289439D01*
X200810Y289463D01*
X200884Y289491D01*
X200957Y289522D01*
X201028Y289557D01*
X201098Y289595D01*
X201165Y289636D01*
X201230Y289680D01*
X201294Y289727D01*
X201355Y289778D01*
X201413Y289831D01*
X201469Y289887D01*
X201522Y289945D01*
X201573Y290006D01*
X201620Y290070D01*
X201664Y290135D01*
X201705Y290203D01*
X201743Y290272D01*
X201778Y290343D01*
X201809Y290416D01*
X201837Y290490D01*
X201861Y290565D01*
X201881Y290641D01*
X201898Y290719D01*
X201911Y290797D01*
X201920Y290875D01*
X201926Y290954D01*
X201928Y291033D01*
X201928Y295187D01*
X201926Y295266D01*
X201920Y295345D01*
X201911Y295423D01*
X201898Y295501D01*
X201881Y295579D01*
X201861Y295655D01*
X201837Y295730D01*
X201809Y295804D01*
X201778Y295877D01*
X201743Y295948D01*
X201705Y296018D01*
X201664Y296085D01*
X201620Y296150D01*
X201573Y296214D01*
X201522Y296275D01*
X201469Y296333D01*
X201413Y296389D01*
X201355Y296442D01*
X201294Y296493D01*
X201230Y296540D01*
X201165Y296584D01*
X201098Y296625D01*
X201028Y296663D01*
X200957Y296698D01*
X200884Y296729D01*
X200810Y296757D01*
X200735Y296781D01*
X200659Y296801D01*
X200581Y296818D01*
X200503Y296831D01*
X200425Y296840D01*
X200346Y296846D01*
X200267Y296848D01*
X197775Y296848D01*
X193288Y296848D02*
X193288Y289372D01*
X189135Y289372D02*
X193288Y296848D01*
X189135Y296848D02*
X189135Y289372D01*
X184648Y289372D02*
X184648Y296848D01*
X182571Y296848D01*
X182483Y296846D01*
X182395Y296841D01*
X182307Y296831D01*
X182220Y296818D01*
X182133Y296801D01*
X182048Y296781D01*
X181963Y296757D01*
X181879Y296729D01*
X181797Y296698D01*
X181715Y296664D01*
X181636Y296626D01*
X181558Y296584D01*
X181482Y296540D01*
X181408Y296492D01*
X181336Y296441D01*
X181266Y296387D01*
X181199Y296330D01*
X181134Y296271D01*
X181071Y296208D01*
X181012Y296143D01*
X180955Y296076D01*
X180901Y296006D01*
X180850Y295934D01*
X180802Y295860D01*
X180758Y295784D01*
X180716Y295706D01*
X180678Y295627D01*
X180644Y295545D01*
X180613Y295463D01*
X180585Y295379D01*
X180561Y295294D01*
X180541Y295209D01*
X180524Y295122D01*
X180511Y295035D01*
X180501Y294947D01*
X180496Y294859D01*
X180494Y294771D01*
X180495Y294771D02*
X180495Y291449D01*
X180494Y291449D02*
X180496Y291361D01*
X180501Y291273D01*
X180511Y291185D01*
X180524Y291098D01*
X180541Y291011D01*
X180561Y290926D01*
X180585Y290841D01*
X180613Y290757D01*
X180644Y290675D01*
X180678Y290593D01*
X180716Y290514D01*
X180758Y290436D01*
X180802Y290360D01*
X180850Y290286D01*
X180901Y290214D01*
X180955Y290144D01*
X181012Y290077D01*
X181071Y290012D01*
X181134Y289949D01*
X181199Y289890D01*
X181266Y289833D01*
X181336Y289779D01*
X181408Y289728D01*
X181482Y289680D01*
X181558Y289636D01*
X181636Y289594D01*
X181715Y289556D01*
X181797Y289522D01*
X181879Y289491D01*
X181963Y289463D01*
X182048Y289439D01*
X182133Y289419D01*
X182220Y289402D01*
X182307Y289389D01*
X182395Y289379D01*
X182483Y289374D01*
X182571Y289372D01*
X184648Y289372D01*
X40638Y290202D02*
X38146Y290202D01*
X38067Y290204D01*
X37988Y290210D01*
X37910Y290219D01*
X37832Y290232D01*
X37754Y290249D01*
X37678Y290269D01*
X37603Y290293D01*
X37529Y290321D01*
X37456Y290352D01*
X37385Y290387D01*
X37316Y290425D01*
X37248Y290466D01*
X37183Y290510D01*
X37119Y290557D01*
X37058Y290608D01*
X37000Y290661D01*
X36944Y290717D01*
X36891Y290775D01*
X36840Y290836D01*
X36793Y290900D01*
X36749Y290965D01*
X36708Y291033D01*
X36670Y291102D01*
X36635Y291173D01*
X36604Y291246D01*
X36576Y291320D01*
X36552Y291395D01*
X36532Y291471D01*
X36515Y291549D01*
X36502Y291627D01*
X36493Y291705D01*
X36487Y291784D01*
X36485Y291863D01*
X36485Y292694D01*
X36487Y292773D01*
X36493Y292852D01*
X36502Y292930D01*
X36515Y293008D01*
X36532Y293086D01*
X36552Y293162D01*
X36576Y293237D01*
X36604Y293311D01*
X36635Y293384D01*
X36670Y293455D01*
X36708Y293525D01*
X36749Y293592D01*
X36793Y293657D01*
X36840Y293721D01*
X36891Y293782D01*
X36944Y293840D01*
X37000Y293896D01*
X37058Y293949D01*
X37119Y294000D01*
X37183Y294047D01*
X37248Y294091D01*
X37316Y294132D01*
X37385Y294170D01*
X37456Y294205D01*
X37529Y294236D01*
X37603Y294264D01*
X37678Y294288D01*
X37754Y294308D01*
X37832Y294325D01*
X37910Y294338D01*
X37988Y294347D01*
X38067Y294353D01*
X38146Y294355D01*
X40638Y294355D01*
X40638Y297678D01*
X36485Y297678D01*
X32953Y297678D02*
X30461Y290202D01*
X27969Y297678D01*
X44911Y238572D02*
X46988Y238572D01*
X44911Y238572D02*
X44822Y238574D01*
X44732Y238580D01*
X44644Y238589D01*
X44555Y238603D01*
X44468Y238620D01*
X44381Y238641D01*
X44295Y238666D01*
X44210Y238694D01*
X44127Y238726D01*
X44044Y238761D01*
X43964Y238800D01*
X43885Y238843D01*
X43809Y238889D01*
X43734Y238938D01*
X43661Y238990D01*
X43591Y239045D01*
X43523Y239103D01*
X43458Y239165D01*
X43396Y239228D01*
X43336Y239295D01*
X43279Y239364D01*
X43225Y239435D01*
X43175Y239509D01*
X43127Y239585D01*
X43083Y239663D01*
X43042Y239742D01*
X43005Y239823D01*
X42971Y239906D01*
X42941Y239990D01*
X42915Y240076D01*
X42892Y240162D01*
X42873Y240249D01*
X42858Y240337D01*
X42846Y240426D01*
X42838Y240515D01*
X42834Y240604D01*
X42834Y240694D01*
X42838Y240783D01*
X42846Y240872D01*
X42858Y240961D01*
X42873Y241049D01*
X42892Y241136D01*
X42915Y241222D01*
X42941Y241308D01*
X42971Y241392D01*
X43005Y241475D01*
X43042Y241556D01*
X43083Y241635D01*
X43127Y241713D01*
X43175Y241789D01*
X43225Y241863D01*
X43279Y241934D01*
X43336Y242003D01*
X43396Y242070D01*
X43458Y242133D01*
X43523Y242195D01*
X43591Y242253D01*
X43661Y242308D01*
X43734Y242360D01*
X43809Y242409D01*
X43885Y242455D01*
X43964Y242498D01*
X44044Y242537D01*
X44127Y242572D01*
X44210Y242604D01*
X44295Y242632D01*
X44381Y242657D01*
X44468Y242678D01*
X44555Y242695D01*
X44644Y242709D01*
X44732Y242718D01*
X44822Y242724D01*
X44911Y242726D01*
X44496Y246048D02*
X46988Y246048D01*
X44496Y246048D02*
X44416Y246046D01*
X44336Y246040D01*
X44256Y246031D01*
X44177Y246017D01*
X44098Y246000D01*
X44021Y245979D01*
X43945Y245954D01*
X43870Y245925D01*
X43796Y245893D01*
X43724Y245858D01*
X43654Y245819D01*
X43586Y245776D01*
X43520Y245731D01*
X43456Y245682D01*
X43395Y245630D01*
X43336Y245576D01*
X43280Y245518D01*
X43226Y245458D01*
X43176Y245395D01*
X43129Y245331D01*
X43085Y245263D01*
X43044Y245194D01*
X43007Y245123D01*
X42973Y245050D01*
X42943Y244976D01*
X42916Y244900D01*
X42893Y244823D01*
X42874Y244745D01*
X42859Y244667D01*
X42847Y244587D01*
X42839Y244507D01*
X42835Y244427D01*
X42835Y244347D01*
X42839Y244267D01*
X42847Y244187D01*
X42859Y244107D01*
X42874Y244029D01*
X42893Y243951D01*
X42916Y243874D01*
X42943Y243798D01*
X42973Y243724D01*
X43007Y243651D01*
X43044Y243580D01*
X43085Y243511D01*
X43129Y243443D01*
X43176Y243379D01*
X43226Y243316D01*
X43280Y243256D01*
X43336Y243198D01*
X43395Y243144D01*
X43456Y243092D01*
X43520Y243043D01*
X43586Y242998D01*
X43654Y242955D01*
X43724Y242916D01*
X43796Y242881D01*
X43870Y242849D01*
X43945Y242820D01*
X44021Y242795D01*
X44098Y242774D01*
X44177Y242757D01*
X44256Y242743D01*
X44336Y242734D01*
X44416Y242728D01*
X44496Y242726D01*
X44496Y242725D02*
X46157Y242725D01*
X39303Y246048D02*
X36811Y238572D01*
X34319Y246048D01*
X30788Y238572D02*
X28711Y238572D01*
X28622Y238574D01*
X28532Y238580D01*
X28444Y238589D01*
X28355Y238603D01*
X28268Y238620D01*
X28181Y238641D01*
X28095Y238666D01*
X28010Y238694D01*
X27927Y238726D01*
X27844Y238761D01*
X27764Y238800D01*
X27685Y238843D01*
X27609Y238889D01*
X27534Y238938D01*
X27461Y238990D01*
X27391Y239045D01*
X27323Y239103D01*
X27258Y239165D01*
X27196Y239228D01*
X27136Y239295D01*
X27079Y239364D01*
X27025Y239435D01*
X26975Y239509D01*
X26927Y239585D01*
X26883Y239663D01*
X26842Y239742D01*
X26805Y239823D01*
X26771Y239906D01*
X26741Y239990D01*
X26715Y240076D01*
X26692Y240162D01*
X26673Y240249D01*
X26658Y240337D01*
X26646Y240426D01*
X26638Y240515D01*
X26634Y240604D01*
X26634Y240694D01*
X26638Y240783D01*
X26646Y240872D01*
X26658Y240961D01*
X26673Y241049D01*
X26692Y241136D01*
X26715Y241222D01*
X26741Y241308D01*
X26771Y241392D01*
X26805Y241475D01*
X26842Y241556D01*
X26883Y241635D01*
X26927Y241713D01*
X26975Y241789D01*
X27025Y241863D01*
X27079Y241934D01*
X27136Y242003D01*
X27196Y242070D01*
X27258Y242133D01*
X27323Y242195D01*
X27391Y242253D01*
X27461Y242308D01*
X27534Y242360D01*
X27609Y242409D01*
X27685Y242455D01*
X27764Y242498D01*
X27844Y242537D01*
X27927Y242572D01*
X28010Y242604D01*
X28095Y242632D01*
X28181Y242657D01*
X28268Y242678D01*
X28355Y242695D01*
X28444Y242709D01*
X28532Y242718D01*
X28622Y242724D01*
X28711Y242726D01*
X28296Y246048D02*
X30788Y246048D01*
X28296Y246048D02*
X28216Y246046D01*
X28136Y246040D01*
X28056Y246031D01*
X27977Y246017D01*
X27898Y246000D01*
X27821Y245979D01*
X27745Y245954D01*
X27670Y245925D01*
X27596Y245893D01*
X27524Y245858D01*
X27454Y245819D01*
X27386Y245776D01*
X27320Y245731D01*
X27256Y245682D01*
X27195Y245630D01*
X27136Y245576D01*
X27080Y245518D01*
X27026Y245458D01*
X26976Y245395D01*
X26929Y245331D01*
X26885Y245263D01*
X26844Y245194D01*
X26807Y245123D01*
X26773Y245050D01*
X26743Y244976D01*
X26716Y244900D01*
X26693Y244823D01*
X26674Y244745D01*
X26659Y244667D01*
X26647Y244587D01*
X26639Y244507D01*
X26635Y244427D01*
X26635Y244347D01*
X26639Y244267D01*
X26647Y244187D01*
X26659Y244107D01*
X26674Y244029D01*
X26693Y243951D01*
X26716Y243874D01*
X26743Y243798D01*
X26773Y243724D01*
X26807Y243651D01*
X26844Y243580D01*
X26885Y243511D01*
X26929Y243443D01*
X26976Y243379D01*
X27026Y243316D01*
X27080Y243256D01*
X27136Y243198D01*
X27195Y243144D01*
X27256Y243092D01*
X27320Y243043D01*
X27386Y242998D01*
X27454Y242955D01*
X27524Y242916D01*
X27596Y242881D01*
X27670Y242849D01*
X27745Y242820D01*
X27821Y242795D01*
X27898Y242774D01*
X27977Y242757D01*
X28056Y242743D01*
X28136Y242734D01*
X28216Y242728D01*
X28296Y242726D01*
X28296Y242725D02*
X29957Y242725D01*
X42835Y268525D02*
X44081Y268525D01*
X42835Y268525D02*
X42835Y264372D01*
X45327Y264372D01*
X45406Y264374D01*
X45485Y264380D01*
X45563Y264389D01*
X45641Y264402D01*
X45719Y264419D01*
X45795Y264439D01*
X45870Y264463D01*
X45944Y264491D01*
X46017Y264522D01*
X46088Y264557D01*
X46158Y264595D01*
X46225Y264636D01*
X46290Y264680D01*
X46354Y264727D01*
X46415Y264778D01*
X46473Y264831D01*
X46529Y264887D01*
X46582Y264945D01*
X46633Y265006D01*
X46680Y265070D01*
X46724Y265135D01*
X46765Y265203D01*
X46803Y265272D01*
X46838Y265343D01*
X46869Y265416D01*
X46897Y265490D01*
X46921Y265565D01*
X46941Y265641D01*
X46958Y265719D01*
X46971Y265797D01*
X46980Y265875D01*
X46986Y265954D01*
X46988Y266033D01*
X46988Y270187D01*
X46986Y270266D01*
X46980Y270345D01*
X46971Y270423D01*
X46958Y270501D01*
X46941Y270579D01*
X46921Y270655D01*
X46897Y270730D01*
X46869Y270804D01*
X46838Y270877D01*
X46803Y270948D01*
X46765Y271018D01*
X46724Y271085D01*
X46680Y271150D01*
X46633Y271214D01*
X46582Y271275D01*
X46529Y271333D01*
X46473Y271389D01*
X46415Y271442D01*
X46354Y271493D01*
X46290Y271540D01*
X46225Y271584D01*
X46158Y271625D01*
X46088Y271663D01*
X46017Y271698D01*
X45944Y271729D01*
X45870Y271757D01*
X45795Y271781D01*
X45719Y271801D01*
X45641Y271818D01*
X45563Y271831D01*
X45485Y271840D01*
X45406Y271846D01*
X45327Y271848D01*
X42835Y271848D01*
X38348Y271848D02*
X38348Y264372D01*
X34195Y264372D02*
X38348Y271848D01*
X34195Y271848D02*
X34195Y264372D01*
X29708Y264372D02*
X29708Y271848D01*
X27631Y271848D01*
X27543Y271846D01*
X27455Y271841D01*
X27367Y271831D01*
X27280Y271818D01*
X27193Y271801D01*
X27108Y271781D01*
X27023Y271757D01*
X26939Y271729D01*
X26857Y271698D01*
X26775Y271664D01*
X26696Y271626D01*
X26618Y271584D01*
X26542Y271540D01*
X26468Y271492D01*
X26396Y271441D01*
X26326Y271387D01*
X26259Y271330D01*
X26194Y271271D01*
X26131Y271208D01*
X26072Y271143D01*
X26015Y271076D01*
X25961Y271006D01*
X25910Y270934D01*
X25862Y270860D01*
X25818Y270784D01*
X25776Y270706D01*
X25738Y270627D01*
X25704Y270545D01*
X25673Y270463D01*
X25645Y270379D01*
X25621Y270294D01*
X25601Y270209D01*
X25584Y270122D01*
X25571Y270035D01*
X25561Y269947D01*
X25556Y269859D01*
X25554Y269771D01*
X25555Y269771D02*
X25555Y266449D01*
X25554Y266449D02*
X25556Y266361D01*
X25561Y266273D01*
X25571Y266185D01*
X25584Y266098D01*
X25601Y266011D01*
X25621Y265926D01*
X25645Y265841D01*
X25673Y265757D01*
X25704Y265675D01*
X25738Y265593D01*
X25776Y265514D01*
X25818Y265436D01*
X25862Y265360D01*
X25910Y265286D01*
X25961Y265214D01*
X26015Y265144D01*
X26072Y265077D01*
X26131Y265012D01*
X26194Y264949D01*
X26259Y264890D01*
X26326Y264833D01*
X26396Y264779D01*
X26468Y264728D01*
X26542Y264680D01*
X26618Y264636D01*
X26696Y264594D01*
X26775Y264556D01*
X26857Y264522D01*
X26939Y264491D01*
X27023Y264463D01*
X27108Y264439D01*
X27193Y264419D01*
X27280Y264402D01*
X27367Y264389D01*
X27455Y264379D01*
X27543Y264374D01*
X27631Y264372D01*
X29708Y264372D01*
X52068Y195248D02*
X52068Y187772D01*
X52068Y195248D02*
X49991Y195248D01*
X49902Y195246D01*
X49812Y195240D01*
X49724Y195231D01*
X49635Y195217D01*
X49548Y195200D01*
X49461Y195179D01*
X49375Y195154D01*
X49290Y195126D01*
X49207Y195094D01*
X49124Y195059D01*
X49044Y195020D01*
X48965Y194977D01*
X48889Y194931D01*
X48814Y194882D01*
X48741Y194830D01*
X48671Y194775D01*
X48603Y194717D01*
X48538Y194655D01*
X48476Y194592D01*
X48416Y194525D01*
X48359Y194456D01*
X48305Y194385D01*
X48255Y194311D01*
X48207Y194235D01*
X48163Y194157D01*
X48122Y194078D01*
X48085Y193997D01*
X48051Y193914D01*
X48021Y193830D01*
X47995Y193744D01*
X47972Y193658D01*
X47953Y193571D01*
X47938Y193483D01*
X47926Y193394D01*
X47918Y193305D01*
X47914Y193216D01*
X47914Y193126D01*
X47918Y193037D01*
X47926Y192948D01*
X47938Y192859D01*
X47953Y192771D01*
X47972Y192684D01*
X47995Y192598D01*
X48021Y192512D01*
X48051Y192428D01*
X48085Y192345D01*
X48122Y192264D01*
X48163Y192185D01*
X48207Y192107D01*
X48255Y192031D01*
X48305Y191957D01*
X48359Y191886D01*
X48416Y191817D01*
X48476Y191750D01*
X48538Y191687D01*
X48603Y191625D01*
X48671Y191567D01*
X48741Y191512D01*
X48814Y191460D01*
X48889Y191411D01*
X48965Y191365D01*
X49044Y191322D01*
X49124Y191283D01*
X49207Y191248D01*
X49290Y191216D01*
X49375Y191188D01*
X49461Y191163D01*
X49548Y191142D01*
X49635Y191125D01*
X49724Y191111D01*
X49812Y191102D01*
X49902Y191096D01*
X49991Y191094D01*
X49991Y191095D02*
X52068Y191095D01*
X42141Y195248D02*
X42057Y195246D01*
X41973Y195240D01*
X41890Y195231D01*
X41807Y195218D01*
X41725Y195201D01*
X41644Y195181D01*
X41563Y195157D01*
X41484Y195129D01*
X41406Y195098D01*
X41330Y195063D01*
X41255Y195025D01*
X41182Y194983D01*
X41111Y194939D01*
X41042Y194891D01*
X40976Y194840D01*
X40911Y194786D01*
X40849Y194730D01*
X40790Y194671D01*
X40734Y194609D01*
X40680Y194544D01*
X40629Y194478D01*
X40581Y194409D01*
X40537Y194338D01*
X40495Y194265D01*
X40457Y194190D01*
X40422Y194114D01*
X40391Y194036D01*
X40363Y193957D01*
X40339Y193876D01*
X40319Y193795D01*
X40302Y193713D01*
X40289Y193630D01*
X40280Y193547D01*
X40274Y193463D01*
X40272Y193379D01*
X42141Y195248D02*
X42238Y195246D01*
X42336Y195240D01*
X42432Y195230D01*
X42529Y195216D01*
X42625Y195199D01*
X42720Y195177D01*
X42814Y195152D01*
X42907Y195123D01*
X42998Y195090D01*
X43089Y195053D01*
X43177Y195013D01*
X43264Y194969D01*
X43349Y194922D01*
X43433Y194871D01*
X43514Y194817D01*
X43592Y194760D01*
X43669Y194699D01*
X43743Y194636D01*
X43814Y194569D01*
X43882Y194500D01*
X43948Y194428D01*
X44011Y194354D01*
X44070Y194277D01*
X44126Y194197D01*
X44180Y194115D01*
X44229Y194032D01*
X44276Y193946D01*
X44318Y193859D01*
X44358Y193769D01*
X44393Y193679D01*
X44425Y193587D01*
X40894Y191925D02*
X40833Y191985D01*
X40775Y192048D01*
X40720Y192113D01*
X40668Y192181D01*
X40618Y192251D01*
X40571Y192323D01*
X40528Y192396D01*
X40488Y192472D01*
X40451Y192549D01*
X40417Y192628D01*
X40387Y192708D01*
X40360Y192789D01*
X40336Y192871D01*
X40316Y192954D01*
X40300Y193038D01*
X40287Y193123D01*
X40278Y193208D01*
X40273Y193293D01*
X40271Y193379D01*
X40895Y191925D02*
X44425Y187772D01*
X40272Y187772D01*
X36720Y186941D02*
X33397Y186941D01*
X25692Y193379D02*
X25694Y193463D01*
X25700Y193547D01*
X25709Y193630D01*
X25722Y193713D01*
X25739Y193795D01*
X25759Y193876D01*
X25783Y193957D01*
X25811Y194036D01*
X25842Y194114D01*
X25877Y194190D01*
X25915Y194265D01*
X25957Y194338D01*
X26001Y194409D01*
X26049Y194478D01*
X26100Y194544D01*
X26154Y194609D01*
X26210Y194671D01*
X26269Y194730D01*
X26331Y194786D01*
X26396Y194840D01*
X26462Y194891D01*
X26531Y194939D01*
X26602Y194983D01*
X26675Y195025D01*
X26750Y195063D01*
X26826Y195098D01*
X26904Y195129D01*
X26983Y195157D01*
X27064Y195181D01*
X27145Y195201D01*
X27227Y195218D01*
X27310Y195231D01*
X27393Y195240D01*
X27477Y195246D01*
X27561Y195248D01*
X27658Y195246D01*
X27756Y195240D01*
X27852Y195230D01*
X27949Y195216D01*
X28045Y195199D01*
X28140Y195177D01*
X28234Y195152D01*
X28327Y195123D01*
X28418Y195090D01*
X28509Y195053D01*
X28597Y195013D01*
X28684Y194969D01*
X28769Y194922D01*
X28853Y194871D01*
X28934Y194817D01*
X29012Y194760D01*
X29089Y194699D01*
X29163Y194636D01*
X29234Y194569D01*
X29302Y194500D01*
X29368Y194428D01*
X29431Y194354D01*
X29490Y194277D01*
X29546Y194197D01*
X29600Y194115D01*
X29649Y194032D01*
X29696Y193946D01*
X29738Y193859D01*
X29778Y193769D01*
X29813Y193679D01*
X29845Y193587D01*
X26314Y191925D02*
X26253Y191985D01*
X26195Y192048D01*
X26140Y192113D01*
X26088Y192181D01*
X26038Y192251D01*
X25991Y192323D01*
X25948Y192396D01*
X25908Y192472D01*
X25871Y192549D01*
X25837Y192628D01*
X25807Y192708D01*
X25780Y192789D01*
X25756Y192871D01*
X25736Y192954D01*
X25720Y193038D01*
X25707Y193123D01*
X25698Y193208D01*
X25693Y193293D01*
X25691Y193379D01*
X26315Y191925D02*
X29845Y187772D01*
X25692Y187772D01*
X52068Y169848D02*
X52068Y162372D01*
X52068Y169848D02*
X49991Y169848D01*
X49902Y169846D01*
X49812Y169840D01*
X49724Y169831D01*
X49635Y169817D01*
X49548Y169800D01*
X49461Y169779D01*
X49375Y169754D01*
X49290Y169726D01*
X49207Y169694D01*
X49124Y169659D01*
X49044Y169620D01*
X48965Y169577D01*
X48889Y169531D01*
X48814Y169482D01*
X48741Y169430D01*
X48671Y169375D01*
X48603Y169317D01*
X48538Y169255D01*
X48476Y169192D01*
X48416Y169125D01*
X48359Y169056D01*
X48305Y168985D01*
X48255Y168911D01*
X48207Y168835D01*
X48163Y168757D01*
X48122Y168678D01*
X48085Y168597D01*
X48051Y168514D01*
X48021Y168430D01*
X47995Y168344D01*
X47972Y168258D01*
X47953Y168171D01*
X47938Y168083D01*
X47926Y167994D01*
X47918Y167905D01*
X47914Y167816D01*
X47914Y167726D01*
X47918Y167637D01*
X47926Y167548D01*
X47938Y167459D01*
X47953Y167371D01*
X47972Y167284D01*
X47995Y167198D01*
X48021Y167112D01*
X48051Y167028D01*
X48085Y166945D01*
X48122Y166864D01*
X48163Y166785D01*
X48207Y166707D01*
X48255Y166631D01*
X48305Y166557D01*
X48359Y166486D01*
X48416Y166417D01*
X48476Y166350D01*
X48538Y166287D01*
X48603Y166225D01*
X48671Y166167D01*
X48741Y166112D01*
X48814Y166060D01*
X48889Y166011D01*
X48965Y165965D01*
X49044Y165922D01*
X49124Y165883D01*
X49207Y165848D01*
X49290Y165816D01*
X49375Y165788D01*
X49461Y165763D01*
X49548Y165742D01*
X49635Y165725D01*
X49724Y165711D01*
X49812Y165702D01*
X49902Y165696D01*
X49991Y165694D01*
X49991Y165695D02*
X52068Y165695D01*
X42141Y169848D02*
X42057Y169846D01*
X41973Y169840D01*
X41890Y169831D01*
X41807Y169818D01*
X41725Y169801D01*
X41644Y169781D01*
X41563Y169757D01*
X41484Y169729D01*
X41406Y169698D01*
X41330Y169663D01*
X41255Y169625D01*
X41182Y169583D01*
X41111Y169539D01*
X41042Y169491D01*
X40976Y169440D01*
X40911Y169386D01*
X40849Y169330D01*
X40790Y169271D01*
X40734Y169209D01*
X40680Y169144D01*
X40629Y169078D01*
X40581Y169009D01*
X40537Y168938D01*
X40495Y168865D01*
X40457Y168790D01*
X40422Y168714D01*
X40391Y168636D01*
X40363Y168557D01*
X40339Y168476D01*
X40319Y168395D01*
X40302Y168313D01*
X40289Y168230D01*
X40280Y168147D01*
X40274Y168063D01*
X40272Y167979D01*
X42141Y169848D02*
X42238Y169846D01*
X42336Y169840D01*
X42432Y169830D01*
X42529Y169816D01*
X42625Y169799D01*
X42720Y169777D01*
X42814Y169752D01*
X42907Y169723D01*
X42998Y169690D01*
X43089Y169653D01*
X43177Y169613D01*
X43264Y169569D01*
X43349Y169522D01*
X43433Y169471D01*
X43514Y169417D01*
X43592Y169360D01*
X43669Y169299D01*
X43743Y169236D01*
X43814Y169169D01*
X43882Y169100D01*
X43948Y169028D01*
X44011Y168954D01*
X44070Y168877D01*
X44126Y168797D01*
X44180Y168715D01*
X44229Y168632D01*
X44276Y168546D01*
X44318Y168459D01*
X44358Y168369D01*
X44393Y168279D01*
X44425Y168187D01*
X40894Y166525D02*
X40833Y166585D01*
X40775Y166648D01*
X40720Y166713D01*
X40668Y166781D01*
X40618Y166851D01*
X40571Y166923D01*
X40528Y166996D01*
X40488Y167072D01*
X40451Y167149D01*
X40417Y167228D01*
X40387Y167308D01*
X40360Y167389D01*
X40336Y167471D01*
X40316Y167554D01*
X40300Y167638D01*
X40287Y167723D01*
X40278Y167808D01*
X40273Y167893D01*
X40271Y167979D01*
X40895Y166525D02*
X44425Y162372D01*
X40272Y162372D01*
X36720Y161541D02*
X33397Y161541D01*
X29845Y168187D02*
X27768Y169848D01*
X27768Y162372D01*
X25692Y162372D02*
X29845Y162372D01*
X52068Y143178D02*
X52068Y135702D01*
X52068Y143178D02*
X49991Y143178D01*
X49902Y143176D01*
X49812Y143170D01*
X49724Y143161D01*
X49635Y143147D01*
X49548Y143130D01*
X49461Y143109D01*
X49375Y143084D01*
X49290Y143056D01*
X49207Y143024D01*
X49124Y142989D01*
X49044Y142950D01*
X48965Y142907D01*
X48889Y142861D01*
X48814Y142812D01*
X48741Y142760D01*
X48671Y142705D01*
X48603Y142647D01*
X48538Y142585D01*
X48476Y142522D01*
X48416Y142455D01*
X48359Y142386D01*
X48305Y142315D01*
X48255Y142241D01*
X48207Y142165D01*
X48163Y142087D01*
X48122Y142008D01*
X48085Y141927D01*
X48051Y141844D01*
X48021Y141760D01*
X47995Y141674D01*
X47972Y141588D01*
X47953Y141501D01*
X47938Y141413D01*
X47926Y141324D01*
X47918Y141235D01*
X47914Y141146D01*
X47914Y141056D01*
X47918Y140967D01*
X47926Y140878D01*
X47938Y140789D01*
X47953Y140701D01*
X47972Y140614D01*
X47995Y140528D01*
X48021Y140442D01*
X48051Y140358D01*
X48085Y140275D01*
X48122Y140194D01*
X48163Y140115D01*
X48207Y140037D01*
X48255Y139961D01*
X48305Y139887D01*
X48359Y139816D01*
X48416Y139747D01*
X48476Y139680D01*
X48538Y139617D01*
X48603Y139555D01*
X48671Y139497D01*
X48741Y139442D01*
X48814Y139390D01*
X48889Y139341D01*
X48965Y139295D01*
X49044Y139252D01*
X49124Y139213D01*
X49207Y139178D01*
X49290Y139146D01*
X49375Y139118D01*
X49461Y139093D01*
X49548Y139072D01*
X49635Y139055D01*
X49724Y139041D01*
X49812Y139032D01*
X49902Y139026D01*
X49991Y139024D01*
X49991Y139025D02*
X52068Y139025D01*
X42141Y143178D02*
X42057Y143176D01*
X41973Y143170D01*
X41890Y143161D01*
X41807Y143148D01*
X41725Y143131D01*
X41644Y143111D01*
X41563Y143087D01*
X41484Y143059D01*
X41406Y143028D01*
X41330Y142993D01*
X41255Y142955D01*
X41182Y142913D01*
X41111Y142869D01*
X41042Y142821D01*
X40976Y142770D01*
X40911Y142716D01*
X40849Y142660D01*
X40790Y142601D01*
X40734Y142539D01*
X40680Y142474D01*
X40629Y142408D01*
X40581Y142339D01*
X40537Y142268D01*
X40495Y142195D01*
X40457Y142120D01*
X40422Y142044D01*
X40391Y141966D01*
X40363Y141887D01*
X40339Y141806D01*
X40319Y141725D01*
X40302Y141643D01*
X40289Y141560D01*
X40280Y141477D01*
X40274Y141393D01*
X40272Y141309D01*
X42141Y143178D02*
X42238Y143176D01*
X42336Y143170D01*
X42432Y143160D01*
X42529Y143146D01*
X42625Y143129D01*
X42720Y143107D01*
X42814Y143082D01*
X42907Y143053D01*
X42998Y143020D01*
X43089Y142983D01*
X43177Y142943D01*
X43264Y142899D01*
X43349Y142852D01*
X43433Y142801D01*
X43514Y142747D01*
X43592Y142690D01*
X43669Y142629D01*
X43743Y142566D01*
X43814Y142499D01*
X43882Y142430D01*
X43948Y142358D01*
X44011Y142284D01*
X44070Y142207D01*
X44126Y142127D01*
X44180Y142045D01*
X44229Y141962D01*
X44276Y141876D01*
X44318Y141789D01*
X44358Y141699D01*
X44393Y141609D01*
X44425Y141517D01*
X40894Y139855D02*
X40833Y139915D01*
X40775Y139978D01*
X40720Y140043D01*
X40668Y140111D01*
X40618Y140181D01*
X40571Y140253D01*
X40528Y140326D01*
X40488Y140402D01*
X40451Y140479D01*
X40417Y140558D01*
X40387Y140638D01*
X40360Y140719D01*
X40336Y140801D01*
X40316Y140884D01*
X40300Y140968D01*
X40287Y141053D01*
X40278Y141138D01*
X40273Y141223D01*
X40271Y141309D01*
X40895Y139855D02*
X44425Y135702D01*
X40272Y135702D01*
X36720Y134871D02*
X33397Y134871D01*
X29845Y139440D02*
X29843Y139595D01*
X29837Y139750D01*
X29827Y139905D01*
X29814Y140060D01*
X29796Y140214D01*
X29775Y140368D01*
X29749Y140521D01*
X29720Y140674D01*
X29687Y140825D01*
X29650Y140976D01*
X29610Y141126D01*
X29565Y141275D01*
X29517Y141422D01*
X29466Y141569D01*
X29410Y141714D01*
X29351Y141857D01*
X29288Y141999D01*
X29222Y142140D01*
X29222Y142139D02*
X29195Y142211D01*
X29165Y142281D01*
X29132Y142350D01*
X29095Y142416D01*
X29055Y142481D01*
X29012Y142544D01*
X28965Y142605D01*
X28916Y142663D01*
X28864Y142719D01*
X28809Y142772D01*
X28752Y142822D01*
X28692Y142869D01*
X28630Y142913D01*
X28566Y142955D01*
X28500Y142993D01*
X28432Y143027D01*
X28362Y143058D01*
X28291Y143086D01*
X28219Y143110D01*
X28145Y143131D01*
X28071Y143148D01*
X27996Y143161D01*
X27920Y143170D01*
X27844Y143176D01*
X27768Y143178D01*
X27692Y143176D01*
X27616Y143170D01*
X27540Y143161D01*
X27465Y143148D01*
X27391Y143131D01*
X27317Y143110D01*
X27245Y143086D01*
X27174Y143058D01*
X27104Y143027D01*
X27036Y142993D01*
X26970Y142955D01*
X26906Y142913D01*
X26844Y142869D01*
X26784Y142822D01*
X26727Y142772D01*
X26672Y142719D01*
X26620Y142663D01*
X26571Y142605D01*
X26524Y142544D01*
X26481Y142481D01*
X26441Y142416D01*
X26404Y142350D01*
X26371Y142281D01*
X26341Y142211D01*
X26314Y142139D01*
X26314Y142140D02*
X26248Y141999D01*
X26185Y141857D01*
X26126Y141714D01*
X26070Y141569D01*
X26019Y141422D01*
X25971Y141275D01*
X25926Y141126D01*
X25886Y140976D01*
X25849Y140825D01*
X25816Y140674D01*
X25787Y140521D01*
X25761Y140368D01*
X25740Y140214D01*
X25722Y140060D01*
X25709Y139905D01*
X25699Y139750D01*
X25693Y139595D01*
X25691Y139440D01*
X29845Y139440D02*
X29843Y139285D01*
X29837Y139130D01*
X29827Y138975D01*
X29814Y138820D01*
X29796Y138666D01*
X29775Y138512D01*
X29749Y138359D01*
X29720Y138206D01*
X29687Y138055D01*
X29650Y137904D01*
X29610Y137754D01*
X29565Y137605D01*
X29517Y137458D01*
X29466Y137311D01*
X29410Y137166D01*
X29351Y137023D01*
X29288Y136881D01*
X29222Y136740D01*
X29222Y136741D02*
X29195Y136669D01*
X29165Y136599D01*
X29132Y136530D01*
X29095Y136464D01*
X29055Y136399D01*
X29012Y136336D01*
X28965Y136275D01*
X28916Y136217D01*
X28864Y136161D01*
X28809Y136108D01*
X28752Y136058D01*
X28692Y136011D01*
X28630Y135967D01*
X28566Y135925D01*
X28500Y135887D01*
X28432Y135853D01*
X28362Y135822D01*
X28291Y135794D01*
X28219Y135770D01*
X28145Y135749D01*
X28071Y135732D01*
X27996Y135719D01*
X27920Y135710D01*
X27844Y135704D01*
X27768Y135702D01*
X26315Y136740D02*
X26249Y136881D01*
X26186Y137023D01*
X26127Y137166D01*
X26071Y137311D01*
X26020Y137458D01*
X25972Y137605D01*
X25927Y137754D01*
X25887Y137904D01*
X25850Y138055D01*
X25817Y138206D01*
X25788Y138359D01*
X25762Y138512D01*
X25741Y138666D01*
X25723Y138820D01*
X25710Y138975D01*
X25700Y139130D01*
X25694Y139285D01*
X25692Y139440D01*
X26314Y136740D02*
X26341Y136669D01*
X26371Y136599D01*
X26404Y136530D01*
X26441Y136464D01*
X26481Y136399D01*
X26524Y136336D01*
X26571Y136275D01*
X26620Y136217D01*
X26672Y136161D01*
X26727Y136108D01*
X26784Y136058D01*
X26844Y136011D01*
X26906Y135967D01*
X26970Y135925D01*
X27036Y135887D01*
X27104Y135853D01*
X27174Y135822D01*
X27245Y135794D01*
X27317Y135770D01*
X27391Y135749D01*
X27465Y135732D01*
X27540Y135719D01*
X27616Y135710D01*
X27692Y135704D01*
X27768Y135702D01*
X29430Y137363D02*
X26107Y141517D01*
X52068Y119048D02*
X52068Y111572D01*
X52068Y119048D02*
X49991Y119048D01*
X49902Y119046D01*
X49812Y119040D01*
X49724Y119031D01*
X49635Y119017D01*
X49548Y119000D01*
X49461Y118979D01*
X49375Y118954D01*
X49290Y118926D01*
X49207Y118894D01*
X49124Y118859D01*
X49044Y118820D01*
X48965Y118777D01*
X48889Y118731D01*
X48814Y118682D01*
X48741Y118630D01*
X48671Y118575D01*
X48603Y118517D01*
X48538Y118455D01*
X48476Y118392D01*
X48416Y118325D01*
X48359Y118256D01*
X48305Y118185D01*
X48255Y118111D01*
X48207Y118035D01*
X48163Y117957D01*
X48122Y117878D01*
X48085Y117797D01*
X48051Y117714D01*
X48021Y117630D01*
X47995Y117544D01*
X47972Y117458D01*
X47953Y117371D01*
X47938Y117283D01*
X47926Y117194D01*
X47918Y117105D01*
X47914Y117016D01*
X47914Y116926D01*
X47918Y116837D01*
X47926Y116748D01*
X47938Y116659D01*
X47953Y116571D01*
X47972Y116484D01*
X47995Y116398D01*
X48021Y116312D01*
X48051Y116228D01*
X48085Y116145D01*
X48122Y116064D01*
X48163Y115985D01*
X48207Y115907D01*
X48255Y115831D01*
X48305Y115757D01*
X48359Y115686D01*
X48416Y115617D01*
X48476Y115550D01*
X48538Y115487D01*
X48603Y115425D01*
X48671Y115367D01*
X48741Y115312D01*
X48814Y115260D01*
X48889Y115211D01*
X48965Y115165D01*
X49044Y115122D01*
X49124Y115083D01*
X49207Y115048D01*
X49290Y115016D01*
X49375Y114988D01*
X49461Y114963D01*
X49548Y114942D01*
X49635Y114925D01*
X49724Y114911D01*
X49812Y114902D01*
X49902Y114896D01*
X49991Y114894D01*
X49991Y114895D02*
X52068Y114895D01*
X44425Y117387D02*
X42348Y119048D01*
X42348Y111572D01*
X40272Y111572D02*
X44425Y111572D01*
X36720Y110741D02*
X33397Y110741D01*
X29845Y118217D02*
X29845Y119048D01*
X25692Y119048D01*
X27768Y111572D01*
X52068Y93648D02*
X52068Y86172D01*
X52068Y93648D02*
X49991Y93648D01*
X49902Y93646D01*
X49812Y93640D01*
X49724Y93631D01*
X49635Y93617D01*
X49548Y93600D01*
X49461Y93579D01*
X49375Y93554D01*
X49290Y93526D01*
X49207Y93494D01*
X49124Y93459D01*
X49044Y93420D01*
X48965Y93377D01*
X48889Y93331D01*
X48814Y93282D01*
X48741Y93230D01*
X48671Y93175D01*
X48603Y93117D01*
X48538Y93055D01*
X48476Y92992D01*
X48416Y92925D01*
X48359Y92856D01*
X48305Y92785D01*
X48255Y92711D01*
X48207Y92635D01*
X48163Y92557D01*
X48122Y92478D01*
X48085Y92397D01*
X48051Y92314D01*
X48021Y92230D01*
X47995Y92144D01*
X47972Y92058D01*
X47953Y91971D01*
X47938Y91883D01*
X47926Y91794D01*
X47918Y91705D01*
X47914Y91616D01*
X47914Y91526D01*
X47918Y91437D01*
X47926Y91348D01*
X47938Y91259D01*
X47953Y91171D01*
X47972Y91084D01*
X47995Y90998D01*
X48021Y90912D01*
X48051Y90828D01*
X48085Y90745D01*
X48122Y90664D01*
X48163Y90585D01*
X48207Y90507D01*
X48255Y90431D01*
X48305Y90357D01*
X48359Y90286D01*
X48416Y90217D01*
X48476Y90150D01*
X48538Y90087D01*
X48603Y90025D01*
X48671Y89967D01*
X48741Y89912D01*
X48814Y89860D01*
X48889Y89811D01*
X48965Y89765D01*
X49044Y89722D01*
X49124Y89683D01*
X49207Y89648D01*
X49290Y89616D01*
X49375Y89588D01*
X49461Y89563D01*
X49548Y89542D01*
X49635Y89525D01*
X49724Y89511D01*
X49812Y89502D01*
X49902Y89496D01*
X49991Y89494D01*
X49991Y89495D02*
X52068Y89495D01*
X44425Y91987D02*
X42348Y93648D01*
X42348Y86172D01*
X40272Y86172D02*
X44425Y86172D01*
X36720Y85341D02*
X33397Y85341D01*
X29845Y90325D02*
X27353Y90325D01*
X27274Y90323D01*
X27195Y90317D01*
X27117Y90308D01*
X27039Y90295D01*
X26961Y90278D01*
X26885Y90258D01*
X26810Y90234D01*
X26736Y90206D01*
X26663Y90175D01*
X26592Y90140D01*
X26523Y90102D01*
X26455Y90061D01*
X26390Y90017D01*
X26326Y89970D01*
X26265Y89919D01*
X26207Y89866D01*
X26151Y89810D01*
X26098Y89752D01*
X26047Y89691D01*
X26000Y89627D01*
X25956Y89562D01*
X25915Y89495D01*
X25877Y89425D01*
X25842Y89354D01*
X25811Y89281D01*
X25783Y89207D01*
X25759Y89132D01*
X25739Y89056D01*
X25722Y88978D01*
X25709Y88900D01*
X25700Y88822D01*
X25694Y88743D01*
X25692Y88664D01*
X25692Y88249D01*
X25691Y88249D02*
X25693Y88160D01*
X25699Y88070D01*
X25708Y87982D01*
X25722Y87893D01*
X25739Y87806D01*
X25760Y87719D01*
X25785Y87633D01*
X25813Y87548D01*
X25845Y87465D01*
X25880Y87382D01*
X25919Y87302D01*
X25962Y87223D01*
X26008Y87147D01*
X26057Y87072D01*
X26109Y86999D01*
X26164Y86929D01*
X26222Y86861D01*
X26284Y86796D01*
X26347Y86734D01*
X26414Y86674D01*
X26483Y86617D01*
X26554Y86563D01*
X26628Y86513D01*
X26704Y86465D01*
X26782Y86421D01*
X26861Y86380D01*
X26942Y86343D01*
X27025Y86309D01*
X27109Y86279D01*
X27195Y86253D01*
X27281Y86230D01*
X27368Y86211D01*
X27456Y86196D01*
X27545Y86184D01*
X27634Y86176D01*
X27723Y86172D01*
X27813Y86172D01*
X27902Y86176D01*
X27991Y86184D01*
X28080Y86196D01*
X28168Y86211D01*
X28255Y86230D01*
X28341Y86253D01*
X28427Y86279D01*
X28511Y86309D01*
X28594Y86343D01*
X28675Y86380D01*
X28754Y86421D01*
X28832Y86465D01*
X28908Y86513D01*
X28982Y86563D01*
X29053Y86617D01*
X29122Y86674D01*
X29189Y86734D01*
X29252Y86796D01*
X29314Y86861D01*
X29372Y86929D01*
X29427Y86999D01*
X29479Y87072D01*
X29528Y87147D01*
X29574Y87223D01*
X29617Y87302D01*
X29656Y87382D01*
X29691Y87465D01*
X29723Y87548D01*
X29751Y87633D01*
X29776Y87719D01*
X29797Y87806D01*
X29814Y87893D01*
X29828Y87982D01*
X29837Y88070D01*
X29843Y88160D01*
X29845Y88249D01*
X29845Y90325D01*
X29843Y90438D01*
X29837Y90552D01*
X29828Y90665D01*
X29814Y90777D01*
X29797Y90890D01*
X29775Y91001D01*
X29751Y91112D01*
X29722Y91222D01*
X29689Y91330D01*
X29653Y91438D01*
X29613Y91544D01*
X29570Y91649D01*
X29523Y91752D01*
X29472Y91854D01*
X29419Y91954D01*
X29361Y92052D01*
X29301Y92147D01*
X29237Y92241D01*
X29170Y92333D01*
X29100Y92422D01*
X29027Y92509D01*
X28951Y92593D01*
X28872Y92675D01*
X28790Y92754D01*
X28706Y92830D01*
X28619Y92903D01*
X28530Y92973D01*
X28438Y93040D01*
X28345Y93104D01*
X28249Y93164D01*
X28151Y93222D01*
X28051Y93275D01*
X27949Y93326D01*
X27846Y93373D01*
X27741Y93416D01*
X27635Y93456D01*
X27527Y93492D01*
X27419Y93525D01*
X27309Y93554D01*
X27198Y93578D01*
X27087Y93600D01*
X26975Y93617D01*
X26862Y93631D01*
X26749Y93640D01*
X26636Y93646D01*
X26522Y93648D01*
X52068Y68248D02*
X52068Y60772D01*
X52068Y68248D02*
X49991Y68248D01*
X49902Y68246D01*
X49812Y68240D01*
X49724Y68231D01*
X49635Y68217D01*
X49548Y68200D01*
X49461Y68179D01*
X49375Y68154D01*
X49290Y68126D01*
X49207Y68094D01*
X49124Y68059D01*
X49044Y68020D01*
X48965Y67977D01*
X48889Y67931D01*
X48814Y67882D01*
X48741Y67830D01*
X48671Y67775D01*
X48603Y67717D01*
X48538Y67655D01*
X48476Y67592D01*
X48416Y67525D01*
X48359Y67456D01*
X48305Y67385D01*
X48255Y67311D01*
X48207Y67235D01*
X48163Y67157D01*
X48122Y67078D01*
X48085Y66997D01*
X48051Y66914D01*
X48021Y66830D01*
X47995Y66744D01*
X47972Y66658D01*
X47953Y66571D01*
X47938Y66483D01*
X47926Y66394D01*
X47918Y66305D01*
X47914Y66216D01*
X47914Y66126D01*
X47918Y66037D01*
X47926Y65948D01*
X47938Y65859D01*
X47953Y65771D01*
X47972Y65684D01*
X47995Y65598D01*
X48021Y65512D01*
X48051Y65428D01*
X48085Y65345D01*
X48122Y65264D01*
X48163Y65185D01*
X48207Y65107D01*
X48255Y65031D01*
X48305Y64957D01*
X48359Y64886D01*
X48416Y64817D01*
X48476Y64750D01*
X48538Y64687D01*
X48603Y64625D01*
X48671Y64567D01*
X48741Y64512D01*
X48814Y64460D01*
X48889Y64411D01*
X48965Y64365D01*
X49044Y64322D01*
X49124Y64283D01*
X49207Y64248D01*
X49290Y64216D01*
X49375Y64188D01*
X49461Y64163D01*
X49548Y64142D01*
X49635Y64125D01*
X49724Y64111D01*
X49812Y64102D01*
X49902Y64096D01*
X49991Y64094D01*
X49991Y64095D02*
X52068Y64095D01*
X44425Y66587D02*
X42348Y68248D01*
X42348Y60772D01*
X40272Y60772D02*
X44425Y60772D01*
X36720Y59941D02*
X33397Y59941D01*
X29845Y60772D02*
X27353Y60772D01*
X27274Y60774D01*
X27195Y60780D01*
X27117Y60789D01*
X27039Y60802D01*
X26961Y60819D01*
X26885Y60839D01*
X26810Y60863D01*
X26736Y60891D01*
X26663Y60922D01*
X26592Y60957D01*
X26522Y60995D01*
X26455Y61036D01*
X26390Y61080D01*
X26326Y61127D01*
X26265Y61178D01*
X26207Y61231D01*
X26151Y61287D01*
X26098Y61345D01*
X26047Y61406D01*
X26000Y61470D01*
X25956Y61535D01*
X25915Y61603D01*
X25877Y61672D01*
X25842Y61743D01*
X25811Y61816D01*
X25783Y61890D01*
X25759Y61965D01*
X25739Y62041D01*
X25722Y62119D01*
X25709Y62197D01*
X25700Y62275D01*
X25694Y62354D01*
X25692Y62433D01*
X25692Y63264D01*
X25694Y63343D01*
X25700Y63422D01*
X25709Y63500D01*
X25722Y63578D01*
X25739Y63656D01*
X25759Y63732D01*
X25783Y63807D01*
X25811Y63881D01*
X25842Y63954D01*
X25877Y64025D01*
X25915Y64095D01*
X25956Y64162D01*
X26000Y64227D01*
X26047Y64291D01*
X26098Y64352D01*
X26151Y64410D01*
X26207Y64466D01*
X26265Y64519D01*
X26326Y64570D01*
X26390Y64617D01*
X26455Y64661D01*
X26523Y64702D01*
X26592Y64740D01*
X26663Y64775D01*
X26736Y64806D01*
X26810Y64834D01*
X26885Y64858D01*
X26961Y64878D01*
X27039Y64895D01*
X27117Y64908D01*
X27195Y64917D01*
X27274Y64923D01*
X27353Y64925D01*
X29845Y64925D01*
X29845Y68248D01*
X25692Y68248D01*
X52068Y42848D02*
X52068Y35372D01*
X52068Y42848D02*
X49991Y42848D01*
X49902Y42846D01*
X49812Y42840D01*
X49724Y42831D01*
X49635Y42817D01*
X49548Y42800D01*
X49461Y42779D01*
X49375Y42754D01*
X49290Y42726D01*
X49207Y42694D01*
X49124Y42659D01*
X49044Y42620D01*
X48965Y42577D01*
X48889Y42531D01*
X48814Y42482D01*
X48741Y42430D01*
X48671Y42375D01*
X48603Y42317D01*
X48538Y42255D01*
X48476Y42192D01*
X48416Y42125D01*
X48359Y42056D01*
X48305Y41985D01*
X48255Y41911D01*
X48207Y41835D01*
X48163Y41757D01*
X48122Y41678D01*
X48085Y41597D01*
X48051Y41514D01*
X48021Y41430D01*
X47995Y41344D01*
X47972Y41258D01*
X47953Y41171D01*
X47938Y41083D01*
X47926Y40994D01*
X47918Y40905D01*
X47914Y40816D01*
X47914Y40726D01*
X47918Y40637D01*
X47926Y40548D01*
X47938Y40459D01*
X47953Y40371D01*
X47972Y40284D01*
X47995Y40198D01*
X48021Y40112D01*
X48051Y40028D01*
X48085Y39945D01*
X48122Y39864D01*
X48163Y39785D01*
X48207Y39707D01*
X48255Y39631D01*
X48305Y39557D01*
X48359Y39486D01*
X48416Y39417D01*
X48476Y39350D01*
X48538Y39287D01*
X48603Y39225D01*
X48671Y39167D01*
X48741Y39112D01*
X48814Y39060D01*
X48889Y39011D01*
X48965Y38965D01*
X49044Y38922D01*
X49124Y38883D01*
X49207Y38848D01*
X49290Y38816D01*
X49375Y38788D01*
X49461Y38763D01*
X49548Y38742D01*
X49635Y38725D01*
X49724Y38711D01*
X49812Y38702D01*
X49902Y38696D01*
X49991Y38694D01*
X49991Y38695D02*
X52068Y38695D01*
X44425Y41187D02*
X42348Y42848D01*
X42348Y35372D01*
X40272Y35372D02*
X44425Y35372D01*
X36720Y34541D02*
X33397Y34541D01*
X29845Y37033D02*
X28184Y42848D01*
X29845Y37033D02*
X25692Y37033D01*
X26938Y35372D02*
X26938Y38695D01*
X52068Y17448D02*
X52068Y9972D01*
X52068Y17448D02*
X49991Y17448D01*
X49902Y17446D01*
X49812Y17440D01*
X49724Y17431D01*
X49635Y17417D01*
X49548Y17400D01*
X49461Y17379D01*
X49375Y17354D01*
X49290Y17326D01*
X49207Y17294D01*
X49124Y17259D01*
X49044Y17220D01*
X48965Y17177D01*
X48889Y17131D01*
X48814Y17082D01*
X48741Y17030D01*
X48671Y16975D01*
X48603Y16917D01*
X48538Y16855D01*
X48476Y16792D01*
X48416Y16725D01*
X48359Y16656D01*
X48305Y16585D01*
X48255Y16511D01*
X48207Y16435D01*
X48163Y16357D01*
X48122Y16278D01*
X48085Y16197D01*
X48051Y16114D01*
X48021Y16030D01*
X47995Y15944D01*
X47972Y15858D01*
X47953Y15771D01*
X47938Y15683D01*
X47926Y15594D01*
X47918Y15505D01*
X47914Y15416D01*
X47914Y15326D01*
X47918Y15237D01*
X47926Y15148D01*
X47938Y15059D01*
X47953Y14971D01*
X47972Y14884D01*
X47995Y14798D01*
X48021Y14712D01*
X48051Y14628D01*
X48085Y14545D01*
X48122Y14464D01*
X48163Y14385D01*
X48207Y14307D01*
X48255Y14231D01*
X48305Y14157D01*
X48359Y14086D01*
X48416Y14017D01*
X48476Y13950D01*
X48538Y13887D01*
X48603Y13825D01*
X48671Y13767D01*
X48741Y13712D01*
X48814Y13660D01*
X48889Y13611D01*
X48965Y13565D01*
X49044Y13522D01*
X49124Y13483D01*
X49207Y13448D01*
X49290Y13416D01*
X49375Y13388D01*
X49461Y13363D01*
X49548Y13342D01*
X49635Y13325D01*
X49724Y13311D01*
X49812Y13302D01*
X49902Y13296D01*
X49991Y13294D01*
X49991Y13295D02*
X52068Y13295D01*
X44425Y15787D02*
X42348Y17448D01*
X42348Y9972D01*
X40272Y9972D02*
X44425Y9972D01*
X36720Y9141D02*
X33397Y9141D01*
X29845Y9972D02*
X27768Y9972D01*
X27679Y9974D01*
X27589Y9980D01*
X27501Y9989D01*
X27412Y10003D01*
X27325Y10020D01*
X27238Y10041D01*
X27152Y10066D01*
X27067Y10094D01*
X26984Y10126D01*
X26901Y10161D01*
X26821Y10200D01*
X26742Y10243D01*
X26666Y10289D01*
X26591Y10338D01*
X26518Y10390D01*
X26448Y10445D01*
X26380Y10503D01*
X26315Y10565D01*
X26253Y10628D01*
X26193Y10695D01*
X26136Y10764D01*
X26082Y10835D01*
X26032Y10909D01*
X25984Y10985D01*
X25940Y11063D01*
X25899Y11142D01*
X25862Y11223D01*
X25828Y11306D01*
X25798Y11390D01*
X25772Y11476D01*
X25749Y11562D01*
X25730Y11649D01*
X25715Y11737D01*
X25703Y11826D01*
X25695Y11915D01*
X25691Y12004D01*
X25691Y12094D01*
X25695Y12183D01*
X25703Y12272D01*
X25715Y12361D01*
X25730Y12449D01*
X25749Y12536D01*
X25772Y12622D01*
X25798Y12708D01*
X25828Y12792D01*
X25862Y12875D01*
X25899Y12956D01*
X25940Y13035D01*
X25984Y13113D01*
X26032Y13189D01*
X26082Y13263D01*
X26136Y13334D01*
X26193Y13403D01*
X26253Y13470D01*
X26315Y13533D01*
X26380Y13595D01*
X26448Y13653D01*
X26518Y13708D01*
X26591Y13760D01*
X26666Y13809D01*
X26742Y13855D01*
X26821Y13898D01*
X26901Y13937D01*
X26984Y13972D01*
X27067Y14004D01*
X27152Y14032D01*
X27238Y14057D01*
X27325Y14078D01*
X27412Y14095D01*
X27501Y14109D01*
X27589Y14118D01*
X27679Y14124D01*
X27768Y14126D01*
X27353Y17448D02*
X29845Y17448D01*
X27353Y17448D02*
X27273Y17446D01*
X27193Y17440D01*
X27113Y17431D01*
X27034Y17417D01*
X26955Y17400D01*
X26878Y17379D01*
X26802Y17354D01*
X26727Y17325D01*
X26653Y17293D01*
X26581Y17258D01*
X26511Y17219D01*
X26443Y17176D01*
X26377Y17131D01*
X26313Y17082D01*
X26252Y17030D01*
X26193Y16976D01*
X26137Y16918D01*
X26083Y16858D01*
X26033Y16795D01*
X25986Y16731D01*
X25942Y16663D01*
X25901Y16594D01*
X25864Y16523D01*
X25830Y16450D01*
X25800Y16376D01*
X25773Y16300D01*
X25750Y16223D01*
X25731Y16145D01*
X25716Y16067D01*
X25704Y15987D01*
X25696Y15907D01*
X25692Y15827D01*
X25692Y15747D01*
X25696Y15667D01*
X25704Y15587D01*
X25716Y15507D01*
X25731Y15429D01*
X25750Y15351D01*
X25773Y15274D01*
X25800Y15198D01*
X25830Y15124D01*
X25864Y15051D01*
X25901Y14980D01*
X25942Y14911D01*
X25986Y14843D01*
X26033Y14779D01*
X26083Y14716D01*
X26137Y14656D01*
X26193Y14598D01*
X26252Y14544D01*
X26313Y14492D01*
X26377Y14443D01*
X26443Y14398D01*
X26511Y14355D01*
X26581Y14316D01*
X26653Y14281D01*
X26727Y14249D01*
X26802Y14220D01*
X26878Y14195D01*
X26955Y14174D01*
X27034Y14157D01*
X27113Y14143D01*
X27193Y14134D01*
X27273Y14128D01*
X27353Y14126D01*
X27353Y14125D02*
X29014Y14125D01*
X46988Y213172D02*
X46988Y220648D01*
X44911Y220648D01*
X44822Y220646D01*
X44732Y220640D01*
X44644Y220631D01*
X44555Y220617D01*
X44468Y220600D01*
X44381Y220579D01*
X44295Y220554D01*
X44210Y220526D01*
X44127Y220494D01*
X44044Y220459D01*
X43964Y220420D01*
X43885Y220377D01*
X43809Y220331D01*
X43734Y220282D01*
X43661Y220230D01*
X43591Y220175D01*
X43523Y220117D01*
X43458Y220055D01*
X43396Y219992D01*
X43336Y219925D01*
X43279Y219856D01*
X43225Y219785D01*
X43175Y219711D01*
X43127Y219635D01*
X43083Y219557D01*
X43042Y219478D01*
X43005Y219397D01*
X42971Y219314D01*
X42941Y219230D01*
X42915Y219144D01*
X42892Y219058D01*
X42873Y218971D01*
X42858Y218883D01*
X42846Y218794D01*
X42838Y218705D01*
X42834Y218616D01*
X42834Y218526D01*
X42838Y218437D01*
X42846Y218348D01*
X42858Y218259D01*
X42873Y218171D01*
X42892Y218084D01*
X42915Y217998D01*
X42941Y217912D01*
X42971Y217828D01*
X43005Y217745D01*
X43042Y217664D01*
X43083Y217585D01*
X43127Y217507D01*
X43175Y217431D01*
X43225Y217357D01*
X43279Y217286D01*
X43336Y217217D01*
X43396Y217150D01*
X43458Y217087D01*
X43523Y217025D01*
X43591Y216967D01*
X43661Y216912D01*
X43734Y216860D01*
X43809Y216811D01*
X43885Y216765D01*
X43964Y216722D01*
X44044Y216683D01*
X44127Y216648D01*
X44210Y216616D01*
X44295Y216588D01*
X44381Y216563D01*
X44468Y216542D01*
X44555Y216525D01*
X44644Y216511D01*
X44732Y216502D01*
X44822Y216496D01*
X44911Y216494D01*
X44911Y216495D02*
X46988Y216495D01*
X44496Y216495D02*
X42835Y213172D01*
X36747Y213172D02*
X36668Y213174D01*
X36589Y213180D01*
X36511Y213189D01*
X36433Y213202D01*
X36355Y213219D01*
X36279Y213239D01*
X36204Y213263D01*
X36130Y213291D01*
X36057Y213322D01*
X35986Y213357D01*
X35917Y213395D01*
X35849Y213436D01*
X35784Y213480D01*
X35720Y213527D01*
X35659Y213578D01*
X35601Y213631D01*
X35545Y213687D01*
X35492Y213745D01*
X35441Y213806D01*
X35394Y213870D01*
X35350Y213935D01*
X35309Y214003D01*
X35271Y214072D01*
X35236Y214143D01*
X35205Y214216D01*
X35177Y214290D01*
X35153Y214365D01*
X35133Y214441D01*
X35116Y214519D01*
X35103Y214597D01*
X35094Y214675D01*
X35088Y214754D01*
X35086Y214833D01*
X36747Y213172D02*
X36862Y213174D01*
X36978Y213180D01*
X37093Y213189D01*
X37208Y213202D01*
X37322Y213219D01*
X37435Y213240D01*
X37548Y213265D01*
X37660Y213293D01*
X37771Y213325D01*
X37881Y213360D01*
X37990Y213399D01*
X38097Y213442D01*
X38203Y213488D01*
X38307Y213538D01*
X38410Y213591D01*
X38510Y213647D01*
X38609Y213707D01*
X38706Y213770D01*
X38801Y213836D01*
X38893Y213905D01*
X38984Y213977D01*
X39071Y214052D01*
X39157Y214130D01*
X39239Y214210D01*
X39031Y218987D02*
X39029Y219066D01*
X39023Y219145D01*
X39014Y219223D01*
X39001Y219301D01*
X38984Y219379D01*
X38964Y219455D01*
X38940Y219530D01*
X38912Y219604D01*
X38881Y219677D01*
X38846Y219748D01*
X38808Y219818D01*
X38767Y219885D01*
X38723Y219950D01*
X38676Y220014D01*
X38625Y220075D01*
X38572Y220133D01*
X38516Y220189D01*
X38458Y220242D01*
X38397Y220293D01*
X38333Y220340D01*
X38268Y220384D01*
X38201Y220425D01*
X38131Y220463D01*
X38060Y220498D01*
X37987Y220529D01*
X37913Y220557D01*
X37838Y220581D01*
X37762Y220601D01*
X37684Y220618D01*
X37606Y220631D01*
X37528Y220640D01*
X37449Y220646D01*
X37370Y220648D01*
X37265Y220646D01*
X37159Y220641D01*
X37054Y220632D01*
X36949Y220619D01*
X36845Y220603D01*
X36741Y220584D01*
X36638Y220561D01*
X36536Y220534D01*
X36435Y220504D01*
X36335Y220471D01*
X36236Y220434D01*
X36139Y220394D01*
X36042Y220351D01*
X35948Y220304D01*
X35855Y220255D01*
X35763Y220202D01*
X35674Y220146D01*
X35586Y220087D01*
X35501Y220025D01*
X38201Y217534D02*
X38268Y217576D01*
X38334Y217621D01*
X38397Y217669D01*
X38458Y217720D01*
X38517Y217774D01*
X38572Y217831D01*
X38626Y217890D01*
X38676Y217952D01*
X38723Y218016D01*
X38768Y218082D01*
X38809Y218150D01*
X38847Y218220D01*
X38881Y218292D01*
X38912Y218365D01*
X38940Y218440D01*
X38964Y218516D01*
X38984Y218593D01*
X39001Y218670D01*
X39014Y218749D01*
X39023Y218828D01*
X39029Y218907D01*
X39031Y218987D01*
X35917Y216286D02*
X35849Y216244D01*
X35783Y216199D01*
X35720Y216151D01*
X35659Y216100D01*
X35600Y216046D01*
X35545Y215989D01*
X35491Y215930D01*
X35441Y215868D01*
X35394Y215804D01*
X35349Y215738D01*
X35308Y215670D01*
X35270Y215600D01*
X35236Y215528D01*
X35205Y215455D01*
X35177Y215380D01*
X35153Y215304D01*
X35133Y215227D01*
X35116Y215150D01*
X35103Y215071D01*
X35094Y214992D01*
X35088Y214913D01*
X35086Y214833D01*
X35917Y216287D02*
X38201Y217533D01*
X29873Y220648D02*
X29873Y213172D01*
X31949Y220648D02*
X27796Y220648D01*
X201928Y262702D02*
X201928Y270178D01*
X199851Y270178D01*
X199762Y270176D01*
X199672Y270170D01*
X199584Y270161D01*
X199495Y270147D01*
X199408Y270130D01*
X199321Y270109D01*
X199235Y270084D01*
X199150Y270056D01*
X199067Y270024D01*
X198984Y269989D01*
X198904Y269950D01*
X198825Y269907D01*
X198749Y269861D01*
X198674Y269812D01*
X198601Y269760D01*
X198531Y269705D01*
X198463Y269647D01*
X198398Y269585D01*
X198336Y269522D01*
X198276Y269455D01*
X198219Y269386D01*
X198165Y269315D01*
X198115Y269241D01*
X198067Y269165D01*
X198023Y269087D01*
X197982Y269008D01*
X197945Y268927D01*
X197911Y268844D01*
X197881Y268760D01*
X197855Y268674D01*
X197832Y268588D01*
X197813Y268501D01*
X197798Y268413D01*
X197786Y268324D01*
X197778Y268235D01*
X197774Y268146D01*
X197774Y268056D01*
X197778Y267967D01*
X197786Y267878D01*
X197798Y267789D01*
X197813Y267701D01*
X197832Y267614D01*
X197855Y267528D01*
X197881Y267442D01*
X197911Y267358D01*
X197945Y267275D01*
X197982Y267194D01*
X198023Y267115D01*
X198067Y267037D01*
X198115Y266961D01*
X198165Y266887D01*
X198219Y266816D01*
X198276Y266747D01*
X198336Y266680D01*
X198398Y266617D01*
X198463Y266555D01*
X198531Y266497D01*
X198601Y266442D01*
X198674Y266390D01*
X198749Y266341D01*
X198825Y266295D01*
X198904Y266252D01*
X198984Y266213D01*
X199067Y266178D01*
X199150Y266146D01*
X199235Y266118D01*
X199321Y266093D01*
X199408Y266072D01*
X199495Y266055D01*
X199584Y266041D01*
X199672Y266032D01*
X199762Y266026D01*
X199851Y266024D01*
X199851Y266025D02*
X201928Y266025D01*
X194285Y266440D02*
X194283Y266595D01*
X194277Y266750D01*
X194267Y266905D01*
X194254Y267060D01*
X194236Y267214D01*
X194215Y267368D01*
X194189Y267521D01*
X194160Y267674D01*
X194127Y267825D01*
X194090Y267976D01*
X194050Y268126D01*
X194005Y268275D01*
X193957Y268422D01*
X193906Y268569D01*
X193850Y268714D01*
X193791Y268857D01*
X193728Y268999D01*
X193662Y269140D01*
X193662Y269139D02*
X193635Y269211D01*
X193605Y269281D01*
X193572Y269350D01*
X193535Y269416D01*
X193495Y269481D01*
X193452Y269544D01*
X193405Y269605D01*
X193356Y269663D01*
X193304Y269719D01*
X193249Y269772D01*
X193192Y269822D01*
X193132Y269869D01*
X193070Y269913D01*
X193006Y269955D01*
X192940Y269993D01*
X192872Y270027D01*
X192802Y270058D01*
X192731Y270086D01*
X192659Y270110D01*
X192585Y270131D01*
X192511Y270148D01*
X192436Y270161D01*
X192360Y270170D01*
X192284Y270176D01*
X192208Y270178D01*
X192132Y270176D01*
X192056Y270170D01*
X191980Y270161D01*
X191905Y270148D01*
X191831Y270131D01*
X191757Y270110D01*
X191685Y270086D01*
X191614Y270058D01*
X191544Y270027D01*
X191476Y269993D01*
X191410Y269955D01*
X191346Y269913D01*
X191284Y269869D01*
X191224Y269822D01*
X191167Y269772D01*
X191112Y269719D01*
X191060Y269663D01*
X191011Y269605D01*
X190964Y269544D01*
X190921Y269481D01*
X190881Y269416D01*
X190844Y269350D01*
X190811Y269281D01*
X190781Y269211D01*
X190754Y269139D01*
X190754Y269140D02*
X190688Y268999D01*
X190625Y268857D01*
X190566Y268714D01*
X190510Y268569D01*
X190459Y268422D01*
X190411Y268275D01*
X190366Y268126D01*
X190326Y267976D01*
X190289Y267825D01*
X190256Y267674D01*
X190227Y267521D01*
X190201Y267368D01*
X190180Y267214D01*
X190162Y267060D01*
X190149Y266905D01*
X190139Y266750D01*
X190133Y266595D01*
X190131Y266440D01*
X194285Y266440D02*
X194283Y266285D01*
X194277Y266130D01*
X194267Y265975D01*
X194254Y265820D01*
X194236Y265666D01*
X194215Y265512D01*
X194189Y265359D01*
X194160Y265206D01*
X194127Y265055D01*
X194090Y264904D01*
X194050Y264754D01*
X194005Y264605D01*
X193957Y264458D01*
X193906Y264311D01*
X193850Y264166D01*
X193791Y264023D01*
X193728Y263881D01*
X193662Y263740D01*
X193662Y263741D02*
X193635Y263669D01*
X193605Y263599D01*
X193572Y263530D01*
X193535Y263464D01*
X193495Y263399D01*
X193452Y263336D01*
X193405Y263275D01*
X193356Y263217D01*
X193304Y263161D01*
X193249Y263108D01*
X193192Y263058D01*
X193132Y263011D01*
X193070Y262967D01*
X193006Y262925D01*
X192940Y262887D01*
X192872Y262853D01*
X192802Y262822D01*
X192731Y262794D01*
X192659Y262770D01*
X192585Y262749D01*
X192511Y262732D01*
X192436Y262719D01*
X192360Y262710D01*
X192284Y262704D01*
X192208Y262702D01*
X190755Y263740D02*
X190689Y263881D01*
X190626Y264023D01*
X190567Y264166D01*
X190511Y264311D01*
X190460Y264458D01*
X190412Y264605D01*
X190367Y264754D01*
X190327Y264904D01*
X190290Y265055D01*
X190257Y265206D01*
X190228Y265359D01*
X190202Y265512D01*
X190181Y265666D01*
X190163Y265820D01*
X190150Y265975D01*
X190140Y266130D01*
X190134Y266285D01*
X190132Y266440D01*
X190754Y263740D02*
X190781Y263669D01*
X190811Y263599D01*
X190844Y263530D01*
X190881Y263464D01*
X190921Y263399D01*
X190964Y263336D01*
X191011Y263275D01*
X191060Y263217D01*
X191112Y263161D01*
X191167Y263108D01*
X191224Y263058D01*
X191284Y263011D01*
X191346Y262967D01*
X191410Y262925D01*
X191476Y262887D01*
X191544Y262853D01*
X191614Y262822D01*
X191685Y262794D01*
X191757Y262770D01*
X191831Y262749D01*
X191905Y262732D01*
X191980Y262719D01*
X192056Y262710D01*
X192132Y262704D01*
X192208Y262702D01*
X193870Y264363D02*
X190547Y268517D01*
X186580Y261871D02*
X183257Y261871D01*
X179705Y266440D02*
X179703Y266595D01*
X179697Y266750D01*
X179687Y266905D01*
X179674Y267060D01*
X179656Y267214D01*
X179635Y267368D01*
X179609Y267521D01*
X179580Y267674D01*
X179547Y267825D01*
X179510Y267976D01*
X179470Y268126D01*
X179425Y268275D01*
X179377Y268422D01*
X179326Y268569D01*
X179270Y268714D01*
X179211Y268857D01*
X179148Y268999D01*
X179082Y269140D01*
X179082Y269139D02*
X179055Y269211D01*
X179025Y269281D01*
X178992Y269350D01*
X178955Y269416D01*
X178915Y269481D01*
X178872Y269544D01*
X178825Y269605D01*
X178776Y269663D01*
X178724Y269719D01*
X178669Y269772D01*
X178612Y269822D01*
X178552Y269869D01*
X178490Y269913D01*
X178426Y269955D01*
X178360Y269993D01*
X178292Y270027D01*
X178222Y270058D01*
X178151Y270086D01*
X178079Y270110D01*
X178005Y270131D01*
X177931Y270148D01*
X177856Y270161D01*
X177780Y270170D01*
X177704Y270176D01*
X177628Y270178D01*
X177552Y270176D01*
X177476Y270170D01*
X177400Y270161D01*
X177325Y270148D01*
X177251Y270131D01*
X177177Y270110D01*
X177105Y270086D01*
X177034Y270058D01*
X176964Y270027D01*
X176896Y269993D01*
X176830Y269955D01*
X176766Y269913D01*
X176704Y269869D01*
X176644Y269822D01*
X176587Y269772D01*
X176532Y269719D01*
X176480Y269663D01*
X176431Y269605D01*
X176384Y269544D01*
X176341Y269481D01*
X176301Y269416D01*
X176264Y269350D01*
X176231Y269281D01*
X176201Y269211D01*
X176174Y269139D01*
X176174Y269140D02*
X176108Y268999D01*
X176045Y268857D01*
X175986Y268714D01*
X175930Y268569D01*
X175879Y268422D01*
X175831Y268275D01*
X175786Y268126D01*
X175746Y267976D01*
X175709Y267825D01*
X175676Y267674D01*
X175647Y267521D01*
X175621Y267368D01*
X175600Y267214D01*
X175582Y267060D01*
X175569Y266905D01*
X175559Y266750D01*
X175553Y266595D01*
X175551Y266440D01*
X179705Y266440D02*
X179703Y266285D01*
X179697Y266130D01*
X179687Y265975D01*
X179674Y265820D01*
X179656Y265666D01*
X179635Y265512D01*
X179609Y265359D01*
X179580Y265206D01*
X179547Y265055D01*
X179510Y264904D01*
X179470Y264754D01*
X179425Y264605D01*
X179377Y264458D01*
X179326Y264311D01*
X179270Y264166D01*
X179211Y264023D01*
X179148Y263881D01*
X179082Y263740D01*
X179082Y263741D02*
X179055Y263669D01*
X179025Y263599D01*
X178992Y263530D01*
X178955Y263464D01*
X178915Y263399D01*
X178872Y263336D01*
X178825Y263275D01*
X178776Y263217D01*
X178724Y263161D01*
X178669Y263108D01*
X178612Y263058D01*
X178552Y263011D01*
X178490Y262967D01*
X178426Y262925D01*
X178360Y262887D01*
X178292Y262853D01*
X178222Y262822D01*
X178151Y262794D01*
X178079Y262770D01*
X178005Y262749D01*
X177931Y262732D01*
X177856Y262719D01*
X177780Y262710D01*
X177704Y262704D01*
X177628Y262702D01*
X176175Y263740D02*
X176109Y263881D01*
X176046Y264023D01*
X175987Y264166D01*
X175931Y264311D01*
X175880Y264458D01*
X175832Y264605D01*
X175787Y264754D01*
X175747Y264904D01*
X175710Y265055D01*
X175677Y265206D01*
X175648Y265359D01*
X175622Y265512D01*
X175601Y265666D01*
X175583Y265820D01*
X175570Y265975D01*
X175560Y266130D01*
X175554Y266285D01*
X175552Y266440D01*
X176174Y263740D02*
X176201Y263669D01*
X176231Y263599D01*
X176264Y263530D01*
X176301Y263464D01*
X176341Y263399D01*
X176384Y263336D01*
X176431Y263275D01*
X176480Y263217D01*
X176532Y263161D01*
X176587Y263108D01*
X176644Y263058D01*
X176704Y263011D01*
X176766Y262967D01*
X176830Y262925D01*
X176896Y262887D01*
X176964Y262853D01*
X177034Y262822D01*
X177105Y262794D01*
X177177Y262770D01*
X177251Y262749D01*
X177325Y262732D01*
X177400Y262719D01*
X177476Y262710D01*
X177552Y262704D01*
X177628Y262702D01*
X179290Y264363D02*
X175967Y268517D01*
X201928Y244778D02*
X201928Y237302D01*
X201928Y244778D02*
X199851Y244778D01*
X199762Y244776D01*
X199672Y244770D01*
X199584Y244761D01*
X199495Y244747D01*
X199408Y244730D01*
X199321Y244709D01*
X199235Y244684D01*
X199150Y244656D01*
X199067Y244624D01*
X198984Y244589D01*
X198904Y244550D01*
X198825Y244507D01*
X198749Y244461D01*
X198674Y244412D01*
X198601Y244360D01*
X198531Y244305D01*
X198463Y244247D01*
X198398Y244185D01*
X198336Y244122D01*
X198276Y244055D01*
X198219Y243986D01*
X198165Y243915D01*
X198115Y243841D01*
X198067Y243765D01*
X198023Y243687D01*
X197982Y243608D01*
X197945Y243527D01*
X197911Y243444D01*
X197881Y243360D01*
X197855Y243274D01*
X197832Y243188D01*
X197813Y243101D01*
X197798Y243013D01*
X197786Y242924D01*
X197778Y242835D01*
X197774Y242746D01*
X197774Y242656D01*
X197778Y242567D01*
X197786Y242478D01*
X197798Y242389D01*
X197813Y242301D01*
X197832Y242214D01*
X197855Y242128D01*
X197881Y242042D01*
X197911Y241958D01*
X197945Y241875D01*
X197982Y241794D01*
X198023Y241715D01*
X198067Y241637D01*
X198115Y241561D01*
X198165Y241487D01*
X198219Y241416D01*
X198276Y241347D01*
X198336Y241280D01*
X198398Y241217D01*
X198463Y241155D01*
X198531Y241097D01*
X198601Y241042D01*
X198674Y240990D01*
X198749Y240941D01*
X198825Y240895D01*
X198904Y240852D01*
X198984Y240813D01*
X199067Y240778D01*
X199150Y240746D01*
X199235Y240718D01*
X199321Y240693D01*
X199408Y240672D01*
X199495Y240655D01*
X199584Y240641D01*
X199672Y240632D01*
X199762Y240626D01*
X199851Y240624D01*
X199851Y240625D02*
X201928Y240625D01*
X194285Y241040D02*
X194283Y241195D01*
X194277Y241350D01*
X194267Y241505D01*
X194254Y241660D01*
X194236Y241814D01*
X194215Y241968D01*
X194189Y242121D01*
X194160Y242274D01*
X194127Y242425D01*
X194090Y242576D01*
X194050Y242726D01*
X194005Y242875D01*
X193957Y243022D01*
X193906Y243169D01*
X193850Y243314D01*
X193791Y243457D01*
X193728Y243599D01*
X193662Y243740D01*
X193662Y243739D02*
X193635Y243811D01*
X193605Y243881D01*
X193572Y243950D01*
X193535Y244016D01*
X193495Y244081D01*
X193452Y244144D01*
X193405Y244205D01*
X193356Y244263D01*
X193304Y244319D01*
X193249Y244372D01*
X193192Y244422D01*
X193132Y244469D01*
X193070Y244513D01*
X193006Y244555D01*
X192940Y244593D01*
X192872Y244627D01*
X192802Y244658D01*
X192731Y244686D01*
X192659Y244710D01*
X192585Y244731D01*
X192511Y244748D01*
X192436Y244761D01*
X192360Y244770D01*
X192284Y244776D01*
X192208Y244778D01*
X192132Y244776D01*
X192056Y244770D01*
X191980Y244761D01*
X191905Y244748D01*
X191831Y244731D01*
X191757Y244710D01*
X191685Y244686D01*
X191614Y244658D01*
X191544Y244627D01*
X191476Y244593D01*
X191410Y244555D01*
X191346Y244513D01*
X191284Y244469D01*
X191224Y244422D01*
X191167Y244372D01*
X191112Y244319D01*
X191060Y244263D01*
X191011Y244205D01*
X190964Y244144D01*
X190921Y244081D01*
X190881Y244016D01*
X190844Y243950D01*
X190811Y243881D01*
X190781Y243811D01*
X190754Y243739D01*
X190754Y243740D02*
X190688Y243599D01*
X190625Y243457D01*
X190566Y243314D01*
X190510Y243169D01*
X190459Y243022D01*
X190411Y242875D01*
X190366Y242726D01*
X190326Y242576D01*
X190289Y242425D01*
X190256Y242274D01*
X190227Y242121D01*
X190201Y241968D01*
X190180Y241814D01*
X190162Y241660D01*
X190149Y241505D01*
X190139Y241350D01*
X190133Y241195D01*
X190131Y241040D01*
X194285Y241040D02*
X194283Y240885D01*
X194277Y240730D01*
X194267Y240575D01*
X194254Y240420D01*
X194236Y240266D01*
X194215Y240112D01*
X194189Y239959D01*
X194160Y239806D01*
X194127Y239655D01*
X194090Y239504D01*
X194050Y239354D01*
X194005Y239205D01*
X193957Y239058D01*
X193906Y238911D01*
X193850Y238766D01*
X193791Y238623D01*
X193728Y238481D01*
X193662Y238340D01*
X193662Y238341D02*
X193635Y238269D01*
X193605Y238199D01*
X193572Y238130D01*
X193535Y238064D01*
X193495Y237999D01*
X193452Y237936D01*
X193405Y237875D01*
X193356Y237817D01*
X193304Y237761D01*
X193249Y237708D01*
X193192Y237658D01*
X193132Y237611D01*
X193070Y237567D01*
X193006Y237525D01*
X192940Y237487D01*
X192872Y237453D01*
X192802Y237422D01*
X192731Y237394D01*
X192659Y237370D01*
X192585Y237349D01*
X192511Y237332D01*
X192436Y237319D01*
X192360Y237310D01*
X192284Y237304D01*
X192208Y237302D01*
X190755Y238340D02*
X190689Y238481D01*
X190626Y238623D01*
X190567Y238766D01*
X190511Y238911D01*
X190460Y239058D01*
X190412Y239205D01*
X190367Y239354D01*
X190327Y239504D01*
X190290Y239655D01*
X190257Y239806D01*
X190228Y239959D01*
X190202Y240112D01*
X190181Y240266D01*
X190163Y240420D01*
X190150Y240575D01*
X190140Y240730D01*
X190134Y240885D01*
X190132Y241040D01*
X190754Y238340D02*
X190781Y238269D01*
X190811Y238199D01*
X190844Y238130D01*
X190881Y238064D01*
X190921Y237999D01*
X190964Y237936D01*
X191011Y237875D01*
X191060Y237817D01*
X191112Y237761D01*
X191167Y237708D01*
X191224Y237658D01*
X191284Y237611D01*
X191346Y237567D01*
X191410Y237525D01*
X191476Y237487D01*
X191544Y237453D01*
X191614Y237422D01*
X191685Y237394D01*
X191757Y237370D01*
X191831Y237349D01*
X191905Y237332D01*
X191980Y237319D01*
X192056Y237310D01*
X192132Y237304D01*
X192208Y237302D01*
X193870Y238963D02*
X190547Y243117D01*
X186580Y236471D02*
X183257Y236471D01*
X179705Y243117D02*
X177628Y244778D01*
X177628Y237302D01*
X175552Y237302D02*
X179705Y237302D01*
X201928Y219378D02*
X201928Y211902D01*
X201928Y219378D02*
X199851Y219378D01*
X199762Y219376D01*
X199672Y219370D01*
X199584Y219361D01*
X199495Y219347D01*
X199408Y219330D01*
X199321Y219309D01*
X199235Y219284D01*
X199150Y219256D01*
X199067Y219224D01*
X198984Y219189D01*
X198904Y219150D01*
X198825Y219107D01*
X198749Y219061D01*
X198674Y219012D01*
X198601Y218960D01*
X198531Y218905D01*
X198463Y218847D01*
X198398Y218785D01*
X198336Y218722D01*
X198276Y218655D01*
X198219Y218586D01*
X198165Y218515D01*
X198115Y218441D01*
X198067Y218365D01*
X198023Y218287D01*
X197982Y218208D01*
X197945Y218127D01*
X197911Y218044D01*
X197881Y217960D01*
X197855Y217874D01*
X197832Y217788D01*
X197813Y217701D01*
X197798Y217613D01*
X197786Y217524D01*
X197778Y217435D01*
X197774Y217346D01*
X197774Y217256D01*
X197778Y217167D01*
X197786Y217078D01*
X197798Y216989D01*
X197813Y216901D01*
X197832Y216814D01*
X197855Y216728D01*
X197881Y216642D01*
X197911Y216558D01*
X197945Y216475D01*
X197982Y216394D01*
X198023Y216315D01*
X198067Y216237D01*
X198115Y216161D01*
X198165Y216087D01*
X198219Y216016D01*
X198276Y215947D01*
X198336Y215880D01*
X198398Y215817D01*
X198463Y215755D01*
X198531Y215697D01*
X198601Y215642D01*
X198674Y215590D01*
X198749Y215541D01*
X198825Y215495D01*
X198904Y215452D01*
X198984Y215413D01*
X199067Y215378D01*
X199150Y215346D01*
X199235Y215318D01*
X199321Y215293D01*
X199408Y215272D01*
X199495Y215255D01*
X199584Y215241D01*
X199672Y215232D01*
X199762Y215226D01*
X199851Y215224D01*
X199851Y215225D02*
X201928Y215225D01*
X194285Y215640D02*
X194283Y215795D01*
X194277Y215950D01*
X194267Y216105D01*
X194254Y216260D01*
X194236Y216414D01*
X194215Y216568D01*
X194189Y216721D01*
X194160Y216874D01*
X194127Y217025D01*
X194090Y217176D01*
X194050Y217326D01*
X194005Y217475D01*
X193957Y217622D01*
X193906Y217769D01*
X193850Y217914D01*
X193791Y218057D01*
X193728Y218199D01*
X193662Y218340D01*
X193662Y218339D02*
X193635Y218411D01*
X193605Y218481D01*
X193572Y218550D01*
X193535Y218616D01*
X193495Y218681D01*
X193452Y218744D01*
X193405Y218805D01*
X193356Y218863D01*
X193304Y218919D01*
X193249Y218972D01*
X193192Y219022D01*
X193132Y219069D01*
X193070Y219113D01*
X193006Y219155D01*
X192940Y219193D01*
X192872Y219227D01*
X192802Y219258D01*
X192731Y219286D01*
X192659Y219310D01*
X192585Y219331D01*
X192511Y219348D01*
X192436Y219361D01*
X192360Y219370D01*
X192284Y219376D01*
X192208Y219378D01*
X192132Y219376D01*
X192056Y219370D01*
X191980Y219361D01*
X191905Y219348D01*
X191831Y219331D01*
X191757Y219310D01*
X191685Y219286D01*
X191614Y219258D01*
X191544Y219227D01*
X191476Y219193D01*
X191410Y219155D01*
X191346Y219113D01*
X191284Y219069D01*
X191224Y219022D01*
X191167Y218972D01*
X191112Y218919D01*
X191060Y218863D01*
X191011Y218805D01*
X190964Y218744D01*
X190921Y218681D01*
X190881Y218616D01*
X190844Y218550D01*
X190811Y218481D01*
X190781Y218411D01*
X190754Y218339D01*
X190754Y218340D02*
X190688Y218199D01*
X190625Y218057D01*
X190566Y217914D01*
X190510Y217769D01*
X190459Y217622D01*
X190411Y217475D01*
X190366Y217326D01*
X190326Y217176D01*
X190289Y217025D01*
X190256Y216874D01*
X190227Y216721D01*
X190201Y216568D01*
X190180Y216414D01*
X190162Y216260D01*
X190149Y216105D01*
X190139Y215950D01*
X190133Y215795D01*
X190131Y215640D01*
X194285Y215640D02*
X194283Y215485D01*
X194277Y215330D01*
X194267Y215175D01*
X194254Y215020D01*
X194236Y214866D01*
X194215Y214712D01*
X194189Y214559D01*
X194160Y214406D01*
X194127Y214255D01*
X194090Y214104D01*
X194050Y213954D01*
X194005Y213805D01*
X193957Y213658D01*
X193906Y213511D01*
X193850Y213366D01*
X193791Y213223D01*
X193728Y213081D01*
X193662Y212940D01*
X193662Y212941D02*
X193635Y212869D01*
X193605Y212799D01*
X193572Y212730D01*
X193535Y212664D01*
X193495Y212599D01*
X193452Y212536D01*
X193405Y212475D01*
X193356Y212417D01*
X193304Y212361D01*
X193249Y212308D01*
X193192Y212258D01*
X193132Y212211D01*
X193070Y212167D01*
X193006Y212125D01*
X192940Y212087D01*
X192872Y212053D01*
X192802Y212022D01*
X192731Y211994D01*
X192659Y211970D01*
X192585Y211949D01*
X192511Y211932D01*
X192436Y211919D01*
X192360Y211910D01*
X192284Y211904D01*
X192208Y211902D01*
X190755Y212940D02*
X190689Y213081D01*
X190626Y213223D01*
X190567Y213366D01*
X190511Y213511D01*
X190460Y213658D01*
X190412Y213805D01*
X190367Y213954D01*
X190327Y214104D01*
X190290Y214255D01*
X190257Y214406D01*
X190228Y214559D01*
X190202Y214712D01*
X190181Y214866D01*
X190163Y215020D01*
X190150Y215175D01*
X190140Y215330D01*
X190134Y215485D01*
X190132Y215640D01*
X190754Y212940D02*
X190781Y212869D01*
X190811Y212799D01*
X190844Y212730D01*
X190881Y212664D01*
X190921Y212599D01*
X190964Y212536D01*
X191011Y212475D01*
X191060Y212417D01*
X191112Y212361D01*
X191167Y212308D01*
X191224Y212258D01*
X191284Y212211D01*
X191346Y212167D01*
X191410Y212125D01*
X191476Y212087D01*
X191544Y212053D01*
X191614Y212022D01*
X191685Y211994D01*
X191757Y211970D01*
X191831Y211949D01*
X191905Y211932D01*
X191980Y211919D01*
X192056Y211910D01*
X192132Y211904D01*
X192208Y211902D01*
X193870Y213563D02*
X190547Y217717D01*
X186580Y211071D02*
X183257Y211071D01*
X175552Y217509D02*
X175554Y217593D01*
X175560Y217677D01*
X175569Y217760D01*
X175582Y217843D01*
X175599Y217925D01*
X175619Y218006D01*
X175643Y218087D01*
X175671Y218166D01*
X175702Y218244D01*
X175737Y218320D01*
X175775Y218395D01*
X175817Y218468D01*
X175861Y218539D01*
X175909Y218608D01*
X175960Y218674D01*
X176014Y218739D01*
X176070Y218801D01*
X176129Y218860D01*
X176191Y218916D01*
X176256Y218970D01*
X176322Y219021D01*
X176391Y219069D01*
X176462Y219113D01*
X176535Y219155D01*
X176610Y219193D01*
X176686Y219228D01*
X176764Y219259D01*
X176843Y219287D01*
X176924Y219311D01*
X177005Y219331D01*
X177087Y219348D01*
X177170Y219361D01*
X177253Y219370D01*
X177337Y219376D01*
X177421Y219378D01*
X177518Y219376D01*
X177616Y219370D01*
X177712Y219360D01*
X177809Y219346D01*
X177905Y219329D01*
X178000Y219307D01*
X178094Y219282D01*
X178187Y219253D01*
X178278Y219220D01*
X178369Y219183D01*
X178457Y219143D01*
X178544Y219099D01*
X178629Y219052D01*
X178713Y219001D01*
X178794Y218947D01*
X178872Y218890D01*
X178949Y218829D01*
X179023Y218766D01*
X179094Y218699D01*
X179162Y218630D01*
X179228Y218558D01*
X179291Y218484D01*
X179350Y218407D01*
X179406Y218327D01*
X179460Y218245D01*
X179509Y218162D01*
X179556Y218076D01*
X179598Y217989D01*
X179638Y217899D01*
X179673Y217809D01*
X179705Y217717D01*
X176174Y216055D02*
X176113Y216115D01*
X176055Y216178D01*
X176000Y216243D01*
X175948Y216311D01*
X175898Y216381D01*
X175851Y216453D01*
X175808Y216526D01*
X175768Y216602D01*
X175731Y216679D01*
X175697Y216758D01*
X175667Y216838D01*
X175640Y216919D01*
X175616Y217001D01*
X175596Y217084D01*
X175580Y217168D01*
X175567Y217253D01*
X175558Y217338D01*
X175553Y217423D01*
X175551Y217509D01*
X176175Y216055D02*
X179705Y211902D01*
X175552Y211902D01*
X201928Y193978D02*
X201928Y186502D01*
X201928Y193978D02*
X199851Y193978D01*
X199762Y193976D01*
X199672Y193970D01*
X199584Y193961D01*
X199495Y193947D01*
X199408Y193930D01*
X199321Y193909D01*
X199235Y193884D01*
X199150Y193856D01*
X199067Y193824D01*
X198984Y193789D01*
X198904Y193750D01*
X198825Y193707D01*
X198749Y193661D01*
X198674Y193612D01*
X198601Y193560D01*
X198531Y193505D01*
X198463Y193447D01*
X198398Y193385D01*
X198336Y193322D01*
X198276Y193255D01*
X198219Y193186D01*
X198165Y193115D01*
X198115Y193041D01*
X198067Y192965D01*
X198023Y192887D01*
X197982Y192808D01*
X197945Y192727D01*
X197911Y192644D01*
X197881Y192560D01*
X197855Y192474D01*
X197832Y192388D01*
X197813Y192301D01*
X197798Y192213D01*
X197786Y192124D01*
X197778Y192035D01*
X197774Y191946D01*
X197774Y191856D01*
X197778Y191767D01*
X197786Y191678D01*
X197798Y191589D01*
X197813Y191501D01*
X197832Y191414D01*
X197855Y191328D01*
X197881Y191242D01*
X197911Y191158D01*
X197945Y191075D01*
X197982Y190994D01*
X198023Y190915D01*
X198067Y190837D01*
X198115Y190761D01*
X198165Y190687D01*
X198219Y190616D01*
X198276Y190547D01*
X198336Y190480D01*
X198398Y190417D01*
X198463Y190355D01*
X198531Y190297D01*
X198601Y190242D01*
X198674Y190190D01*
X198749Y190141D01*
X198825Y190095D01*
X198904Y190052D01*
X198984Y190013D01*
X199067Y189978D01*
X199150Y189946D01*
X199235Y189918D01*
X199321Y189893D01*
X199408Y189872D01*
X199495Y189855D01*
X199584Y189841D01*
X199672Y189832D01*
X199762Y189826D01*
X199851Y189824D01*
X199851Y189825D02*
X201928Y189825D01*
X194285Y190240D02*
X194283Y190395D01*
X194277Y190550D01*
X194267Y190705D01*
X194254Y190860D01*
X194236Y191014D01*
X194215Y191168D01*
X194189Y191321D01*
X194160Y191474D01*
X194127Y191625D01*
X194090Y191776D01*
X194050Y191926D01*
X194005Y192075D01*
X193957Y192222D01*
X193906Y192369D01*
X193850Y192514D01*
X193791Y192657D01*
X193728Y192799D01*
X193662Y192940D01*
X193662Y192939D02*
X193635Y193011D01*
X193605Y193081D01*
X193572Y193150D01*
X193535Y193216D01*
X193495Y193281D01*
X193452Y193344D01*
X193405Y193405D01*
X193356Y193463D01*
X193304Y193519D01*
X193249Y193572D01*
X193192Y193622D01*
X193132Y193669D01*
X193070Y193713D01*
X193006Y193755D01*
X192940Y193793D01*
X192872Y193827D01*
X192802Y193858D01*
X192731Y193886D01*
X192659Y193910D01*
X192585Y193931D01*
X192511Y193948D01*
X192436Y193961D01*
X192360Y193970D01*
X192284Y193976D01*
X192208Y193978D01*
X192132Y193976D01*
X192056Y193970D01*
X191980Y193961D01*
X191905Y193948D01*
X191831Y193931D01*
X191757Y193910D01*
X191685Y193886D01*
X191614Y193858D01*
X191544Y193827D01*
X191476Y193793D01*
X191410Y193755D01*
X191346Y193713D01*
X191284Y193669D01*
X191224Y193622D01*
X191167Y193572D01*
X191112Y193519D01*
X191060Y193463D01*
X191011Y193405D01*
X190964Y193344D01*
X190921Y193281D01*
X190881Y193216D01*
X190844Y193150D01*
X190811Y193081D01*
X190781Y193011D01*
X190754Y192939D01*
X190754Y192940D02*
X190688Y192799D01*
X190625Y192657D01*
X190566Y192514D01*
X190510Y192369D01*
X190459Y192222D01*
X190411Y192075D01*
X190366Y191926D01*
X190326Y191776D01*
X190289Y191625D01*
X190256Y191474D01*
X190227Y191321D01*
X190201Y191168D01*
X190180Y191014D01*
X190162Y190860D01*
X190149Y190705D01*
X190139Y190550D01*
X190133Y190395D01*
X190131Y190240D01*
X194285Y190240D02*
X194283Y190085D01*
X194277Y189930D01*
X194267Y189775D01*
X194254Y189620D01*
X194236Y189466D01*
X194215Y189312D01*
X194189Y189159D01*
X194160Y189006D01*
X194127Y188855D01*
X194090Y188704D01*
X194050Y188554D01*
X194005Y188405D01*
X193957Y188258D01*
X193906Y188111D01*
X193850Y187966D01*
X193791Y187823D01*
X193728Y187681D01*
X193662Y187540D01*
X193662Y187541D02*
X193635Y187469D01*
X193605Y187399D01*
X193572Y187330D01*
X193535Y187264D01*
X193495Y187199D01*
X193452Y187136D01*
X193405Y187075D01*
X193356Y187017D01*
X193304Y186961D01*
X193249Y186908D01*
X193192Y186858D01*
X193132Y186811D01*
X193070Y186767D01*
X193006Y186725D01*
X192940Y186687D01*
X192872Y186653D01*
X192802Y186622D01*
X192731Y186594D01*
X192659Y186570D01*
X192585Y186549D01*
X192511Y186532D01*
X192436Y186519D01*
X192360Y186510D01*
X192284Y186504D01*
X192208Y186502D01*
X190755Y187540D02*
X190689Y187681D01*
X190626Y187823D01*
X190567Y187966D01*
X190511Y188111D01*
X190460Y188258D01*
X190412Y188405D01*
X190367Y188554D01*
X190327Y188704D01*
X190290Y188855D01*
X190257Y189006D01*
X190228Y189159D01*
X190202Y189312D01*
X190181Y189466D01*
X190163Y189620D01*
X190150Y189775D01*
X190140Y189930D01*
X190134Y190085D01*
X190132Y190240D01*
X190754Y187540D02*
X190781Y187469D01*
X190811Y187399D01*
X190844Y187330D01*
X190881Y187264D01*
X190921Y187199D01*
X190964Y187136D01*
X191011Y187075D01*
X191060Y187017D01*
X191112Y186961D01*
X191167Y186908D01*
X191224Y186858D01*
X191284Y186811D01*
X191346Y186767D01*
X191410Y186725D01*
X191476Y186687D01*
X191544Y186653D01*
X191614Y186622D01*
X191685Y186594D01*
X191757Y186570D01*
X191831Y186549D01*
X191905Y186532D01*
X191980Y186519D01*
X192056Y186510D01*
X192132Y186504D01*
X192208Y186502D01*
X193870Y188163D02*
X190547Y192317D01*
X186580Y185671D02*
X183257Y185671D01*
X179705Y186502D02*
X177628Y186502D01*
X177539Y186504D01*
X177449Y186510D01*
X177361Y186519D01*
X177272Y186533D01*
X177185Y186550D01*
X177098Y186571D01*
X177012Y186596D01*
X176927Y186624D01*
X176844Y186656D01*
X176761Y186691D01*
X176681Y186730D01*
X176602Y186773D01*
X176526Y186819D01*
X176451Y186868D01*
X176378Y186920D01*
X176308Y186975D01*
X176240Y187033D01*
X176175Y187095D01*
X176113Y187158D01*
X176053Y187225D01*
X175996Y187294D01*
X175942Y187365D01*
X175892Y187439D01*
X175844Y187515D01*
X175800Y187593D01*
X175759Y187672D01*
X175722Y187753D01*
X175688Y187836D01*
X175658Y187920D01*
X175632Y188006D01*
X175609Y188092D01*
X175590Y188179D01*
X175575Y188267D01*
X175563Y188356D01*
X175555Y188445D01*
X175551Y188534D01*
X175551Y188624D01*
X175555Y188713D01*
X175563Y188802D01*
X175575Y188891D01*
X175590Y188979D01*
X175609Y189066D01*
X175632Y189152D01*
X175658Y189238D01*
X175688Y189322D01*
X175722Y189405D01*
X175759Y189486D01*
X175800Y189565D01*
X175844Y189643D01*
X175892Y189719D01*
X175942Y189793D01*
X175996Y189864D01*
X176053Y189933D01*
X176113Y190000D01*
X176175Y190063D01*
X176240Y190125D01*
X176308Y190183D01*
X176378Y190238D01*
X176451Y190290D01*
X176526Y190339D01*
X176602Y190385D01*
X176681Y190428D01*
X176761Y190467D01*
X176844Y190502D01*
X176927Y190534D01*
X177012Y190562D01*
X177098Y190587D01*
X177185Y190608D01*
X177272Y190625D01*
X177361Y190639D01*
X177449Y190648D01*
X177539Y190654D01*
X177628Y190656D01*
X177213Y193978D02*
X179705Y193978D01*
X177213Y193978D02*
X177133Y193976D01*
X177053Y193970D01*
X176973Y193961D01*
X176894Y193947D01*
X176815Y193930D01*
X176738Y193909D01*
X176662Y193884D01*
X176587Y193855D01*
X176513Y193823D01*
X176441Y193788D01*
X176371Y193749D01*
X176303Y193706D01*
X176237Y193661D01*
X176173Y193612D01*
X176112Y193560D01*
X176053Y193506D01*
X175997Y193448D01*
X175943Y193388D01*
X175893Y193325D01*
X175846Y193261D01*
X175802Y193193D01*
X175761Y193124D01*
X175724Y193053D01*
X175690Y192980D01*
X175660Y192906D01*
X175633Y192830D01*
X175610Y192753D01*
X175591Y192675D01*
X175576Y192597D01*
X175564Y192517D01*
X175556Y192437D01*
X175552Y192357D01*
X175552Y192277D01*
X175556Y192197D01*
X175564Y192117D01*
X175576Y192037D01*
X175591Y191959D01*
X175610Y191881D01*
X175633Y191804D01*
X175660Y191728D01*
X175690Y191654D01*
X175724Y191581D01*
X175761Y191510D01*
X175802Y191441D01*
X175846Y191373D01*
X175893Y191309D01*
X175943Y191246D01*
X175997Y191186D01*
X176053Y191128D01*
X176112Y191074D01*
X176173Y191022D01*
X176237Y190973D01*
X176303Y190928D01*
X176371Y190885D01*
X176441Y190846D01*
X176513Y190811D01*
X176587Y190779D01*
X176662Y190750D01*
X176738Y190725D01*
X176815Y190704D01*
X176894Y190687D01*
X176973Y190673D01*
X177053Y190664D01*
X177133Y190658D01*
X177213Y190656D01*
X177213Y190655D02*
X178874Y190655D01*
X201928Y168578D02*
X201928Y161102D01*
X201928Y168578D02*
X199851Y168578D01*
X199762Y168576D01*
X199672Y168570D01*
X199584Y168561D01*
X199495Y168547D01*
X199408Y168530D01*
X199321Y168509D01*
X199235Y168484D01*
X199150Y168456D01*
X199067Y168424D01*
X198984Y168389D01*
X198904Y168350D01*
X198825Y168307D01*
X198749Y168261D01*
X198674Y168212D01*
X198601Y168160D01*
X198531Y168105D01*
X198463Y168047D01*
X198398Y167985D01*
X198336Y167922D01*
X198276Y167855D01*
X198219Y167786D01*
X198165Y167715D01*
X198115Y167641D01*
X198067Y167565D01*
X198023Y167487D01*
X197982Y167408D01*
X197945Y167327D01*
X197911Y167244D01*
X197881Y167160D01*
X197855Y167074D01*
X197832Y166988D01*
X197813Y166901D01*
X197798Y166813D01*
X197786Y166724D01*
X197778Y166635D01*
X197774Y166546D01*
X197774Y166456D01*
X197778Y166367D01*
X197786Y166278D01*
X197798Y166189D01*
X197813Y166101D01*
X197832Y166014D01*
X197855Y165928D01*
X197881Y165842D01*
X197911Y165758D01*
X197945Y165675D01*
X197982Y165594D01*
X198023Y165515D01*
X198067Y165437D01*
X198115Y165361D01*
X198165Y165287D01*
X198219Y165216D01*
X198276Y165147D01*
X198336Y165080D01*
X198398Y165017D01*
X198463Y164955D01*
X198531Y164897D01*
X198601Y164842D01*
X198674Y164790D01*
X198749Y164741D01*
X198825Y164695D01*
X198904Y164652D01*
X198984Y164613D01*
X199067Y164578D01*
X199150Y164546D01*
X199235Y164518D01*
X199321Y164493D01*
X199408Y164472D01*
X199495Y164455D01*
X199584Y164441D01*
X199672Y164432D01*
X199762Y164426D01*
X199851Y164424D01*
X199851Y164425D02*
X201928Y164425D01*
X194285Y164840D02*
X194283Y164995D01*
X194277Y165150D01*
X194267Y165305D01*
X194254Y165460D01*
X194236Y165614D01*
X194215Y165768D01*
X194189Y165921D01*
X194160Y166074D01*
X194127Y166225D01*
X194090Y166376D01*
X194050Y166526D01*
X194005Y166675D01*
X193957Y166822D01*
X193906Y166969D01*
X193850Y167114D01*
X193791Y167257D01*
X193728Y167399D01*
X193662Y167540D01*
X193662Y167539D02*
X193635Y167611D01*
X193605Y167681D01*
X193572Y167750D01*
X193535Y167816D01*
X193495Y167881D01*
X193452Y167944D01*
X193405Y168005D01*
X193356Y168063D01*
X193304Y168119D01*
X193249Y168172D01*
X193192Y168222D01*
X193132Y168269D01*
X193070Y168313D01*
X193006Y168355D01*
X192940Y168393D01*
X192872Y168427D01*
X192802Y168458D01*
X192731Y168486D01*
X192659Y168510D01*
X192585Y168531D01*
X192511Y168548D01*
X192436Y168561D01*
X192360Y168570D01*
X192284Y168576D01*
X192208Y168578D01*
X192132Y168576D01*
X192056Y168570D01*
X191980Y168561D01*
X191905Y168548D01*
X191831Y168531D01*
X191757Y168510D01*
X191685Y168486D01*
X191614Y168458D01*
X191544Y168427D01*
X191476Y168393D01*
X191410Y168355D01*
X191346Y168313D01*
X191284Y168269D01*
X191224Y168222D01*
X191167Y168172D01*
X191112Y168119D01*
X191060Y168063D01*
X191011Y168005D01*
X190964Y167944D01*
X190921Y167881D01*
X190881Y167816D01*
X190844Y167750D01*
X190811Y167681D01*
X190781Y167611D01*
X190754Y167539D01*
X190754Y167540D02*
X190688Y167399D01*
X190625Y167257D01*
X190566Y167114D01*
X190510Y166969D01*
X190459Y166822D01*
X190411Y166675D01*
X190366Y166526D01*
X190326Y166376D01*
X190289Y166225D01*
X190256Y166074D01*
X190227Y165921D01*
X190201Y165768D01*
X190180Y165614D01*
X190162Y165460D01*
X190149Y165305D01*
X190139Y165150D01*
X190133Y164995D01*
X190131Y164840D01*
X194285Y164840D02*
X194283Y164685D01*
X194277Y164530D01*
X194267Y164375D01*
X194254Y164220D01*
X194236Y164066D01*
X194215Y163912D01*
X194189Y163759D01*
X194160Y163606D01*
X194127Y163455D01*
X194090Y163304D01*
X194050Y163154D01*
X194005Y163005D01*
X193957Y162858D01*
X193906Y162711D01*
X193850Y162566D01*
X193791Y162423D01*
X193728Y162281D01*
X193662Y162140D01*
X193662Y162141D02*
X193635Y162069D01*
X193605Y161999D01*
X193572Y161930D01*
X193535Y161864D01*
X193495Y161799D01*
X193452Y161736D01*
X193405Y161675D01*
X193356Y161617D01*
X193304Y161561D01*
X193249Y161508D01*
X193192Y161458D01*
X193132Y161411D01*
X193070Y161367D01*
X193006Y161325D01*
X192940Y161287D01*
X192872Y161253D01*
X192802Y161222D01*
X192731Y161194D01*
X192659Y161170D01*
X192585Y161149D01*
X192511Y161132D01*
X192436Y161119D01*
X192360Y161110D01*
X192284Y161104D01*
X192208Y161102D01*
X190755Y162140D02*
X190689Y162281D01*
X190626Y162423D01*
X190567Y162566D01*
X190511Y162711D01*
X190460Y162858D01*
X190412Y163005D01*
X190367Y163154D01*
X190327Y163304D01*
X190290Y163455D01*
X190257Y163606D01*
X190228Y163759D01*
X190202Y163912D01*
X190181Y164066D01*
X190163Y164220D01*
X190150Y164375D01*
X190140Y164530D01*
X190134Y164685D01*
X190132Y164840D01*
X190754Y162140D02*
X190781Y162069D01*
X190811Y161999D01*
X190844Y161930D01*
X190881Y161864D01*
X190921Y161799D01*
X190964Y161736D01*
X191011Y161675D01*
X191060Y161617D01*
X191112Y161561D01*
X191167Y161508D01*
X191224Y161458D01*
X191284Y161411D01*
X191346Y161367D01*
X191410Y161325D01*
X191476Y161287D01*
X191544Y161253D01*
X191614Y161222D01*
X191685Y161194D01*
X191757Y161170D01*
X191831Y161149D01*
X191905Y161132D01*
X191980Y161119D01*
X192056Y161110D01*
X192132Y161104D01*
X192208Y161102D01*
X193870Y162763D02*
X190547Y166917D01*
X186580Y160271D02*
X183257Y160271D01*
X179705Y162763D02*
X178044Y168578D01*
X179705Y162763D02*
X175552Y162763D01*
X176798Y161102D02*
X176798Y164425D01*
X201928Y143178D02*
X201928Y135702D01*
X201928Y143178D02*
X199851Y143178D01*
X199762Y143176D01*
X199672Y143170D01*
X199584Y143161D01*
X199495Y143147D01*
X199408Y143130D01*
X199321Y143109D01*
X199235Y143084D01*
X199150Y143056D01*
X199067Y143024D01*
X198984Y142989D01*
X198904Y142950D01*
X198825Y142907D01*
X198749Y142861D01*
X198674Y142812D01*
X198601Y142760D01*
X198531Y142705D01*
X198463Y142647D01*
X198398Y142585D01*
X198336Y142522D01*
X198276Y142455D01*
X198219Y142386D01*
X198165Y142315D01*
X198115Y142241D01*
X198067Y142165D01*
X198023Y142087D01*
X197982Y142008D01*
X197945Y141927D01*
X197911Y141844D01*
X197881Y141760D01*
X197855Y141674D01*
X197832Y141588D01*
X197813Y141501D01*
X197798Y141413D01*
X197786Y141324D01*
X197778Y141235D01*
X197774Y141146D01*
X197774Y141056D01*
X197778Y140967D01*
X197786Y140878D01*
X197798Y140789D01*
X197813Y140701D01*
X197832Y140614D01*
X197855Y140528D01*
X197881Y140442D01*
X197911Y140358D01*
X197945Y140275D01*
X197982Y140194D01*
X198023Y140115D01*
X198067Y140037D01*
X198115Y139961D01*
X198165Y139887D01*
X198219Y139816D01*
X198276Y139747D01*
X198336Y139680D01*
X198398Y139617D01*
X198463Y139555D01*
X198531Y139497D01*
X198601Y139442D01*
X198674Y139390D01*
X198749Y139341D01*
X198825Y139295D01*
X198904Y139252D01*
X198984Y139213D01*
X199067Y139178D01*
X199150Y139146D01*
X199235Y139118D01*
X199321Y139093D01*
X199408Y139072D01*
X199495Y139055D01*
X199584Y139041D01*
X199672Y139032D01*
X199762Y139026D01*
X199851Y139024D01*
X199851Y139025D02*
X201928Y139025D01*
X194285Y139440D02*
X194283Y139595D01*
X194277Y139750D01*
X194267Y139905D01*
X194254Y140060D01*
X194236Y140214D01*
X194215Y140368D01*
X194189Y140521D01*
X194160Y140674D01*
X194127Y140825D01*
X194090Y140976D01*
X194050Y141126D01*
X194005Y141275D01*
X193957Y141422D01*
X193906Y141569D01*
X193850Y141714D01*
X193791Y141857D01*
X193728Y141999D01*
X193662Y142140D01*
X193662Y142139D02*
X193635Y142211D01*
X193605Y142281D01*
X193572Y142350D01*
X193535Y142416D01*
X193495Y142481D01*
X193452Y142544D01*
X193405Y142605D01*
X193356Y142663D01*
X193304Y142719D01*
X193249Y142772D01*
X193192Y142822D01*
X193132Y142869D01*
X193070Y142913D01*
X193006Y142955D01*
X192940Y142993D01*
X192872Y143027D01*
X192802Y143058D01*
X192731Y143086D01*
X192659Y143110D01*
X192585Y143131D01*
X192511Y143148D01*
X192436Y143161D01*
X192360Y143170D01*
X192284Y143176D01*
X192208Y143178D01*
X192132Y143176D01*
X192056Y143170D01*
X191980Y143161D01*
X191905Y143148D01*
X191831Y143131D01*
X191757Y143110D01*
X191685Y143086D01*
X191614Y143058D01*
X191544Y143027D01*
X191476Y142993D01*
X191410Y142955D01*
X191346Y142913D01*
X191284Y142869D01*
X191224Y142822D01*
X191167Y142772D01*
X191112Y142719D01*
X191060Y142663D01*
X191011Y142605D01*
X190964Y142544D01*
X190921Y142481D01*
X190881Y142416D01*
X190844Y142350D01*
X190811Y142281D01*
X190781Y142211D01*
X190754Y142139D01*
X190754Y142140D02*
X190688Y141999D01*
X190625Y141857D01*
X190566Y141714D01*
X190510Y141569D01*
X190459Y141422D01*
X190411Y141275D01*
X190366Y141126D01*
X190326Y140976D01*
X190289Y140825D01*
X190256Y140674D01*
X190227Y140521D01*
X190201Y140368D01*
X190180Y140214D01*
X190162Y140060D01*
X190149Y139905D01*
X190139Y139750D01*
X190133Y139595D01*
X190131Y139440D01*
X194285Y139440D02*
X194283Y139285D01*
X194277Y139130D01*
X194267Y138975D01*
X194254Y138820D01*
X194236Y138666D01*
X194215Y138512D01*
X194189Y138359D01*
X194160Y138206D01*
X194127Y138055D01*
X194090Y137904D01*
X194050Y137754D01*
X194005Y137605D01*
X193957Y137458D01*
X193906Y137311D01*
X193850Y137166D01*
X193791Y137023D01*
X193728Y136881D01*
X193662Y136740D01*
X193662Y136741D02*
X193635Y136669D01*
X193605Y136599D01*
X193572Y136530D01*
X193535Y136464D01*
X193495Y136399D01*
X193452Y136336D01*
X193405Y136275D01*
X193356Y136217D01*
X193304Y136161D01*
X193249Y136108D01*
X193192Y136058D01*
X193132Y136011D01*
X193070Y135967D01*
X193006Y135925D01*
X192940Y135887D01*
X192872Y135853D01*
X192802Y135822D01*
X192731Y135794D01*
X192659Y135770D01*
X192585Y135749D01*
X192511Y135732D01*
X192436Y135719D01*
X192360Y135710D01*
X192284Y135704D01*
X192208Y135702D01*
X190755Y136740D02*
X190689Y136881D01*
X190626Y137023D01*
X190567Y137166D01*
X190511Y137311D01*
X190460Y137458D01*
X190412Y137605D01*
X190367Y137754D01*
X190327Y137904D01*
X190290Y138055D01*
X190257Y138206D01*
X190228Y138359D01*
X190202Y138512D01*
X190181Y138666D01*
X190163Y138820D01*
X190150Y138975D01*
X190140Y139130D01*
X190134Y139285D01*
X190132Y139440D01*
X190754Y136740D02*
X190781Y136669D01*
X190811Y136599D01*
X190844Y136530D01*
X190881Y136464D01*
X190921Y136399D01*
X190964Y136336D01*
X191011Y136275D01*
X191060Y136217D01*
X191112Y136161D01*
X191167Y136108D01*
X191224Y136058D01*
X191284Y136011D01*
X191346Y135967D01*
X191410Y135925D01*
X191476Y135887D01*
X191544Y135853D01*
X191614Y135822D01*
X191685Y135794D01*
X191757Y135770D01*
X191831Y135749D01*
X191905Y135732D01*
X191980Y135719D01*
X192056Y135710D01*
X192132Y135704D01*
X192208Y135702D01*
X193870Y137363D02*
X190547Y141517D01*
X186580Y134871D02*
X183257Y134871D01*
X179705Y135702D02*
X177213Y135702D01*
X177134Y135704D01*
X177055Y135710D01*
X176977Y135719D01*
X176899Y135732D01*
X176821Y135749D01*
X176745Y135769D01*
X176670Y135793D01*
X176596Y135821D01*
X176523Y135852D01*
X176452Y135887D01*
X176383Y135925D01*
X176315Y135966D01*
X176250Y136010D01*
X176186Y136057D01*
X176125Y136108D01*
X176067Y136161D01*
X176011Y136217D01*
X175958Y136275D01*
X175907Y136336D01*
X175860Y136400D01*
X175816Y136465D01*
X175775Y136533D01*
X175737Y136602D01*
X175702Y136673D01*
X175671Y136746D01*
X175643Y136820D01*
X175619Y136895D01*
X175599Y136971D01*
X175582Y137049D01*
X175569Y137127D01*
X175560Y137205D01*
X175554Y137284D01*
X175552Y137363D01*
X175552Y138194D01*
X175554Y138273D01*
X175560Y138352D01*
X175569Y138430D01*
X175582Y138508D01*
X175599Y138586D01*
X175619Y138662D01*
X175643Y138737D01*
X175671Y138811D01*
X175702Y138884D01*
X175737Y138955D01*
X175775Y139025D01*
X175816Y139092D01*
X175860Y139157D01*
X175907Y139221D01*
X175958Y139282D01*
X176011Y139340D01*
X176067Y139396D01*
X176125Y139449D01*
X176186Y139500D01*
X176250Y139547D01*
X176315Y139591D01*
X176383Y139632D01*
X176452Y139670D01*
X176523Y139705D01*
X176596Y139736D01*
X176670Y139764D01*
X176745Y139788D01*
X176821Y139808D01*
X176899Y139825D01*
X176977Y139838D01*
X177055Y139847D01*
X177134Y139853D01*
X177213Y139855D01*
X179705Y139855D01*
X179705Y143178D01*
X175552Y143178D01*
X201928Y117778D02*
X201928Y110302D01*
X201928Y117778D02*
X199851Y117778D01*
X199762Y117776D01*
X199672Y117770D01*
X199584Y117761D01*
X199495Y117747D01*
X199408Y117730D01*
X199321Y117709D01*
X199235Y117684D01*
X199150Y117656D01*
X199067Y117624D01*
X198984Y117589D01*
X198904Y117550D01*
X198825Y117507D01*
X198749Y117461D01*
X198674Y117412D01*
X198601Y117360D01*
X198531Y117305D01*
X198463Y117247D01*
X198398Y117185D01*
X198336Y117122D01*
X198276Y117055D01*
X198219Y116986D01*
X198165Y116915D01*
X198115Y116841D01*
X198067Y116765D01*
X198023Y116687D01*
X197982Y116608D01*
X197945Y116527D01*
X197911Y116444D01*
X197881Y116360D01*
X197855Y116274D01*
X197832Y116188D01*
X197813Y116101D01*
X197798Y116013D01*
X197786Y115924D01*
X197778Y115835D01*
X197774Y115746D01*
X197774Y115656D01*
X197778Y115567D01*
X197786Y115478D01*
X197798Y115389D01*
X197813Y115301D01*
X197832Y115214D01*
X197855Y115128D01*
X197881Y115042D01*
X197911Y114958D01*
X197945Y114875D01*
X197982Y114794D01*
X198023Y114715D01*
X198067Y114637D01*
X198115Y114561D01*
X198165Y114487D01*
X198219Y114416D01*
X198276Y114347D01*
X198336Y114280D01*
X198398Y114217D01*
X198463Y114155D01*
X198531Y114097D01*
X198601Y114042D01*
X198674Y113990D01*
X198749Y113941D01*
X198825Y113895D01*
X198904Y113852D01*
X198984Y113813D01*
X199067Y113778D01*
X199150Y113746D01*
X199235Y113718D01*
X199321Y113693D01*
X199408Y113672D01*
X199495Y113655D01*
X199584Y113641D01*
X199672Y113632D01*
X199762Y113626D01*
X199851Y113624D01*
X199851Y113625D02*
X201928Y113625D01*
X194285Y114040D02*
X194283Y114195D01*
X194277Y114350D01*
X194267Y114505D01*
X194254Y114660D01*
X194236Y114814D01*
X194215Y114968D01*
X194189Y115121D01*
X194160Y115274D01*
X194127Y115425D01*
X194090Y115576D01*
X194050Y115726D01*
X194005Y115875D01*
X193957Y116022D01*
X193906Y116169D01*
X193850Y116314D01*
X193791Y116457D01*
X193728Y116599D01*
X193662Y116740D01*
X193662Y116739D02*
X193635Y116811D01*
X193605Y116881D01*
X193572Y116950D01*
X193535Y117016D01*
X193495Y117081D01*
X193452Y117144D01*
X193405Y117205D01*
X193356Y117263D01*
X193304Y117319D01*
X193249Y117372D01*
X193192Y117422D01*
X193132Y117469D01*
X193070Y117513D01*
X193006Y117555D01*
X192940Y117593D01*
X192872Y117627D01*
X192802Y117658D01*
X192731Y117686D01*
X192659Y117710D01*
X192585Y117731D01*
X192511Y117748D01*
X192436Y117761D01*
X192360Y117770D01*
X192284Y117776D01*
X192208Y117778D01*
X192132Y117776D01*
X192056Y117770D01*
X191980Y117761D01*
X191905Y117748D01*
X191831Y117731D01*
X191757Y117710D01*
X191685Y117686D01*
X191614Y117658D01*
X191544Y117627D01*
X191476Y117593D01*
X191410Y117555D01*
X191346Y117513D01*
X191284Y117469D01*
X191224Y117422D01*
X191167Y117372D01*
X191112Y117319D01*
X191060Y117263D01*
X191011Y117205D01*
X190964Y117144D01*
X190921Y117081D01*
X190881Y117016D01*
X190844Y116950D01*
X190811Y116881D01*
X190781Y116811D01*
X190754Y116739D01*
X190754Y116740D02*
X190688Y116599D01*
X190625Y116457D01*
X190566Y116314D01*
X190510Y116169D01*
X190459Y116022D01*
X190411Y115875D01*
X190366Y115726D01*
X190326Y115576D01*
X190289Y115425D01*
X190256Y115274D01*
X190227Y115121D01*
X190201Y114968D01*
X190180Y114814D01*
X190162Y114660D01*
X190149Y114505D01*
X190139Y114350D01*
X190133Y114195D01*
X190131Y114040D01*
X194285Y114040D02*
X194283Y113885D01*
X194277Y113730D01*
X194267Y113575D01*
X194254Y113420D01*
X194236Y113266D01*
X194215Y113112D01*
X194189Y112959D01*
X194160Y112806D01*
X194127Y112655D01*
X194090Y112504D01*
X194050Y112354D01*
X194005Y112205D01*
X193957Y112058D01*
X193906Y111911D01*
X193850Y111766D01*
X193791Y111623D01*
X193728Y111481D01*
X193662Y111340D01*
X193662Y111341D02*
X193635Y111269D01*
X193605Y111199D01*
X193572Y111130D01*
X193535Y111064D01*
X193495Y110999D01*
X193452Y110936D01*
X193405Y110875D01*
X193356Y110817D01*
X193304Y110761D01*
X193249Y110708D01*
X193192Y110658D01*
X193132Y110611D01*
X193070Y110567D01*
X193006Y110525D01*
X192940Y110487D01*
X192872Y110453D01*
X192802Y110422D01*
X192731Y110394D01*
X192659Y110370D01*
X192585Y110349D01*
X192511Y110332D01*
X192436Y110319D01*
X192360Y110310D01*
X192284Y110304D01*
X192208Y110302D01*
X190755Y111340D02*
X190689Y111481D01*
X190626Y111623D01*
X190567Y111766D01*
X190511Y111911D01*
X190460Y112058D01*
X190412Y112205D01*
X190367Y112354D01*
X190327Y112504D01*
X190290Y112655D01*
X190257Y112806D01*
X190228Y112959D01*
X190202Y113112D01*
X190181Y113266D01*
X190163Y113420D01*
X190150Y113575D01*
X190140Y113730D01*
X190134Y113885D01*
X190132Y114040D01*
X190754Y111340D02*
X190781Y111269D01*
X190811Y111199D01*
X190844Y111130D01*
X190881Y111064D01*
X190921Y110999D01*
X190964Y110936D01*
X191011Y110875D01*
X191060Y110817D01*
X191112Y110761D01*
X191167Y110708D01*
X191224Y110658D01*
X191284Y110611D01*
X191346Y110567D01*
X191410Y110525D01*
X191476Y110487D01*
X191544Y110453D01*
X191614Y110422D01*
X191685Y110394D01*
X191757Y110370D01*
X191831Y110349D01*
X191905Y110332D01*
X191980Y110319D01*
X192056Y110310D01*
X192132Y110304D01*
X192208Y110302D01*
X193870Y111963D02*
X190547Y116117D01*
X186580Y109471D02*
X183257Y109471D01*
X179705Y114455D02*
X177213Y114455D01*
X177134Y114453D01*
X177055Y114447D01*
X176977Y114438D01*
X176899Y114425D01*
X176821Y114408D01*
X176745Y114388D01*
X176670Y114364D01*
X176596Y114336D01*
X176523Y114305D01*
X176452Y114270D01*
X176383Y114232D01*
X176315Y114191D01*
X176250Y114147D01*
X176186Y114100D01*
X176125Y114049D01*
X176067Y113996D01*
X176011Y113940D01*
X175958Y113882D01*
X175907Y113821D01*
X175860Y113757D01*
X175816Y113692D01*
X175775Y113625D01*
X175737Y113555D01*
X175702Y113484D01*
X175671Y113411D01*
X175643Y113337D01*
X175619Y113262D01*
X175599Y113186D01*
X175582Y113108D01*
X175569Y113030D01*
X175560Y112952D01*
X175554Y112873D01*
X175552Y112794D01*
X175552Y112379D01*
X175551Y112379D02*
X175553Y112290D01*
X175559Y112200D01*
X175568Y112112D01*
X175582Y112023D01*
X175599Y111936D01*
X175620Y111849D01*
X175645Y111763D01*
X175673Y111678D01*
X175705Y111595D01*
X175740Y111512D01*
X175779Y111432D01*
X175822Y111353D01*
X175868Y111277D01*
X175917Y111202D01*
X175969Y111129D01*
X176024Y111059D01*
X176082Y110991D01*
X176144Y110926D01*
X176207Y110864D01*
X176274Y110804D01*
X176343Y110747D01*
X176414Y110693D01*
X176488Y110643D01*
X176564Y110595D01*
X176642Y110551D01*
X176721Y110510D01*
X176802Y110473D01*
X176885Y110439D01*
X176969Y110409D01*
X177055Y110383D01*
X177141Y110360D01*
X177228Y110341D01*
X177316Y110326D01*
X177405Y110314D01*
X177494Y110306D01*
X177583Y110302D01*
X177673Y110302D01*
X177762Y110306D01*
X177851Y110314D01*
X177940Y110326D01*
X178028Y110341D01*
X178115Y110360D01*
X178201Y110383D01*
X178287Y110409D01*
X178371Y110439D01*
X178454Y110473D01*
X178535Y110510D01*
X178614Y110551D01*
X178692Y110595D01*
X178768Y110643D01*
X178842Y110693D01*
X178913Y110747D01*
X178982Y110804D01*
X179049Y110864D01*
X179112Y110926D01*
X179174Y110991D01*
X179232Y111059D01*
X179287Y111129D01*
X179339Y111202D01*
X179388Y111277D01*
X179434Y111353D01*
X179477Y111432D01*
X179516Y111512D01*
X179551Y111595D01*
X179583Y111678D01*
X179611Y111763D01*
X179636Y111849D01*
X179657Y111936D01*
X179674Y112023D01*
X179688Y112112D01*
X179697Y112200D01*
X179703Y112290D01*
X179705Y112379D01*
X179705Y114455D01*
X179703Y114568D01*
X179697Y114682D01*
X179688Y114795D01*
X179674Y114907D01*
X179657Y115020D01*
X179635Y115131D01*
X179611Y115242D01*
X179582Y115352D01*
X179549Y115460D01*
X179513Y115568D01*
X179473Y115674D01*
X179430Y115779D01*
X179383Y115882D01*
X179332Y115984D01*
X179279Y116084D01*
X179221Y116182D01*
X179161Y116277D01*
X179097Y116371D01*
X179030Y116463D01*
X178960Y116552D01*
X178887Y116639D01*
X178811Y116723D01*
X178732Y116805D01*
X178650Y116884D01*
X178566Y116960D01*
X178479Y117033D01*
X178390Y117103D01*
X178298Y117170D01*
X178205Y117234D01*
X178109Y117294D01*
X178011Y117352D01*
X177911Y117405D01*
X177809Y117456D01*
X177706Y117503D01*
X177601Y117546D01*
X177495Y117586D01*
X177387Y117622D01*
X177279Y117655D01*
X177169Y117684D01*
X177058Y117708D01*
X176947Y117730D01*
X176835Y117747D01*
X176722Y117761D01*
X176609Y117770D01*
X176496Y117776D01*
X176382Y117778D01*
X201928Y91108D02*
X201928Y83632D01*
X201928Y91108D02*
X199851Y91108D01*
X199762Y91106D01*
X199672Y91100D01*
X199584Y91091D01*
X199495Y91077D01*
X199408Y91060D01*
X199321Y91039D01*
X199235Y91014D01*
X199150Y90986D01*
X199067Y90954D01*
X198984Y90919D01*
X198904Y90880D01*
X198825Y90837D01*
X198749Y90791D01*
X198674Y90742D01*
X198601Y90690D01*
X198531Y90635D01*
X198463Y90577D01*
X198398Y90515D01*
X198336Y90452D01*
X198276Y90385D01*
X198219Y90316D01*
X198165Y90245D01*
X198115Y90171D01*
X198067Y90095D01*
X198023Y90017D01*
X197982Y89938D01*
X197945Y89857D01*
X197911Y89774D01*
X197881Y89690D01*
X197855Y89604D01*
X197832Y89518D01*
X197813Y89431D01*
X197798Y89343D01*
X197786Y89254D01*
X197778Y89165D01*
X197774Y89076D01*
X197774Y88986D01*
X197778Y88897D01*
X197786Y88808D01*
X197798Y88719D01*
X197813Y88631D01*
X197832Y88544D01*
X197855Y88458D01*
X197881Y88372D01*
X197911Y88288D01*
X197945Y88205D01*
X197982Y88124D01*
X198023Y88045D01*
X198067Y87967D01*
X198115Y87891D01*
X198165Y87817D01*
X198219Y87746D01*
X198276Y87677D01*
X198336Y87610D01*
X198398Y87547D01*
X198463Y87485D01*
X198531Y87427D01*
X198601Y87372D01*
X198674Y87320D01*
X198749Y87271D01*
X198825Y87225D01*
X198904Y87182D01*
X198984Y87143D01*
X199067Y87108D01*
X199150Y87076D01*
X199235Y87048D01*
X199321Y87023D01*
X199408Y87002D01*
X199495Y86985D01*
X199584Y86971D01*
X199672Y86962D01*
X199762Y86956D01*
X199851Y86954D01*
X199851Y86955D02*
X201928Y86955D01*
X194285Y87370D02*
X194283Y87525D01*
X194277Y87680D01*
X194267Y87835D01*
X194254Y87990D01*
X194236Y88144D01*
X194215Y88298D01*
X194189Y88451D01*
X194160Y88604D01*
X194127Y88755D01*
X194090Y88906D01*
X194050Y89056D01*
X194005Y89205D01*
X193957Y89352D01*
X193906Y89499D01*
X193850Y89644D01*
X193791Y89787D01*
X193728Y89929D01*
X193662Y90070D01*
X193662Y90069D02*
X193635Y90141D01*
X193605Y90211D01*
X193572Y90280D01*
X193535Y90346D01*
X193495Y90411D01*
X193452Y90474D01*
X193405Y90535D01*
X193356Y90593D01*
X193304Y90649D01*
X193249Y90702D01*
X193192Y90752D01*
X193132Y90799D01*
X193070Y90843D01*
X193006Y90885D01*
X192940Y90923D01*
X192872Y90957D01*
X192802Y90988D01*
X192731Y91016D01*
X192659Y91040D01*
X192585Y91061D01*
X192511Y91078D01*
X192436Y91091D01*
X192360Y91100D01*
X192284Y91106D01*
X192208Y91108D01*
X192132Y91106D01*
X192056Y91100D01*
X191980Y91091D01*
X191905Y91078D01*
X191831Y91061D01*
X191757Y91040D01*
X191685Y91016D01*
X191614Y90988D01*
X191544Y90957D01*
X191476Y90923D01*
X191410Y90885D01*
X191346Y90843D01*
X191284Y90799D01*
X191224Y90752D01*
X191167Y90702D01*
X191112Y90649D01*
X191060Y90593D01*
X191011Y90535D01*
X190964Y90474D01*
X190921Y90411D01*
X190881Y90346D01*
X190844Y90280D01*
X190811Y90211D01*
X190781Y90141D01*
X190754Y90069D01*
X190754Y90070D02*
X190688Y89929D01*
X190625Y89787D01*
X190566Y89644D01*
X190510Y89499D01*
X190459Y89352D01*
X190411Y89205D01*
X190366Y89056D01*
X190326Y88906D01*
X190289Y88755D01*
X190256Y88604D01*
X190227Y88451D01*
X190201Y88298D01*
X190180Y88144D01*
X190162Y87990D01*
X190149Y87835D01*
X190139Y87680D01*
X190133Y87525D01*
X190131Y87370D01*
X194285Y87370D02*
X194283Y87215D01*
X194277Y87060D01*
X194267Y86905D01*
X194254Y86750D01*
X194236Y86596D01*
X194215Y86442D01*
X194189Y86289D01*
X194160Y86136D01*
X194127Y85985D01*
X194090Y85834D01*
X194050Y85684D01*
X194005Y85535D01*
X193957Y85388D01*
X193906Y85241D01*
X193850Y85096D01*
X193791Y84953D01*
X193728Y84811D01*
X193662Y84670D01*
X193662Y84671D02*
X193635Y84599D01*
X193605Y84529D01*
X193572Y84460D01*
X193535Y84394D01*
X193495Y84329D01*
X193452Y84266D01*
X193405Y84205D01*
X193356Y84147D01*
X193304Y84091D01*
X193249Y84038D01*
X193192Y83988D01*
X193132Y83941D01*
X193070Y83897D01*
X193006Y83855D01*
X192940Y83817D01*
X192872Y83783D01*
X192802Y83752D01*
X192731Y83724D01*
X192659Y83700D01*
X192585Y83679D01*
X192511Y83662D01*
X192436Y83649D01*
X192360Y83640D01*
X192284Y83634D01*
X192208Y83632D01*
X190755Y84670D02*
X190689Y84811D01*
X190626Y84953D01*
X190567Y85096D01*
X190511Y85241D01*
X190460Y85388D01*
X190412Y85535D01*
X190367Y85684D01*
X190327Y85834D01*
X190290Y85985D01*
X190257Y86136D01*
X190228Y86289D01*
X190202Y86442D01*
X190181Y86596D01*
X190163Y86750D01*
X190150Y86905D01*
X190140Y87060D01*
X190134Y87215D01*
X190132Y87370D01*
X190754Y84670D02*
X190781Y84599D01*
X190811Y84529D01*
X190844Y84460D01*
X190881Y84394D01*
X190921Y84329D01*
X190964Y84266D01*
X191011Y84205D01*
X191060Y84147D01*
X191112Y84091D01*
X191167Y84038D01*
X191224Y83988D01*
X191284Y83941D01*
X191346Y83897D01*
X191410Y83855D01*
X191476Y83817D01*
X191544Y83783D01*
X191614Y83752D01*
X191685Y83724D01*
X191757Y83700D01*
X191831Y83679D01*
X191905Y83662D01*
X191980Y83649D01*
X192056Y83640D01*
X192132Y83634D01*
X192208Y83632D01*
X193870Y85293D02*
X190547Y89447D01*
X186580Y82801D02*
X183257Y82801D01*
X179705Y90277D02*
X179705Y91108D01*
X175552Y91108D01*
X177628Y83632D01*
X201928Y66978D02*
X201928Y59502D01*
X201928Y66978D02*
X199851Y66978D01*
X199762Y66976D01*
X199672Y66970D01*
X199584Y66961D01*
X199495Y66947D01*
X199408Y66930D01*
X199321Y66909D01*
X199235Y66884D01*
X199150Y66856D01*
X199067Y66824D01*
X198984Y66789D01*
X198904Y66750D01*
X198825Y66707D01*
X198749Y66661D01*
X198674Y66612D01*
X198601Y66560D01*
X198531Y66505D01*
X198463Y66447D01*
X198398Y66385D01*
X198336Y66322D01*
X198276Y66255D01*
X198219Y66186D01*
X198165Y66115D01*
X198115Y66041D01*
X198067Y65965D01*
X198023Y65887D01*
X197982Y65808D01*
X197945Y65727D01*
X197911Y65644D01*
X197881Y65560D01*
X197855Y65474D01*
X197832Y65388D01*
X197813Y65301D01*
X197798Y65213D01*
X197786Y65124D01*
X197778Y65035D01*
X197774Y64946D01*
X197774Y64856D01*
X197778Y64767D01*
X197786Y64678D01*
X197798Y64589D01*
X197813Y64501D01*
X197832Y64414D01*
X197855Y64328D01*
X197881Y64242D01*
X197911Y64158D01*
X197945Y64075D01*
X197982Y63994D01*
X198023Y63915D01*
X198067Y63837D01*
X198115Y63761D01*
X198165Y63687D01*
X198219Y63616D01*
X198276Y63547D01*
X198336Y63480D01*
X198398Y63417D01*
X198463Y63355D01*
X198531Y63297D01*
X198601Y63242D01*
X198674Y63190D01*
X198749Y63141D01*
X198825Y63095D01*
X198904Y63052D01*
X198984Y63013D01*
X199067Y62978D01*
X199150Y62946D01*
X199235Y62918D01*
X199321Y62893D01*
X199408Y62872D01*
X199495Y62855D01*
X199584Y62841D01*
X199672Y62832D01*
X199762Y62826D01*
X199851Y62824D01*
X199851Y62825D02*
X201928Y62825D01*
X194285Y65317D02*
X192208Y66978D01*
X192208Y59502D01*
X190132Y59502D02*
X194285Y59502D01*
X186580Y58671D02*
X183257Y58671D01*
X179705Y63240D02*
X179703Y63395D01*
X179697Y63550D01*
X179687Y63705D01*
X179674Y63860D01*
X179656Y64014D01*
X179635Y64168D01*
X179609Y64321D01*
X179580Y64474D01*
X179547Y64625D01*
X179510Y64776D01*
X179470Y64926D01*
X179425Y65075D01*
X179377Y65222D01*
X179326Y65369D01*
X179270Y65514D01*
X179211Y65657D01*
X179148Y65799D01*
X179082Y65940D01*
X179082Y65939D02*
X179055Y66011D01*
X179025Y66081D01*
X178992Y66150D01*
X178955Y66216D01*
X178915Y66281D01*
X178872Y66344D01*
X178825Y66405D01*
X178776Y66463D01*
X178724Y66519D01*
X178669Y66572D01*
X178612Y66622D01*
X178552Y66669D01*
X178490Y66713D01*
X178426Y66755D01*
X178360Y66793D01*
X178292Y66827D01*
X178222Y66858D01*
X178151Y66886D01*
X178079Y66910D01*
X178005Y66931D01*
X177931Y66948D01*
X177856Y66961D01*
X177780Y66970D01*
X177704Y66976D01*
X177628Y66978D01*
X177552Y66976D01*
X177476Y66970D01*
X177400Y66961D01*
X177325Y66948D01*
X177251Y66931D01*
X177177Y66910D01*
X177105Y66886D01*
X177034Y66858D01*
X176964Y66827D01*
X176896Y66793D01*
X176830Y66755D01*
X176766Y66713D01*
X176704Y66669D01*
X176644Y66622D01*
X176587Y66572D01*
X176532Y66519D01*
X176480Y66463D01*
X176431Y66405D01*
X176384Y66344D01*
X176341Y66281D01*
X176301Y66216D01*
X176264Y66150D01*
X176231Y66081D01*
X176201Y66011D01*
X176174Y65939D01*
X176174Y65940D02*
X176108Y65799D01*
X176045Y65657D01*
X175986Y65514D01*
X175930Y65369D01*
X175879Y65222D01*
X175831Y65075D01*
X175786Y64926D01*
X175746Y64776D01*
X175709Y64625D01*
X175676Y64474D01*
X175647Y64321D01*
X175621Y64168D01*
X175600Y64014D01*
X175582Y63860D01*
X175569Y63705D01*
X175559Y63550D01*
X175553Y63395D01*
X175551Y63240D01*
X179705Y63240D02*
X179703Y63085D01*
X179697Y62930D01*
X179687Y62775D01*
X179674Y62620D01*
X179656Y62466D01*
X179635Y62312D01*
X179609Y62159D01*
X179580Y62006D01*
X179547Y61855D01*
X179510Y61704D01*
X179470Y61554D01*
X179425Y61405D01*
X179377Y61258D01*
X179326Y61111D01*
X179270Y60966D01*
X179211Y60823D01*
X179148Y60681D01*
X179082Y60540D01*
X179082Y60541D02*
X179055Y60469D01*
X179025Y60399D01*
X178992Y60330D01*
X178955Y60264D01*
X178915Y60199D01*
X178872Y60136D01*
X178825Y60075D01*
X178776Y60017D01*
X178724Y59961D01*
X178669Y59908D01*
X178612Y59858D01*
X178552Y59811D01*
X178490Y59767D01*
X178426Y59725D01*
X178360Y59687D01*
X178292Y59653D01*
X178222Y59622D01*
X178151Y59594D01*
X178079Y59570D01*
X178005Y59549D01*
X177931Y59532D01*
X177856Y59519D01*
X177780Y59510D01*
X177704Y59504D01*
X177628Y59502D01*
X176175Y60540D02*
X176109Y60681D01*
X176046Y60823D01*
X175987Y60966D01*
X175931Y61111D01*
X175880Y61258D01*
X175832Y61405D01*
X175787Y61554D01*
X175747Y61704D01*
X175710Y61855D01*
X175677Y62006D01*
X175648Y62159D01*
X175622Y62312D01*
X175601Y62466D01*
X175583Y62620D01*
X175570Y62775D01*
X175560Y62930D01*
X175554Y63085D01*
X175552Y63240D01*
X176174Y60540D02*
X176201Y60469D01*
X176231Y60399D01*
X176264Y60330D01*
X176301Y60264D01*
X176341Y60199D01*
X176384Y60136D01*
X176431Y60075D01*
X176480Y60017D01*
X176532Y59961D01*
X176587Y59908D01*
X176644Y59858D01*
X176704Y59811D01*
X176766Y59767D01*
X176830Y59725D01*
X176896Y59687D01*
X176964Y59653D01*
X177034Y59622D01*
X177105Y59594D01*
X177177Y59570D01*
X177251Y59549D01*
X177325Y59532D01*
X177400Y59519D01*
X177476Y59510D01*
X177552Y59504D01*
X177628Y59502D01*
X179290Y61163D02*
X175967Y65317D01*
X201928Y41578D02*
X201928Y34102D01*
X201928Y41578D02*
X199851Y41578D01*
X199762Y41576D01*
X199672Y41570D01*
X199584Y41561D01*
X199495Y41547D01*
X199408Y41530D01*
X199321Y41509D01*
X199235Y41484D01*
X199150Y41456D01*
X199067Y41424D01*
X198984Y41389D01*
X198904Y41350D01*
X198825Y41307D01*
X198749Y41261D01*
X198674Y41212D01*
X198601Y41160D01*
X198531Y41105D01*
X198463Y41047D01*
X198398Y40985D01*
X198336Y40922D01*
X198276Y40855D01*
X198219Y40786D01*
X198165Y40715D01*
X198115Y40641D01*
X198067Y40565D01*
X198023Y40487D01*
X197982Y40408D01*
X197945Y40327D01*
X197911Y40244D01*
X197881Y40160D01*
X197855Y40074D01*
X197832Y39988D01*
X197813Y39901D01*
X197798Y39813D01*
X197786Y39724D01*
X197778Y39635D01*
X197774Y39546D01*
X197774Y39456D01*
X197778Y39367D01*
X197786Y39278D01*
X197798Y39189D01*
X197813Y39101D01*
X197832Y39014D01*
X197855Y38928D01*
X197881Y38842D01*
X197911Y38758D01*
X197945Y38675D01*
X197982Y38594D01*
X198023Y38515D01*
X198067Y38437D01*
X198115Y38361D01*
X198165Y38287D01*
X198219Y38216D01*
X198276Y38147D01*
X198336Y38080D01*
X198398Y38017D01*
X198463Y37955D01*
X198531Y37897D01*
X198601Y37842D01*
X198674Y37790D01*
X198749Y37741D01*
X198825Y37695D01*
X198904Y37652D01*
X198984Y37613D01*
X199067Y37578D01*
X199150Y37546D01*
X199235Y37518D01*
X199321Y37493D01*
X199408Y37472D01*
X199495Y37455D01*
X199584Y37441D01*
X199672Y37432D01*
X199762Y37426D01*
X199851Y37424D01*
X199851Y37425D02*
X201928Y37425D01*
X194285Y39917D02*
X192208Y41578D01*
X192208Y34102D01*
X190132Y34102D02*
X194285Y34102D01*
X186580Y33271D02*
X183257Y33271D01*
X179705Y39917D02*
X177628Y41578D01*
X177628Y34102D01*
X175552Y34102D02*
X179705Y34102D01*
X201928Y16178D02*
X201928Y8702D01*
X201928Y16178D02*
X199851Y16178D01*
X199762Y16176D01*
X199672Y16170D01*
X199584Y16161D01*
X199495Y16147D01*
X199408Y16130D01*
X199321Y16109D01*
X199235Y16084D01*
X199150Y16056D01*
X199067Y16024D01*
X198984Y15989D01*
X198904Y15950D01*
X198825Y15907D01*
X198749Y15861D01*
X198674Y15812D01*
X198601Y15760D01*
X198531Y15705D01*
X198463Y15647D01*
X198398Y15585D01*
X198336Y15522D01*
X198276Y15455D01*
X198219Y15386D01*
X198165Y15315D01*
X198115Y15241D01*
X198067Y15165D01*
X198023Y15087D01*
X197982Y15008D01*
X197945Y14927D01*
X197911Y14844D01*
X197881Y14760D01*
X197855Y14674D01*
X197832Y14588D01*
X197813Y14501D01*
X197798Y14413D01*
X197786Y14324D01*
X197778Y14235D01*
X197774Y14146D01*
X197774Y14056D01*
X197778Y13967D01*
X197786Y13878D01*
X197798Y13789D01*
X197813Y13701D01*
X197832Y13614D01*
X197855Y13528D01*
X197881Y13442D01*
X197911Y13358D01*
X197945Y13275D01*
X197982Y13194D01*
X198023Y13115D01*
X198067Y13037D01*
X198115Y12961D01*
X198165Y12887D01*
X198219Y12816D01*
X198276Y12747D01*
X198336Y12680D01*
X198398Y12617D01*
X198463Y12555D01*
X198531Y12497D01*
X198601Y12442D01*
X198674Y12390D01*
X198749Y12341D01*
X198825Y12295D01*
X198904Y12252D01*
X198984Y12213D01*
X199067Y12178D01*
X199150Y12146D01*
X199235Y12118D01*
X199321Y12093D01*
X199408Y12072D01*
X199495Y12055D01*
X199584Y12041D01*
X199672Y12032D01*
X199762Y12026D01*
X199851Y12024D01*
X199851Y12025D02*
X201928Y12025D01*
X194285Y14517D02*
X192208Y16178D01*
X192208Y8702D01*
X190132Y8702D02*
X194285Y8702D01*
X186580Y7871D02*
X183257Y7871D01*
X175552Y14309D02*
X175554Y14393D01*
X175560Y14477D01*
X175569Y14560D01*
X175582Y14643D01*
X175599Y14725D01*
X175619Y14806D01*
X175643Y14887D01*
X175671Y14966D01*
X175702Y15044D01*
X175737Y15120D01*
X175775Y15195D01*
X175817Y15268D01*
X175861Y15339D01*
X175909Y15408D01*
X175960Y15474D01*
X176014Y15539D01*
X176070Y15601D01*
X176129Y15660D01*
X176191Y15716D01*
X176256Y15770D01*
X176322Y15821D01*
X176391Y15869D01*
X176462Y15913D01*
X176535Y15955D01*
X176610Y15993D01*
X176686Y16028D01*
X176764Y16059D01*
X176843Y16087D01*
X176924Y16111D01*
X177005Y16131D01*
X177087Y16148D01*
X177170Y16161D01*
X177253Y16170D01*
X177337Y16176D01*
X177421Y16178D01*
X177518Y16176D01*
X177616Y16170D01*
X177712Y16160D01*
X177809Y16146D01*
X177905Y16129D01*
X178000Y16107D01*
X178094Y16082D01*
X178187Y16053D01*
X178278Y16020D01*
X178369Y15983D01*
X178457Y15943D01*
X178544Y15899D01*
X178629Y15852D01*
X178713Y15801D01*
X178794Y15747D01*
X178872Y15690D01*
X178949Y15629D01*
X179023Y15566D01*
X179094Y15499D01*
X179162Y15430D01*
X179228Y15358D01*
X179291Y15284D01*
X179350Y15207D01*
X179406Y15127D01*
X179460Y15045D01*
X179509Y14962D01*
X179556Y14876D01*
X179598Y14789D01*
X179638Y14699D01*
X179673Y14609D01*
X179705Y14517D01*
X176174Y12855D02*
X176113Y12915D01*
X176055Y12978D01*
X176000Y13043D01*
X175948Y13111D01*
X175898Y13181D01*
X175851Y13253D01*
X175808Y13326D01*
X175768Y13402D01*
X175731Y13479D01*
X175697Y13558D01*
X175667Y13638D01*
X175640Y13719D01*
X175616Y13801D01*
X175596Y13884D01*
X175580Y13968D01*
X175567Y14053D01*
X175558Y14138D01*
X175553Y14223D01*
X175551Y14309D01*
X176175Y12855D02*
X179705Y8702D01*
X175552Y8702D01*
X82350Y192852D02*
X80883Y192852D01*
X82350Y192852D02*
X82424Y192854D01*
X82499Y192860D01*
X82572Y192869D01*
X82646Y192882D01*
X82718Y192899D01*
X82789Y192919D01*
X82860Y192943D01*
X82929Y192971D01*
X82997Y193002D01*
X83062Y193036D01*
X83127Y193074D01*
X83189Y193115D01*
X83249Y193159D01*
X83306Y193206D01*
X83361Y193256D01*
X83414Y193309D01*
X83464Y193364D01*
X83511Y193421D01*
X83555Y193481D01*
X83596Y193543D01*
X83634Y193608D01*
X83668Y193674D01*
X83699Y193741D01*
X83727Y193810D01*
X83751Y193881D01*
X83771Y193952D01*
X83788Y194025D01*
X83801Y194098D01*
X83810Y194172D01*
X83816Y194246D01*
X83818Y194320D01*
X83818Y197988D01*
X83816Y198062D01*
X83810Y198137D01*
X83801Y198210D01*
X83788Y198283D01*
X83771Y198356D01*
X83751Y198427D01*
X83727Y198498D01*
X83699Y198567D01*
X83668Y198634D01*
X83634Y198700D01*
X83596Y198765D01*
X83555Y198827D01*
X83511Y198887D01*
X83464Y198944D01*
X83414Y198999D01*
X83361Y199052D01*
X83306Y199102D01*
X83249Y199149D01*
X83189Y199193D01*
X83127Y199234D01*
X83062Y199272D01*
X82997Y199306D01*
X82929Y199337D01*
X82860Y199365D01*
X82790Y199389D01*
X82718Y199409D01*
X82646Y199426D01*
X82572Y199439D01*
X82499Y199448D01*
X82424Y199454D01*
X82350Y199456D01*
X80883Y199456D01*
X77687Y197988D02*
X75852Y199456D01*
X75852Y192852D01*
X74018Y192852D02*
X77687Y192852D01*
X132078Y151466D02*
X132078Y144862D01*
X132078Y151466D02*
X130244Y151466D01*
X130159Y151464D01*
X130075Y151458D01*
X129991Y151448D01*
X129907Y151435D01*
X129824Y151417D01*
X129742Y151396D01*
X129661Y151371D01*
X129581Y151342D01*
X129503Y151310D01*
X129427Y151274D01*
X129352Y151234D01*
X129279Y151191D01*
X129208Y151145D01*
X129139Y151096D01*
X129072Y151043D01*
X129008Y150987D01*
X128947Y150929D01*
X128889Y150868D01*
X128833Y150804D01*
X128780Y150737D01*
X128731Y150668D01*
X128685Y150597D01*
X128642Y150524D01*
X128602Y150449D01*
X128566Y150373D01*
X128534Y150295D01*
X128505Y150215D01*
X128480Y150134D01*
X128459Y150052D01*
X128441Y149969D01*
X128428Y149885D01*
X128418Y149801D01*
X128412Y149717D01*
X128410Y149632D01*
X128412Y149547D01*
X128418Y149463D01*
X128428Y149379D01*
X128441Y149295D01*
X128459Y149212D01*
X128480Y149130D01*
X128505Y149049D01*
X128534Y148969D01*
X128566Y148891D01*
X128602Y148815D01*
X128642Y148740D01*
X128685Y148667D01*
X128731Y148596D01*
X128780Y148527D01*
X128833Y148460D01*
X128889Y148396D01*
X128947Y148335D01*
X129008Y148277D01*
X129072Y148221D01*
X129139Y148168D01*
X129208Y148119D01*
X129279Y148073D01*
X129352Y148030D01*
X129427Y147990D01*
X129503Y147954D01*
X129581Y147922D01*
X129661Y147893D01*
X129742Y147868D01*
X129824Y147847D01*
X129907Y147829D01*
X129991Y147816D01*
X130075Y147806D01*
X130159Y147800D01*
X130244Y147798D01*
X130244Y147797D02*
X132078Y147797D01*
X129877Y147797D02*
X128409Y144862D01*
X124842Y149998D02*
X123007Y151466D01*
X123007Y144862D01*
X121173Y144862D02*
X124842Y144862D01*
X86078Y145862D02*
X86078Y152466D01*
X84244Y152466D01*
X84159Y152464D01*
X84075Y152458D01*
X83991Y152448D01*
X83907Y152435D01*
X83824Y152417D01*
X83742Y152396D01*
X83661Y152371D01*
X83581Y152342D01*
X83503Y152310D01*
X83427Y152274D01*
X83352Y152234D01*
X83279Y152191D01*
X83208Y152145D01*
X83139Y152096D01*
X83072Y152043D01*
X83008Y151987D01*
X82947Y151929D01*
X82889Y151868D01*
X82833Y151804D01*
X82780Y151737D01*
X82731Y151668D01*
X82685Y151597D01*
X82642Y151524D01*
X82602Y151449D01*
X82566Y151373D01*
X82534Y151295D01*
X82505Y151215D01*
X82480Y151134D01*
X82459Y151052D01*
X82441Y150969D01*
X82428Y150885D01*
X82418Y150801D01*
X82412Y150717D01*
X82410Y150632D01*
X82412Y150547D01*
X82418Y150463D01*
X82428Y150379D01*
X82441Y150295D01*
X82459Y150212D01*
X82480Y150130D01*
X82505Y150049D01*
X82534Y149969D01*
X82566Y149891D01*
X82602Y149815D01*
X82642Y149740D01*
X82685Y149667D01*
X82731Y149596D01*
X82780Y149527D01*
X82833Y149460D01*
X82889Y149396D01*
X82947Y149335D01*
X83008Y149277D01*
X83072Y149221D01*
X83139Y149168D01*
X83208Y149119D01*
X83279Y149073D01*
X83352Y149030D01*
X83427Y148990D01*
X83503Y148954D01*
X83581Y148922D01*
X83661Y148893D01*
X83742Y148868D01*
X83824Y148847D01*
X83907Y148829D01*
X83991Y148816D01*
X84075Y148806D01*
X84159Y148800D01*
X84244Y148798D01*
X84244Y148797D02*
X86078Y148797D01*
X83877Y148797D02*
X82409Y145862D01*
X76824Y152466D02*
X76745Y152464D01*
X76667Y152459D01*
X76589Y152449D01*
X76512Y152436D01*
X76435Y152419D01*
X76359Y152399D01*
X76284Y152375D01*
X76210Y152348D01*
X76138Y152317D01*
X76067Y152282D01*
X75999Y152245D01*
X75931Y152204D01*
X75866Y152160D01*
X75803Y152113D01*
X75743Y152063D01*
X75685Y152010D01*
X75629Y151954D01*
X75576Y151896D01*
X75526Y151836D01*
X75479Y151773D01*
X75435Y151708D01*
X75394Y151641D01*
X75357Y151572D01*
X75322Y151501D01*
X75291Y151429D01*
X75264Y151355D01*
X75240Y151280D01*
X75220Y151204D01*
X75203Y151127D01*
X75190Y151050D01*
X75180Y150972D01*
X75175Y150894D01*
X75173Y150815D01*
X76824Y152466D02*
X76913Y152464D01*
X77002Y152459D01*
X77090Y152449D01*
X77178Y152436D01*
X77265Y152420D01*
X77352Y152399D01*
X77437Y152375D01*
X77522Y152348D01*
X77605Y152317D01*
X77687Y152282D01*
X77768Y152244D01*
X77847Y152203D01*
X77923Y152159D01*
X77999Y152111D01*
X78072Y152060D01*
X78142Y152007D01*
X78211Y151950D01*
X78277Y151890D01*
X78340Y151828D01*
X78401Y151763D01*
X78459Y151696D01*
X78514Y151626D01*
X78567Y151554D01*
X78616Y151480D01*
X78662Y151404D01*
X78704Y151326D01*
X78744Y151246D01*
X78780Y151165D01*
X78813Y151082D01*
X78842Y150998D01*
X75723Y149531D02*
X75667Y149587D01*
X75613Y149646D01*
X75562Y149707D01*
X75513Y149771D01*
X75468Y149836D01*
X75425Y149904D01*
X75386Y149973D01*
X75349Y150044D01*
X75316Y150117D01*
X75287Y150191D01*
X75260Y150266D01*
X75237Y150342D01*
X75218Y150420D01*
X75202Y150498D01*
X75189Y150576D01*
X75180Y150656D01*
X75175Y150735D01*
X75173Y150815D01*
X75723Y149531D02*
X78842Y145862D01*
X75173Y145862D01*
D11*
X135570Y212960D02*
X165570Y212960D01*
X165570Y162960D01*
X135570Y162960D01*
X95570Y212960D02*
X75570Y212960D01*
X65570Y202960D01*
X65570Y172960D01*
X75570Y162960D01*
X95570Y162960D01*
D12*
X140720Y225320D02*
X140720Y262320D01*
X170720Y262320D02*
X170720Y225320D01*
D13*
X160699Y270871D02*
X159062Y270871D01*
X160699Y270871D02*
X160777Y270873D01*
X160855Y270878D01*
X160932Y270888D01*
X161009Y270901D01*
X161085Y270917D01*
X161160Y270937D01*
X161234Y270961D01*
X161307Y270988D01*
X161379Y271019D01*
X161449Y271053D01*
X161518Y271090D01*
X161584Y271131D01*
X161649Y271175D01*
X161711Y271221D01*
X161771Y271271D01*
X161829Y271323D01*
X161884Y271378D01*
X161936Y271436D01*
X161986Y271496D01*
X162032Y271558D01*
X162076Y271623D01*
X162117Y271690D01*
X162154Y271758D01*
X162188Y271828D01*
X162219Y271900D01*
X162246Y271973D01*
X162270Y272047D01*
X162290Y272122D01*
X162306Y272198D01*
X162319Y272275D01*
X162329Y272352D01*
X162334Y272430D01*
X162336Y272508D01*
X162336Y276600D01*
X162334Y276678D01*
X162329Y276756D01*
X162319Y276833D01*
X162306Y276910D01*
X162290Y276986D01*
X162270Y277061D01*
X162246Y277135D01*
X162219Y277208D01*
X162188Y277280D01*
X162154Y277350D01*
X162117Y277419D01*
X162076Y277485D01*
X162032Y277550D01*
X161986Y277612D01*
X161936Y277672D01*
X161884Y277730D01*
X161829Y277785D01*
X161771Y277837D01*
X161711Y277887D01*
X161649Y277933D01*
X161584Y277977D01*
X161518Y278018D01*
X161449Y278055D01*
X161379Y278089D01*
X161307Y278120D01*
X161234Y278147D01*
X161160Y278171D01*
X161085Y278191D01*
X161009Y278207D01*
X160932Y278220D01*
X160855Y278230D01*
X160777Y278235D01*
X160699Y278237D01*
X159062Y278237D01*
X153966Y278238D02*
X153881Y278236D01*
X153796Y278230D01*
X153712Y278220D01*
X153628Y278207D01*
X153544Y278189D01*
X153462Y278168D01*
X153381Y278143D01*
X153301Y278114D01*
X153222Y278081D01*
X153145Y278045D01*
X153070Y278005D01*
X152996Y277962D01*
X152925Y277916D01*
X152856Y277866D01*
X152789Y277813D01*
X152725Y277757D01*
X152664Y277698D01*
X152605Y277637D01*
X152549Y277573D01*
X152496Y277506D01*
X152446Y277437D01*
X152400Y277366D01*
X152357Y277292D01*
X152317Y277217D01*
X152281Y277140D01*
X152248Y277061D01*
X152219Y276981D01*
X152194Y276900D01*
X152173Y276818D01*
X152155Y276734D01*
X152142Y276650D01*
X152132Y276566D01*
X152126Y276481D01*
X152124Y276396D01*
X153966Y278237D02*
X154062Y278235D01*
X154158Y278229D01*
X154253Y278219D01*
X154348Y278206D01*
X154443Y278188D01*
X154536Y278167D01*
X154629Y278142D01*
X154720Y278113D01*
X154811Y278081D01*
X154900Y278045D01*
X154987Y278005D01*
X155073Y277962D01*
X155157Y277916D01*
X155239Y277866D01*
X155319Y277812D01*
X155396Y277756D01*
X155471Y277696D01*
X155544Y277634D01*
X155614Y277568D01*
X155682Y277500D01*
X155747Y277429D01*
X155808Y277356D01*
X155867Y277280D01*
X155923Y277201D01*
X155975Y277121D01*
X156024Y277038D01*
X156070Y276954D01*
X156112Y276868D01*
X156150Y276780D01*
X156185Y276691D01*
X156217Y276600D01*
X152738Y274964D02*
X152678Y275023D01*
X152621Y275085D01*
X152566Y275149D01*
X152515Y275216D01*
X152466Y275285D01*
X152420Y275355D01*
X152377Y275428D01*
X152337Y275502D01*
X152301Y275578D01*
X152268Y275656D01*
X152238Y275735D01*
X152211Y275815D01*
X152188Y275896D01*
X152169Y275978D01*
X152153Y276060D01*
X152140Y276144D01*
X152131Y276228D01*
X152126Y276312D01*
X152124Y276396D01*
X152738Y274963D02*
X156217Y270871D01*
X152124Y270871D01*
D12*
X89440Y261990D02*
X89440Y224990D01*
X59440Y224990D02*
X59440Y261990D01*
D13*
X76832Y270541D02*
X78469Y270541D01*
X78547Y270543D01*
X78625Y270548D01*
X78702Y270558D01*
X78779Y270571D01*
X78855Y270587D01*
X78930Y270607D01*
X79004Y270631D01*
X79077Y270658D01*
X79149Y270689D01*
X79219Y270723D01*
X79288Y270760D01*
X79354Y270801D01*
X79419Y270845D01*
X79481Y270891D01*
X79541Y270941D01*
X79599Y270993D01*
X79654Y271048D01*
X79706Y271106D01*
X79756Y271166D01*
X79802Y271228D01*
X79846Y271293D01*
X79887Y271360D01*
X79924Y271428D01*
X79958Y271498D01*
X79989Y271570D01*
X80016Y271643D01*
X80040Y271717D01*
X80060Y271792D01*
X80076Y271868D01*
X80089Y271945D01*
X80099Y272022D01*
X80104Y272100D01*
X80106Y272178D01*
X80106Y276270D01*
X80104Y276348D01*
X80099Y276426D01*
X80089Y276503D01*
X80076Y276580D01*
X80060Y276656D01*
X80040Y276731D01*
X80016Y276805D01*
X79989Y276878D01*
X79958Y276950D01*
X79924Y277020D01*
X79887Y277089D01*
X79846Y277155D01*
X79802Y277220D01*
X79756Y277282D01*
X79706Y277342D01*
X79654Y277400D01*
X79599Y277455D01*
X79541Y277507D01*
X79481Y277557D01*
X79419Y277603D01*
X79354Y277647D01*
X79288Y277688D01*
X79219Y277725D01*
X79149Y277759D01*
X79077Y277790D01*
X79004Y277817D01*
X78930Y277841D01*
X78855Y277861D01*
X78779Y277877D01*
X78702Y277890D01*
X78625Y277900D01*
X78547Y277905D01*
X78469Y277907D01*
X76832Y277907D01*
X73987Y270541D02*
X71940Y270541D01*
X71851Y270543D01*
X71762Y270549D01*
X71673Y270559D01*
X71585Y270572D01*
X71497Y270589D01*
X71410Y270611D01*
X71325Y270636D01*
X71240Y270664D01*
X71157Y270697D01*
X71075Y270733D01*
X70995Y270772D01*
X70917Y270815D01*
X70841Y270861D01*
X70766Y270911D01*
X70694Y270964D01*
X70625Y271020D01*
X70558Y271079D01*
X70493Y271140D01*
X70432Y271205D01*
X70373Y271272D01*
X70317Y271341D01*
X70264Y271413D01*
X70214Y271488D01*
X70168Y271564D01*
X70125Y271642D01*
X70086Y271722D01*
X70050Y271804D01*
X70017Y271887D01*
X69989Y271972D01*
X69964Y272057D01*
X69942Y272144D01*
X69925Y272232D01*
X69912Y272320D01*
X69902Y272409D01*
X69896Y272498D01*
X69894Y272587D01*
X69896Y272676D01*
X69902Y272765D01*
X69912Y272854D01*
X69925Y272942D01*
X69942Y273030D01*
X69964Y273117D01*
X69989Y273202D01*
X70017Y273287D01*
X70050Y273370D01*
X70086Y273452D01*
X70125Y273532D01*
X70168Y273610D01*
X70214Y273686D01*
X70264Y273761D01*
X70317Y273833D01*
X70373Y273902D01*
X70432Y273969D01*
X70493Y274034D01*
X70558Y274095D01*
X70625Y274154D01*
X70694Y274210D01*
X70766Y274263D01*
X70841Y274313D01*
X70917Y274359D01*
X70995Y274402D01*
X71075Y274441D01*
X71157Y274477D01*
X71240Y274510D01*
X71325Y274538D01*
X71410Y274563D01*
X71497Y274585D01*
X71585Y274602D01*
X71673Y274615D01*
X71762Y274625D01*
X71851Y274631D01*
X71940Y274633D01*
X71531Y277907D02*
X73987Y277907D01*
X71531Y277907D02*
X71452Y277905D01*
X71373Y277899D01*
X71294Y277890D01*
X71216Y277877D01*
X71139Y277859D01*
X71063Y277839D01*
X70988Y277814D01*
X70914Y277786D01*
X70841Y277755D01*
X70770Y277719D01*
X70701Y277681D01*
X70634Y277639D01*
X70569Y277594D01*
X70506Y277546D01*
X70445Y277495D01*
X70388Y277441D01*
X70332Y277385D01*
X70280Y277326D01*
X70230Y277264D01*
X70184Y277200D01*
X70140Y277134D01*
X70100Y277066D01*
X70064Y276996D01*
X70030Y276924D01*
X70000Y276850D01*
X69974Y276776D01*
X69951Y276700D01*
X69933Y276623D01*
X69917Y276546D01*
X69906Y276467D01*
X69898Y276389D01*
X69894Y276310D01*
X69894Y276230D01*
X69898Y276151D01*
X69906Y276073D01*
X69917Y275994D01*
X69933Y275917D01*
X69951Y275840D01*
X69974Y275764D01*
X70000Y275690D01*
X70030Y275616D01*
X70064Y275544D01*
X70100Y275474D01*
X70140Y275406D01*
X70184Y275340D01*
X70230Y275276D01*
X70280Y275214D01*
X70332Y275155D01*
X70388Y275099D01*
X70445Y275045D01*
X70506Y274994D01*
X70569Y274946D01*
X70634Y274901D01*
X70701Y274859D01*
X70770Y274821D01*
X70841Y274785D01*
X70914Y274754D01*
X70988Y274726D01*
X71063Y274701D01*
X71139Y274681D01*
X71216Y274663D01*
X71294Y274650D01*
X71373Y274641D01*
X71452Y274635D01*
X71531Y274633D01*
X73168Y274633D01*
D10*
X82965Y126382D02*
X84433Y126382D01*
X84507Y126384D01*
X84582Y126390D01*
X84655Y126399D01*
X84729Y126412D01*
X84801Y126429D01*
X84872Y126449D01*
X84943Y126473D01*
X85012Y126501D01*
X85080Y126532D01*
X85145Y126566D01*
X85210Y126604D01*
X85272Y126645D01*
X85332Y126689D01*
X85389Y126736D01*
X85444Y126786D01*
X85497Y126839D01*
X85547Y126894D01*
X85594Y126951D01*
X85638Y127011D01*
X85679Y127073D01*
X85717Y127138D01*
X85751Y127204D01*
X85782Y127271D01*
X85810Y127340D01*
X85834Y127411D01*
X85854Y127482D01*
X85871Y127555D01*
X85884Y127628D01*
X85893Y127702D01*
X85899Y127776D01*
X85901Y127850D01*
X85900Y127850D02*
X85900Y131518D01*
X85901Y131518D02*
X85899Y131592D01*
X85893Y131667D01*
X85884Y131740D01*
X85871Y131813D01*
X85854Y131886D01*
X85834Y131957D01*
X85810Y132028D01*
X85782Y132097D01*
X85751Y132164D01*
X85717Y132230D01*
X85679Y132295D01*
X85638Y132357D01*
X85594Y132417D01*
X85547Y132474D01*
X85497Y132529D01*
X85444Y132582D01*
X85389Y132632D01*
X85332Y132679D01*
X85272Y132723D01*
X85210Y132764D01*
X85145Y132802D01*
X85080Y132836D01*
X85012Y132867D01*
X84943Y132895D01*
X84873Y132919D01*
X84801Y132939D01*
X84729Y132956D01*
X84655Y132969D01*
X84582Y132978D01*
X84507Y132984D01*
X84433Y132986D01*
X82965Y132986D01*
X78301Y132986D02*
X79769Y127850D01*
X76100Y127850D01*
X77200Y129317D02*
X77200Y126382D01*
M02*
