G04 EAGLE Gerber RS-274X export*
G75*
%MOMM*%
%FSLAX34Y34*%
%LPD*%
%INSilkscreen Top*%
%IPPOS*%
%AMOC8*
5,1,8,0,0,1.08239X$1,22.5*%
G01*
%ADD10C,0.101600*%
%ADD11C,0.152400*%
%ADD12C,0.127000*%
%ADD13C,0.203200*%
%ADD14R,0.200000X0.200000*%


D10*
X61302Y162490D02*
X70389Y162490D01*
X70488Y162488D01*
X70588Y162482D01*
X70687Y162473D01*
X70785Y162460D01*
X70883Y162443D01*
X70981Y162422D01*
X71077Y162397D01*
X71172Y162369D01*
X71266Y162337D01*
X71359Y162302D01*
X71451Y162263D01*
X71541Y162220D01*
X71629Y162175D01*
X71716Y162125D01*
X71800Y162073D01*
X71883Y162017D01*
X71963Y161959D01*
X72041Y161897D01*
X72116Y161832D01*
X72189Y161764D01*
X72259Y161694D01*
X72327Y161621D01*
X72392Y161546D01*
X72454Y161468D01*
X72512Y161388D01*
X72568Y161305D01*
X72620Y161221D01*
X72670Y161134D01*
X72715Y161046D01*
X72758Y160956D01*
X72797Y160864D01*
X72832Y160771D01*
X72864Y160677D01*
X72892Y160582D01*
X72917Y160486D01*
X72938Y160388D01*
X72955Y160290D01*
X72968Y160192D01*
X72977Y160093D01*
X72983Y159993D01*
X72985Y159894D01*
X72986Y159894D02*
X72986Y158596D01*
X72986Y168167D02*
X61302Y168167D01*
X72986Y168167D02*
X72986Y173360D01*
X72986Y180233D02*
X72986Y182829D01*
X72985Y180233D02*
X72983Y180134D01*
X72977Y180034D01*
X72968Y179935D01*
X72955Y179837D01*
X72938Y179739D01*
X72917Y179641D01*
X72892Y179545D01*
X72864Y179450D01*
X72832Y179356D01*
X72797Y179263D01*
X72758Y179171D01*
X72715Y179081D01*
X72670Y178993D01*
X72620Y178906D01*
X72568Y178822D01*
X72512Y178739D01*
X72454Y178659D01*
X72392Y178581D01*
X72327Y178506D01*
X72259Y178433D01*
X72189Y178363D01*
X72116Y178295D01*
X72041Y178230D01*
X71963Y178168D01*
X71883Y178110D01*
X71800Y178054D01*
X71716Y178002D01*
X71629Y177952D01*
X71541Y177907D01*
X71451Y177864D01*
X71359Y177825D01*
X71266Y177790D01*
X71172Y177758D01*
X71077Y177730D01*
X70981Y177705D01*
X70883Y177684D01*
X70785Y177667D01*
X70687Y177654D01*
X70588Y177645D01*
X70488Y177639D01*
X70389Y177637D01*
X70389Y177636D02*
X63898Y177636D01*
X63799Y177638D01*
X63699Y177644D01*
X63600Y177653D01*
X63502Y177666D01*
X63404Y177684D01*
X63306Y177704D01*
X63210Y177729D01*
X63114Y177757D01*
X63020Y177789D01*
X62927Y177824D01*
X62836Y177863D01*
X62746Y177906D01*
X62657Y177951D01*
X62571Y178001D01*
X62486Y178053D01*
X62404Y178109D01*
X62324Y178168D01*
X62246Y178229D01*
X62170Y178294D01*
X62097Y178362D01*
X62027Y178432D01*
X61959Y178505D01*
X61894Y178581D01*
X61833Y178659D01*
X61774Y178739D01*
X61718Y178821D01*
X61666Y178906D01*
X61617Y178992D01*
X61571Y179081D01*
X61528Y179171D01*
X61489Y179262D01*
X61454Y179355D01*
X61422Y179449D01*
X61394Y179545D01*
X61369Y179641D01*
X61349Y179739D01*
X61331Y179837D01*
X61318Y179935D01*
X61309Y180034D01*
X61303Y180133D01*
X61301Y180233D01*
X61302Y180233D02*
X61302Y182829D01*
X61302Y189922D02*
X70389Y189922D01*
X70488Y189920D01*
X70588Y189914D01*
X70687Y189905D01*
X70785Y189892D01*
X70883Y189875D01*
X70981Y189854D01*
X71077Y189829D01*
X71172Y189801D01*
X71266Y189769D01*
X71359Y189734D01*
X71451Y189695D01*
X71541Y189652D01*
X71629Y189607D01*
X71716Y189557D01*
X71800Y189505D01*
X71883Y189449D01*
X71963Y189391D01*
X72041Y189329D01*
X72116Y189264D01*
X72189Y189196D01*
X72259Y189126D01*
X72327Y189053D01*
X72392Y188978D01*
X72454Y188900D01*
X72512Y188820D01*
X72568Y188737D01*
X72620Y188653D01*
X72670Y188566D01*
X72715Y188478D01*
X72758Y188388D01*
X72797Y188296D01*
X72832Y188203D01*
X72864Y188109D01*
X72892Y188014D01*
X72917Y187918D01*
X72938Y187820D01*
X72955Y187722D01*
X72968Y187624D01*
X72977Y187525D01*
X72983Y187425D01*
X72985Y187326D01*
X72986Y187326D02*
X72986Y186028D01*
X72986Y195599D02*
X61302Y195599D01*
X72986Y195599D02*
X72986Y200792D01*
X72986Y207665D02*
X72986Y210261D01*
X72985Y207665D02*
X72983Y207566D01*
X72977Y207466D01*
X72968Y207367D01*
X72955Y207269D01*
X72938Y207171D01*
X72917Y207073D01*
X72892Y206977D01*
X72864Y206882D01*
X72832Y206788D01*
X72797Y206695D01*
X72758Y206603D01*
X72715Y206513D01*
X72670Y206425D01*
X72620Y206338D01*
X72568Y206254D01*
X72512Y206171D01*
X72454Y206091D01*
X72392Y206013D01*
X72327Y205938D01*
X72259Y205865D01*
X72189Y205795D01*
X72116Y205727D01*
X72041Y205662D01*
X71963Y205600D01*
X71883Y205542D01*
X71800Y205486D01*
X71716Y205434D01*
X71629Y205384D01*
X71541Y205339D01*
X71451Y205296D01*
X71359Y205257D01*
X71266Y205222D01*
X71172Y205190D01*
X71077Y205162D01*
X70981Y205137D01*
X70883Y205116D01*
X70785Y205099D01*
X70687Y205086D01*
X70588Y205077D01*
X70488Y205071D01*
X70389Y205069D01*
X70389Y205068D02*
X63898Y205068D01*
X63799Y205070D01*
X63699Y205076D01*
X63600Y205085D01*
X63502Y205098D01*
X63404Y205116D01*
X63306Y205136D01*
X63210Y205161D01*
X63114Y205189D01*
X63020Y205221D01*
X62927Y205256D01*
X62836Y205295D01*
X62746Y205338D01*
X62657Y205383D01*
X62571Y205433D01*
X62486Y205485D01*
X62404Y205541D01*
X62324Y205600D01*
X62246Y205661D01*
X62170Y205726D01*
X62097Y205794D01*
X62027Y205864D01*
X61959Y205937D01*
X61894Y206013D01*
X61833Y206091D01*
X61774Y206171D01*
X61718Y206253D01*
X61666Y206338D01*
X61617Y206424D01*
X61571Y206513D01*
X61528Y206603D01*
X61489Y206694D01*
X61454Y206787D01*
X61422Y206881D01*
X61394Y206977D01*
X61369Y207073D01*
X61349Y207171D01*
X61331Y207269D01*
X61318Y207367D01*
X61309Y207466D01*
X61303Y207565D01*
X61301Y207665D01*
X61302Y207665D02*
X61302Y210261D01*
X61302Y217354D02*
X70389Y217354D01*
X70488Y217352D01*
X70588Y217346D01*
X70687Y217337D01*
X70785Y217324D01*
X70883Y217307D01*
X70981Y217286D01*
X71077Y217261D01*
X71172Y217233D01*
X71266Y217201D01*
X71359Y217166D01*
X71451Y217127D01*
X71541Y217084D01*
X71629Y217039D01*
X71716Y216989D01*
X71800Y216937D01*
X71883Y216881D01*
X71963Y216823D01*
X72041Y216761D01*
X72116Y216696D01*
X72189Y216628D01*
X72259Y216558D01*
X72327Y216485D01*
X72392Y216410D01*
X72454Y216332D01*
X72512Y216252D01*
X72568Y216169D01*
X72620Y216085D01*
X72670Y215998D01*
X72715Y215910D01*
X72758Y215820D01*
X72797Y215728D01*
X72832Y215635D01*
X72864Y215541D01*
X72892Y215446D01*
X72917Y215350D01*
X72938Y215252D01*
X72955Y215154D01*
X72968Y215056D01*
X72977Y214957D01*
X72983Y214857D01*
X72985Y214758D01*
X72986Y214758D02*
X72986Y213460D01*
X72986Y223031D02*
X61302Y223031D01*
X72986Y223031D02*
X72986Y228224D01*
X72986Y235097D02*
X72986Y237693D01*
X72985Y235097D02*
X72983Y234998D01*
X72977Y234898D01*
X72968Y234799D01*
X72955Y234701D01*
X72938Y234603D01*
X72917Y234505D01*
X72892Y234409D01*
X72864Y234314D01*
X72832Y234220D01*
X72797Y234127D01*
X72758Y234035D01*
X72715Y233945D01*
X72670Y233857D01*
X72620Y233770D01*
X72568Y233686D01*
X72512Y233603D01*
X72454Y233523D01*
X72392Y233445D01*
X72327Y233370D01*
X72259Y233297D01*
X72189Y233227D01*
X72116Y233159D01*
X72041Y233094D01*
X71963Y233032D01*
X71883Y232974D01*
X71800Y232918D01*
X71716Y232866D01*
X71629Y232816D01*
X71541Y232771D01*
X71451Y232728D01*
X71359Y232689D01*
X71266Y232654D01*
X71172Y232622D01*
X71077Y232594D01*
X70981Y232569D01*
X70883Y232548D01*
X70785Y232531D01*
X70687Y232518D01*
X70588Y232509D01*
X70488Y232503D01*
X70389Y232501D01*
X70389Y232500D02*
X63898Y232500D01*
X63799Y232502D01*
X63699Y232508D01*
X63600Y232517D01*
X63502Y232530D01*
X63404Y232548D01*
X63306Y232568D01*
X63210Y232593D01*
X63114Y232621D01*
X63020Y232653D01*
X62927Y232688D01*
X62836Y232727D01*
X62746Y232770D01*
X62657Y232815D01*
X62571Y232865D01*
X62486Y232917D01*
X62404Y232973D01*
X62324Y233032D01*
X62246Y233093D01*
X62170Y233158D01*
X62097Y233226D01*
X62027Y233296D01*
X61959Y233369D01*
X61894Y233445D01*
X61833Y233523D01*
X61774Y233603D01*
X61718Y233685D01*
X61666Y233770D01*
X61617Y233856D01*
X61571Y233945D01*
X61528Y234035D01*
X61489Y234126D01*
X61454Y234219D01*
X61422Y234313D01*
X61394Y234409D01*
X61369Y234505D01*
X61349Y234603D01*
X61331Y234701D01*
X61318Y234799D01*
X61309Y234898D01*
X61303Y234997D01*
X61301Y235097D01*
X61302Y235097D02*
X61302Y237693D01*
X61302Y244786D02*
X70389Y244786D01*
X70488Y244784D01*
X70588Y244778D01*
X70687Y244769D01*
X70785Y244756D01*
X70883Y244739D01*
X70981Y244718D01*
X71077Y244693D01*
X71172Y244665D01*
X71266Y244633D01*
X71359Y244598D01*
X71451Y244559D01*
X71541Y244516D01*
X71629Y244471D01*
X71716Y244421D01*
X71800Y244369D01*
X71883Y244313D01*
X71963Y244255D01*
X72041Y244193D01*
X72116Y244128D01*
X72189Y244060D01*
X72259Y243990D01*
X72327Y243917D01*
X72392Y243842D01*
X72454Y243764D01*
X72512Y243684D01*
X72568Y243601D01*
X72620Y243517D01*
X72670Y243430D01*
X72715Y243342D01*
X72758Y243252D01*
X72797Y243160D01*
X72832Y243067D01*
X72864Y242973D01*
X72892Y242878D01*
X72917Y242782D01*
X72938Y242684D01*
X72955Y242586D01*
X72968Y242488D01*
X72977Y242389D01*
X72983Y242289D01*
X72985Y242190D01*
X72986Y242190D02*
X72986Y240892D01*
X72986Y250463D02*
X61302Y250463D01*
X72986Y250463D02*
X72986Y255656D01*
X72986Y262529D02*
X72986Y265125D01*
X72985Y262529D02*
X72983Y262430D01*
X72977Y262330D01*
X72968Y262231D01*
X72955Y262133D01*
X72938Y262035D01*
X72917Y261937D01*
X72892Y261841D01*
X72864Y261746D01*
X72832Y261652D01*
X72797Y261559D01*
X72758Y261467D01*
X72715Y261377D01*
X72670Y261289D01*
X72620Y261202D01*
X72568Y261118D01*
X72512Y261035D01*
X72454Y260955D01*
X72392Y260877D01*
X72327Y260802D01*
X72259Y260729D01*
X72189Y260659D01*
X72116Y260591D01*
X72041Y260526D01*
X71963Y260464D01*
X71883Y260406D01*
X71800Y260350D01*
X71716Y260298D01*
X71629Y260248D01*
X71541Y260203D01*
X71451Y260160D01*
X71359Y260121D01*
X71266Y260086D01*
X71172Y260054D01*
X71077Y260026D01*
X70981Y260001D01*
X70883Y259980D01*
X70785Y259963D01*
X70687Y259950D01*
X70588Y259941D01*
X70488Y259935D01*
X70389Y259933D01*
X70389Y259932D02*
X63898Y259932D01*
X63799Y259934D01*
X63699Y259940D01*
X63600Y259949D01*
X63502Y259962D01*
X63404Y259980D01*
X63306Y260000D01*
X63210Y260025D01*
X63114Y260053D01*
X63020Y260085D01*
X62927Y260120D01*
X62836Y260159D01*
X62746Y260202D01*
X62657Y260247D01*
X62571Y260297D01*
X62486Y260349D01*
X62404Y260405D01*
X62324Y260464D01*
X62246Y260525D01*
X62170Y260590D01*
X62097Y260658D01*
X62027Y260728D01*
X61959Y260801D01*
X61894Y260877D01*
X61833Y260955D01*
X61774Y261035D01*
X61718Y261117D01*
X61666Y261202D01*
X61617Y261288D01*
X61571Y261377D01*
X61528Y261467D01*
X61489Y261558D01*
X61454Y261651D01*
X61422Y261745D01*
X61394Y261841D01*
X61369Y261937D01*
X61349Y262035D01*
X61331Y262133D01*
X61318Y262231D01*
X61309Y262330D01*
X61303Y262429D01*
X61301Y262529D01*
X61302Y262529D02*
X61302Y265125D01*
D11*
X141202Y14236D02*
X141202Y7632D01*
X144137Y7632D01*
X147542Y7632D02*
X150477Y7632D01*
X147542Y7632D02*
X147542Y14236D01*
X150477Y14236D01*
X149743Y11301D02*
X147542Y11301D01*
X153857Y14236D02*
X153857Y7632D01*
X153857Y14236D02*
X155692Y14236D01*
X155777Y14234D01*
X155861Y14228D01*
X155945Y14218D01*
X156029Y14205D01*
X156112Y14187D01*
X156194Y14166D01*
X156275Y14141D01*
X156355Y14112D01*
X156433Y14080D01*
X156509Y14044D01*
X156584Y14004D01*
X156657Y13961D01*
X156728Y13915D01*
X156797Y13866D01*
X156864Y13813D01*
X156928Y13757D01*
X156989Y13699D01*
X157047Y13638D01*
X157103Y13574D01*
X157156Y13507D01*
X157205Y13438D01*
X157251Y13367D01*
X157294Y13294D01*
X157334Y13219D01*
X157370Y13143D01*
X157402Y13065D01*
X157431Y12985D01*
X157456Y12904D01*
X157477Y12822D01*
X157495Y12739D01*
X157508Y12655D01*
X157518Y12571D01*
X157524Y12487D01*
X157526Y12402D01*
X157526Y9466D01*
X157524Y9381D01*
X157518Y9297D01*
X157508Y9213D01*
X157495Y9129D01*
X157477Y9046D01*
X157456Y8964D01*
X157431Y8883D01*
X157402Y8803D01*
X157370Y8725D01*
X157334Y8649D01*
X157294Y8574D01*
X157251Y8501D01*
X157205Y8430D01*
X157156Y8361D01*
X157103Y8294D01*
X157047Y8230D01*
X156989Y8169D01*
X156928Y8111D01*
X156864Y8055D01*
X156797Y8002D01*
X156728Y7953D01*
X156657Y7907D01*
X156584Y7864D01*
X156509Y7824D01*
X156433Y7788D01*
X156355Y7756D01*
X156275Y7727D01*
X156194Y7702D01*
X156112Y7681D01*
X156029Y7663D01*
X155945Y7650D01*
X155861Y7640D01*
X155777Y7634D01*
X155692Y7632D01*
X153857Y7632D01*
X55426Y119051D02*
X53592Y119051D01*
X55426Y119050D02*
X55511Y119048D01*
X55595Y119042D01*
X55679Y119032D01*
X55763Y119019D01*
X55846Y119001D01*
X55928Y118980D01*
X56009Y118955D01*
X56089Y118926D01*
X56167Y118894D01*
X56243Y118858D01*
X56318Y118818D01*
X56391Y118775D01*
X56462Y118729D01*
X56531Y118680D01*
X56598Y118627D01*
X56662Y118571D01*
X56723Y118513D01*
X56781Y118452D01*
X56837Y118388D01*
X56890Y118321D01*
X56939Y118252D01*
X56985Y118181D01*
X57028Y118108D01*
X57068Y118033D01*
X57104Y117957D01*
X57136Y117879D01*
X57165Y117799D01*
X57190Y117718D01*
X57211Y117636D01*
X57229Y117553D01*
X57242Y117469D01*
X57252Y117385D01*
X57258Y117301D01*
X57260Y117216D01*
X57258Y117131D01*
X57252Y117047D01*
X57242Y116963D01*
X57229Y116879D01*
X57211Y116796D01*
X57190Y116714D01*
X57165Y116633D01*
X57136Y116553D01*
X57104Y116475D01*
X57068Y116399D01*
X57028Y116324D01*
X56985Y116251D01*
X56939Y116180D01*
X56890Y116111D01*
X56837Y116044D01*
X56781Y115980D01*
X56723Y115919D01*
X56662Y115861D01*
X56598Y115805D01*
X56531Y115752D01*
X56462Y115703D01*
X56391Y115657D01*
X56318Y115614D01*
X56243Y115574D01*
X56167Y115538D01*
X56089Y115506D01*
X56009Y115477D01*
X55928Y115452D01*
X55846Y115431D01*
X55763Y115413D01*
X55679Y115400D01*
X55595Y115390D01*
X55511Y115384D01*
X55426Y115382D01*
X53592Y115382D01*
X53592Y121986D01*
X55426Y121986D01*
X55502Y121984D01*
X55577Y121978D01*
X55652Y121969D01*
X55726Y121955D01*
X55800Y121938D01*
X55872Y121916D01*
X55944Y121892D01*
X56014Y121863D01*
X56082Y121831D01*
X56149Y121796D01*
X56214Y121757D01*
X56277Y121714D01*
X56337Y121669D01*
X56395Y121621D01*
X56451Y121569D01*
X56503Y121515D01*
X56553Y121458D01*
X56600Y121399D01*
X56644Y121338D01*
X56685Y121274D01*
X56722Y121208D01*
X56756Y121140D01*
X56786Y121071D01*
X56813Y121000D01*
X56836Y120928D01*
X56855Y120855D01*
X56870Y120781D01*
X56882Y120706D01*
X56890Y120631D01*
X56894Y120556D01*
X56894Y120480D01*
X56890Y120405D01*
X56882Y120330D01*
X56870Y120255D01*
X56855Y120181D01*
X56836Y120108D01*
X56813Y120036D01*
X56786Y119965D01*
X56756Y119896D01*
X56722Y119828D01*
X56685Y119762D01*
X56644Y119698D01*
X56600Y119637D01*
X56553Y119578D01*
X56503Y119521D01*
X56451Y119467D01*
X56395Y119415D01*
X56337Y119367D01*
X56277Y119322D01*
X56214Y119279D01*
X56149Y119240D01*
X56082Y119205D01*
X56014Y119173D01*
X55944Y119144D01*
X55872Y119120D01*
X55800Y119098D01*
X55726Y119081D01*
X55652Y119067D01*
X55577Y119058D01*
X55502Y119052D01*
X55426Y119050D01*
X61829Y121986D02*
X61829Y115382D01*
X63663Y121986D02*
X59994Y121986D01*
X67066Y121986D02*
X67066Y115382D01*
X70735Y115382D02*
X67066Y121986D01*
X70735Y121986D02*
X70735Y115382D01*
X74625Y120518D02*
X76459Y121986D01*
X76459Y115382D01*
X74625Y115382D02*
X78294Y115382D01*
X134872Y110358D02*
X136706Y111826D01*
X136706Y105222D01*
X134872Y105222D02*
X138541Y105222D01*
D12*
X185420Y144780D02*
X185420Y374780D01*
X44020Y374780D01*
X44020Y144780D01*
X185420Y144780D01*
X170340Y334780D02*
X170340Y364780D01*
X160340Y364780D01*
X160340Y338580D01*
X159740Y338580D01*
X133640Y338580D01*
X133840Y338680D02*
X133840Y364780D01*
X110110Y364780D01*
X110110Y338680D01*
X83030Y338680D01*
X83030Y364780D01*
X70430Y364780D01*
X70430Y322180D01*
X99220Y322180D01*
X113720Y305580D01*
D13*
X77170Y46990D02*
X52070Y46990D01*
X39370Y56990D02*
X39370Y87790D01*
X52370Y97790D02*
X77170Y97790D01*
X90170Y87790D02*
X90170Y56990D01*
X52070Y72390D02*
X52074Y72702D01*
X52085Y73013D01*
X52104Y73324D01*
X52131Y73635D01*
X52166Y73945D01*
X52207Y74253D01*
X52257Y74561D01*
X52314Y74868D01*
X52379Y75173D01*
X52451Y75476D01*
X52530Y75777D01*
X52617Y76077D01*
X52711Y76374D01*
X52812Y76669D01*
X52921Y76961D01*
X53037Y77250D01*
X53160Y77537D01*
X53289Y77820D01*
X53426Y78100D01*
X53570Y78377D01*
X53720Y78650D01*
X53877Y78919D01*
X54040Y79184D01*
X54210Y79446D01*
X54387Y79703D01*
X54569Y79955D01*
X54758Y80203D01*
X54953Y80447D01*
X55153Y80685D01*
X55360Y80919D01*
X55572Y81147D01*
X55790Y81370D01*
X56013Y81588D01*
X56241Y81800D01*
X56475Y82007D01*
X56713Y82207D01*
X56957Y82402D01*
X57205Y82591D01*
X57457Y82773D01*
X57714Y82950D01*
X57976Y83120D01*
X58241Y83283D01*
X58510Y83440D01*
X58783Y83590D01*
X59060Y83734D01*
X59340Y83871D01*
X59623Y84000D01*
X59910Y84123D01*
X60199Y84239D01*
X60491Y84348D01*
X60786Y84449D01*
X61083Y84543D01*
X61383Y84630D01*
X61684Y84709D01*
X61987Y84781D01*
X62292Y84846D01*
X62599Y84903D01*
X62907Y84953D01*
X63215Y84994D01*
X63525Y85029D01*
X63836Y85056D01*
X64147Y85075D01*
X64458Y85086D01*
X64770Y85090D01*
X65082Y85086D01*
X65393Y85075D01*
X65704Y85056D01*
X66015Y85029D01*
X66325Y84994D01*
X66633Y84953D01*
X66941Y84903D01*
X67248Y84846D01*
X67553Y84781D01*
X67856Y84709D01*
X68157Y84630D01*
X68457Y84543D01*
X68754Y84449D01*
X69049Y84348D01*
X69341Y84239D01*
X69630Y84123D01*
X69917Y84000D01*
X70200Y83871D01*
X70480Y83734D01*
X70757Y83590D01*
X71030Y83440D01*
X71299Y83283D01*
X71564Y83120D01*
X71826Y82950D01*
X72083Y82773D01*
X72335Y82591D01*
X72583Y82402D01*
X72827Y82207D01*
X73065Y82007D01*
X73299Y81800D01*
X73527Y81588D01*
X73750Y81370D01*
X73968Y81147D01*
X74180Y80919D01*
X74387Y80685D01*
X74587Y80447D01*
X74782Y80203D01*
X74971Y79955D01*
X75153Y79703D01*
X75330Y79446D01*
X75500Y79184D01*
X75663Y78919D01*
X75820Y78650D01*
X75970Y78377D01*
X76114Y78100D01*
X76251Y77820D01*
X76380Y77537D01*
X76503Y77250D01*
X76619Y76961D01*
X76728Y76669D01*
X76829Y76374D01*
X76923Y76077D01*
X77010Y75777D01*
X77089Y75476D01*
X77161Y75173D01*
X77226Y74868D01*
X77283Y74561D01*
X77333Y74253D01*
X77374Y73945D01*
X77409Y73635D01*
X77436Y73324D01*
X77455Y73013D01*
X77466Y72702D01*
X77470Y72390D01*
X77466Y72078D01*
X77455Y71767D01*
X77436Y71456D01*
X77409Y71145D01*
X77374Y70835D01*
X77333Y70527D01*
X77283Y70219D01*
X77226Y69912D01*
X77161Y69607D01*
X77089Y69304D01*
X77010Y69003D01*
X76923Y68703D01*
X76829Y68406D01*
X76728Y68111D01*
X76619Y67819D01*
X76503Y67530D01*
X76380Y67243D01*
X76251Y66960D01*
X76114Y66680D01*
X75970Y66403D01*
X75820Y66130D01*
X75663Y65861D01*
X75500Y65596D01*
X75330Y65334D01*
X75153Y65077D01*
X74971Y64825D01*
X74782Y64577D01*
X74587Y64333D01*
X74387Y64095D01*
X74180Y63861D01*
X73968Y63633D01*
X73750Y63410D01*
X73527Y63192D01*
X73299Y62980D01*
X73065Y62773D01*
X72827Y62573D01*
X72583Y62378D01*
X72335Y62189D01*
X72083Y62007D01*
X71826Y61830D01*
X71564Y61660D01*
X71299Y61497D01*
X71030Y61340D01*
X70757Y61190D01*
X70480Y61046D01*
X70200Y60909D01*
X69917Y60780D01*
X69630Y60657D01*
X69341Y60541D01*
X69049Y60432D01*
X68754Y60331D01*
X68457Y60237D01*
X68157Y60150D01*
X67856Y60071D01*
X67553Y59999D01*
X67248Y59934D01*
X66941Y59877D01*
X66633Y59827D01*
X66325Y59786D01*
X66015Y59751D01*
X65704Y59724D01*
X65393Y59705D01*
X65082Y59694D01*
X64770Y59690D01*
X64458Y59694D01*
X64147Y59705D01*
X63836Y59724D01*
X63525Y59751D01*
X63215Y59786D01*
X62907Y59827D01*
X62599Y59877D01*
X62292Y59934D01*
X61987Y59999D01*
X61684Y60071D01*
X61383Y60150D01*
X61083Y60237D01*
X60786Y60331D01*
X60491Y60432D01*
X60199Y60541D01*
X59910Y60657D01*
X59623Y60780D01*
X59340Y60909D01*
X59060Y61046D01*
X58783Y61190D01*
X58510Y61340D01*
X58241Y61497D01*
X57976Y61660D01*
X57714Y61830D01*
X57457Y62007D01*
X57205Y62189D01*
X56957Y62378D01*
X56713Y62573D01*
X56475Y62773D01*
X56241Y62980D01*
X56013Y63192D01*
X55790Y63410D01*
X55572Y63633D01*
X55360Y63861D01*
X55153Y64095D01*
X54953Y64333D01*
X54758Y64577D01*
X54569Y64825D01*
X54387Y65077D01*
X54210Y65334D01*
X54040Y65596D01*
X53877Y65861D01*
X53720Y66130D01*
X53570Y66403D01*
X53426Y66680D01*
X53289Y66960D01*
X53160Y67243D01*
X53037Y67530D01*
X52921Y67819D01*
X52812Y68111D01*
X52711Y68406D01*
X52617Y68703D01*
X52530Y69003D01*
X52451Y69304D01*
X52379Y69607D01*
X52314Y69912D01*
X52257Y70219D01*
X52207Y70527D01*
X52166Y70835D01*
X52131Y71145D01*
X52104Y71456D01*
X52085Y71767D01*
X52074Y72078D01*
X52070Y72390D01*
D14*
X114570Y10160D03*
D13*
X144145Y102870D02*
X178435Y102870D01*
X178435Y101346D01*
X178435Y40894D02*
X178435Y39370D01*
X144145Y39370D01*
X144145Y40894D01*
X144145Y101346D02*
X144145Y102870D01*
X178435Y91694D02*
X178435Y88646D01*
X178435Y78994D02*
X178435Y75946D01*
X178435Y66294D02*
X178435Y63246D01*
X178435Y53594D02*
X178435Y50546D01*
X144145Y50546D02*
X144145Y53594D01*
X144145Y63246D02*
X144145Y66294D01*
X144145Y75946D02*
X144145Y78994D01*
X144145Y88646D02*
X144145Y91694D01*
M02*
