G04 EAGLE Gerber RS-274X export*
G75*
%MOMM*%
%FSLAX34Y34*%
%LPD*%
%INSolderpaste Top*%
%IPPOS*%
%AMOC8*
5,1,8,0,0,1.08239X$1,22.5*%
G01*
%ADD10R,1.778000X0.711200*%
%ADD11R,0.711200X1.778000*%
%ADD12R,0.762000X1.524000*%
%ADD13R,1.200000X1.200000*%
%ADD14R,1.270000X0.508000*%


D10*
X185420Y167380D03*
X185420Y180080D03*
X185420Y192780D03*
X185420Y205480D03*
X185420Y218180D03*
X185420Y230880D03*
X185420Y243580D03*
X185420Y256280D03*
D11*
X159220Y144780D03*
X146520Y144780D03*
X133820Y144780D03*
X121120Y144780D03*
X108420Y144780D03*
X95720Y144780D03*
X83020Y144780D03*
D10*
X44020Y167380D03*
X44020Y180080D03*
X44020Y192780D03*
X44020Y205480D03*
X44020Y218180D03*
X44020Y230880D03*
X44020Y243580D03*
X44020Y256280D03*
D11*
X70320Y144780D03*
D12*
X45720Y44450D03*
X45720Y100330D03*
X83820Y44450D03*
X83820Y100330D03*
D13*
X105070Y10160D03*
X126070Y10160D03*
D14*
X185420Y71120D03*
X185420Y58420D03*
X185420Y45720D03*
X185420Y83820D03*
X185420Y96520D03*
X137160Y96520D03*
X137160Y83820D03*
X137160Y71120D03*
X137160Y58420D03*
X137160Y45720D03*
M02*
