G04 EAGLE Gerber RS-274X export*
G75*
%MOMM*%
%FSLAX34Y34*%
%LPD*%
%INSoldermask Top*%
%IPPOS*%
%AMOC8*
5,1,8,0,0,1.08239X$1,22.5*%
G01*
%ADD10C,2.082800*%
%ADD11R,1.981200X0.914400*%
%ADD12R,0.914400X1.981200*%
%ADD13R,0.965200X1.727200*%
%ADD14R,1.403200X1.403200*%
%ADD15R,1.473200X0.711200*%


D10*
X12700Y292100D03*
X12700Y266700D03*
X12700Y241300D03*
X12700Y215900D03*
X12700Y190500D03*
X12700Y165100D03*
X12700Y139700D03*
X12700Y114300D03*
X12700Y88900D03*
X12700Y63500D03*
X12700Y38100D03*
X12700Y12700D03*
X215900Y292100D03*
X215900Y266700D03*
X215900Y241300D03*
X215900Y215900D03*
X215900Y190500D03*
X215900Y165100D03*
X215900Y139700D03*
X215900Y114300D03*
X215900Y88900D03*
X215900Y63500D03*
X215900Y38100D03*
X215900Y12700D03*
D11*
X185420Y167380D03*
X185420Y180080D03*
X185420Y192780D03*
X185420Y205480D03*
X185420Y218180D03*
X185420Y230880D03*
X185420Y243580D03*
X185420Y256280D03*
D12*
X159220Y144780D03*
X146520Y144780D03*
X133820Y144780D03*
X121120Y144780D03*
X108420Y144780D03*
X95720Y144780D03*
X83020Y144780D03*
D11*
X44020Y167380D03*
X44020Y180080D03*
X44020Y192780D03*
X44020Y205480D03*
X44020Y218180D03*
X44020Y230880D03*
X44020Y243580D03*
X44020Y256280D03*
D12*
X70320Y144780D03*
D13*
X45720Y44450D03*
X45720Y100330D03*
X83820Y44450D03*
X83820Y100330D03*
D14*
X105070Y10160D03*
X126070Y10160D03*
D15*
X185420Y71120D03*
X185420Y58420D03*
X185420Y45720D03*
X185420Y83820D03*
X185420Y96520D03*
X137160Y96520D03*
X137160Y83820D03*
X137160Y71120D03*
X137160Y58420D03*
X137160Y45720D03*
M02*
