M48
;GenerationSoftware,Autodesk,EAGLE,9.6.2*%
;CreationDate,2022-05-16T13:33:29Z*%
FMAT,2
ICI,OFF
METRIC,TZ,000.000
T2C0.300
T1C1.016
%
G90
M71
T1
X1270Y24130
X21590Y19050
X1270Y29210
X1270Y26670
X1270Y21590
X1270Y19050
X1270Y16510
X1270Y13970
X1270Y11430
X1270Y8890
X1270Y6350
X1270Y3810
X1270Y1270
X21590Y29210
X21590Y26670
X21590Y24130
X21590Y21590
X21590Y16510
X21590Y13970
X21590Y11430
X21590Y8890
X21590Y6350
X21590Y3810
X21590Y1270
T2
X9271Y24257
X15113Y4572
X12573Y8382
X14986Y8382
X4572Y6858
X10750Y7250
X17399Y5842
X17145Y14859
X13843Y1016
X11557Y28067
X3250Y750
X5000Y750
X18542Y26797
X6750Y750
X8750Y750
X19500Y750
X17750Y750
X10750Y10500
X3750Y29750
X5750Y29750
X7750Y29750
X10000Y29750
X12250Y29750
X14500Y29750
X17000Y29750
X19250Y29750
X14500Y27950
X4500Y14750
X18500Y14500
X17250Y11000
X11600Y20350
X11600Y18350
X11600Y16650
X17000Y27950
M30